G04 #@! TF.GenerationSoftware,KiCad,Pcbnew,(5.1.5)-3*
G04 #@! TF.CreationDate,2020-04-26T21:45:51-07:00*
G04 #@! TF.ProjectId,JessopIII_SPP460,4a657373-6f70-4494-9949-5f5350503436,rev?*
G04 #@! TF.SameCoordinates,Original*
G04 #@! TF.FileFunction,Paste,Top*
G04 #@! TF.FilePolarity,Positive*
%FSLAX46Y46*%
G04 Gerber Fmt 4.6, Leading zero omitted, Abs format (unit mm)*
G04 Created by KiCad (PCBNEW (5.1.5)-3) date 2020-04-26 21:45:51*
%MOMM*%
%LPD*%
G04 APERTURE LIST*
G04 #@! TA.AperFunction,Profile*
%ADD10C,0.100000*%
G04 #@! TD*
%ADD11C,0.152400*%
%ADD12C,0.010000*%
%ADD13C,0.100000*%
%ADD14R,5.700000X1.600000*%
%ADD15R,0.660400X0.304800*%
%ADD16R,0.939800X2.514600*%
%ADD17R,0.660001X0.249999*%
%ADD18R,0.700001X0.249999*%
%ADD19R,1.220000X0.480000*%
G04 APERTURE END LIST*
D10*
X138430000Y-61722000D02*
X138430000Y-97536000D01*
X66548000Y-61722000D02*
X138430000Y-61722000D01*
X66548000Y-97536000D02*
X66548000Y-61722000D01*
X138430000Y-97536000D02*
X66548000Y-97536000D01*
D11*
G04 #@! TO.C,U1*
X95288100Y-75450700D02*
X95288100Y-77965300D01*
X95288100Y-77965300D02*
X96227900Y-77965300D01*
X96227900Y-77965300D02*
X96227900Y-75450700D01*
X96227900Y-75450700D02*
X95288100Y-75450700D01*
G04 #@! TO.C,U2*
X108666001Y-82433003D02*
X108716000Y-82433003D01*
X108716000Y-82433003D02*
X108816000Y-82533002D01*
X108816000Y-82533002D02*
X108816000Y-82682999D01*
X108816000Y-82682999D02*
X108666001Y-82682999D01*
X108666001Y-82682999D02*
X108666001Y-82433003D01*
D12*
G04 #@! TO.C,U3*
G36*
X107021500Y-91700500D02*
G01*
X107021500Y-92720500D01*
X105576500Y-92720500D01*
X105576500Y-91700500D01*
X107021500Y-91700500D01*
G37*
X107021500Y-91700500D02*
X107021500Y-92720500D01*
X105576500Y-92720500D01*
X105576500Y-91700500D01*
X107021500Y-91700500D01*
G36*
X106864000Y-93213000D02*
G01*
X106864000Y-93553000D01*
X106414000Y-93553000D01*
X106414000Y-93213000D01*
X106864000Y-93213000D01*
G37*
X106864000Y-93213000D02*
X106864000Y-93553000D01*
X106414000Y-93553000D01*
X106414000Y-93213000D01*
X106864000Y-93213000D01*
G36*
X105751500Y-91700500D02*
G01*
X105751500Y-92720500D01*
X104306500Y-92720500D01*
X104306500Y-91700500D01*
X105751500Y-91700500D01*
G37*
X105751500Y-91700500D02*
X105751500Y-92720500D01*
X104306500Y-92720500D01*
X104306500Y-91700500D01*
X105751500Y-91700500D01*
G36*
X106214000Y-93213000D02*
G01*
X106214000Y-93553000D01*
X105764000Y-93553000D01*
X105764000Y-93213000D01*
X106214000Y-93213000D01*
G37*
X106214000Y-93213000D02*
X106214000Y-93553000D01*
X105764000Y-93553000D01*
X105764000Y-93213000D01*
X106214000Y-93213000D01*
G36*
X105564000Y-93213000D02*
G01*
X105564000Y-93553000D01*
X105114000Y-93553000D01*
X105114000Y-93213000D01*
X105564000Y-93213000D01*
G37*
X105564000Y-93213000D02*
X105564000Y-93553000D01*
X105114000Y-93553000D01*
X105114000Y-93213000D01*
X105564000Y-93213000D01*
G36*
X104914000Y-93213000D02*
G01*
X104914000Y-93553000D01*
X104464000Y-93553000D01*
X104464000Y-93213000D01*
X104914000Y-93213000D01*
G37*
X104914000Y-93213000D02*
X104914000Y-93553000D01*
X104464000Y-93553000D01*
X104464000Y-93213000D01*
X104914000Y-93213000D01*
G36*
X106864000Y-90343000D02*
G01*
X106864000Y-90683000D01*
X106414000Y-90683000D01*
X106414000Y-90343000D01*
X106864000Y-90343000D01*
G37*
X106864000Y-90343000D02*
X106864000Y-90683000D01*
X106414000Y-90683000D01*
X106414000Y-90343000D01*
X106864000Y-90343000D01*
G36*
X106214000Y-90343000D02*
G01*
X106214000Y-90683000D01*
X105764000Y-90683000D01*
X105764000Y-90343000D01*
X106214000Y-90343000D01*
G37*
X106214000Y-90343000D02*
X106214000Y-90683000D01*
X105764000Y-90683000D01*
X105764000Y-90343000D01*
X106214000Y-90343000D01*
G36*
X105564000Y-90343000D02*
G01*
X105564000Y-90683000D01*
X105114000Y-90683000D01*
X105114000Y-90343000D01*
X105564000Y-90343000D01*
G37*
X105564000Y-90343000D02*
X105564000Y-90683000D01*
X105114000Y-90683000D01*
X105114000Y-90343000D01*
X105564000Y-90343000D01*
G36*
X104914000Y-90343000D02*
G01*
X104914000Y-90683000D01*
X104464000Y-90683000D01*
X104464000Y-90343000D01*
X104914000Y-90343000D01*
G37*
X104914000Y-90343000D02*
X104914000Y-90683000D01*
X104464000Y-90683000D01*
X104464000Y-90343000D01*
X104914000Y-90343000D01*
G04 #@! TO.C,U4*
G36*
X97040000Y-90343000D02*
G01*
X97040000Y-90683000D01*
X96590000Y-90683000D01*
X96590000Y-90343000D01*
X97040000Y-90343000D01*
G37*
X97040000Y-90343000D02*
X97040000Y-90683000D01*
X96590000Y-90683000D01*
X96590000Y-90343000D01*
X97040000Y-90343000D01*
G36*
X97690000Y-90343000D02*
G01*
X97690000Y-90683000D01*
X97240000Y-90683000D01*
X97240000Y-90343000D01*
X97690000Y-90343000D01*
G37*
X97690000Y-90343000D02*
X97690000Y-90683000D01*
X97240000Y-90683000D01*
X97240000Y-90343000D01*
X97690000Y-90343000D01*
G36*
X98340000Y-90343000D02*
G01*
X98340000Y-90683000D01*
X97890000Y-90683000D01*
X97890000Y-90343000D01*
X98340000Y-90343000D01*
G37*
X98340000Y-90343000D02*
X98340000Y-90683000D01*
X97890000Y-90683000D01*
X97890000Y-90343000D01*
X98340000Y-90343000D01*
G36*
X98990000Y-90343000D02*
G01*
X98990000Y-90683000D01*
X98540000Y-90683000D01*
X98540000Y-90343000D01*
X98990000Y-90343000D01*
G37*
X98990000Y-90343000D02*
X98990000Y-90683000D01*
X98540000Y-90683000D01*
X98540000Y-90343000D01*
X98990000Y-90343000D01*
G36*
X97040000Y-93213000D02*
G01*
X97040000Y-93553000D01*
X96590000Y-93553000D01*
X96590000Y-93213000D01*
X97040000Y-93213000D01*
G37*
X97040000Y-93213000D02*
X97040000Y-93553000D01*
X96590000Y-93553000D01*
X96590000Y-93213000D01*
X97040000Y-93213000D01*
G36*
X97690000Y-93213000D02*
G01*
X97690000Y-93553000D01*
X97240000Y-93553000D01*
X97240000Y-93213000D01*
X97690000Y-93213000D01*
G37*
X97690000Y-93213000D02*
X97690000Y-93553000D01*
X97240000Y-93553000D01*
X97240000Y-93213000D01*
X97690000Y-93213000D01*
G36*
X98340000Y-93213000D02*
G01*
X98340000Y-93553000D01*
X97890000Y-93553000D01*
X97890000Y-93213000D01*
X98340000Y-93213000D01*
G37*
X98340000Y-93213000D02*
X98340000Y-93553000D01*
X97890000Y-93553000D01*
X97890000Y-93213000D01*
X98340000Y-93213000D01*
G36*
X97877500Y-91700500D02*
G01*
X97877500Y-92720500D01*
X96432500Y-92720500D01*
X96432500Y-91700500D01*
X97877500Y-91700500D01*
G37*
X97877500Y-91700500D02*
X97877500Y-92720500D01*
X96432500Y-92720500D01*
X96432500Y-91700500D01*
X97877500Y-91700500D01*
G36*
X98990000Y-93213000D02*
G01*
X98990000Y-93553000D01*
X98540000Y-93553000D01*
X98540000Y-93213000D01*
X98990000Y-93213000D01*
G37*
X98990000Y-93213000D02*
X98990000Y-93553000D01*
X98540000Y-93553000D01*
X98540000Y-93213000D01*
X98990000Y-93213000D01*
G36*
X99147500Y-91700500D02*
G01*
X99147500Y-92720500D01*
X97702500Y-92720500D01*
X97702500Y-91700500D01*
X99147500Y-91700500D01*
G37*
X99147500Y-91700500D02*
X99147500Y-92720500D01*
X97702500Y-92720500D01*
X97702500Y-91700500D01*
X99147500Y-91700500D01*
G04 #@! TD*
D13*
G04 #@! TO.C,C1*
G36*
X74006142Y-72453174D02*
G01*
X74029803Y-72456684D01*
X74053007Y-72462496D01*
X74075529Y-72470554D01*
X74097153Y-72480782D01*
X74117670Y-72493079D01*
X74136883Y-72507329D01*
X74154607Y-72523393D01*
X74170671Y-72541117D01*
X74184921Y-72560330D01*
X74197218Y-72580847D01*
X74207446Y-72602471D01*
X74215504Y-72624993D01*
X74221316Y-72648197D01*
X74224826Y-72671858D01*
X74226000Y-72695750D01*
X74226000Y-73608250D01*
X74224826Y-73632142D01*
X74221316Y-73655803D01*
X74215504Y-73679007D01*
X74207446Y-73701529D01*
X74197218Y-73723153D01*
X74184921Y-73743670D01*
X74170671Y-73762883D01*
X74154607Y-73780607D01*
X74136883Y-73796671D01*
X74117670Y-73810921D01*
X74097153Y-73823218D01*
X74075529Y-73833446D01*
X74053007Y-73841504D01*
X74029803Y-73847316D01*
X74006142Y-73850826D01*
X73982250Y-73852000D01*
X73494750Y-73852000D01*
X73470858Y-73850826D01*
X73447197Y-73847316D01*
X73423993Y-73841504D01*
X73401471Y-73833446D01*
X73379847Y-73823218D01*
X73359330Y-73810921D01*
X73340117Y-73796671D01*
X73322393Y-73780607D01*
X73306329Y-73762883D01*
X73292079Y-73743670D01*
X73279782Y-73723153D01*
X73269554Y-73701529D01*
X73261496Y-73679007D01*
X73255684Y-73655803D01*
X73252174Y-73632142D01*
X73251000Y-73608250D01*
X73251000Y-72695750D01*
X73252174Y-72671858D01*
X73255684Y-72648197D01*
X73261496Y-72624993D01*
X73269554Y-72602471D01*
X73279782Y-72580847D01*
X73292079Y-72560330D01*
X73306329Y-72541117D01*
X73322393Y-72523393D01*
X73340117Y-72507329D01*
X73359330Y-72493079D01*
X73379847Y-72480782D01*
X73401471Y-72470554D01*
X73423993Y-72462496D01*
X73447197Y-72456684D01*
X73470858Y-72453174D01*
X73494750Y-72452000D01*
X73982250Y-72452000D01*
X74006142Y-72453174D01*
G37*
G36*
X75881142Y-72453174D02*
G01*
X75904803Y-72456684D01*
X75928007Y-72462496D01*
X75950529Y-72470554D01*
X75972153Y-72480782D01*
X75992670Y-72493079D01*
X76011883Y-72507329D01*
X76029607Y-72523393D01*
X76045671Y-72541117D01*
X76059921Y-72560330D01*
X76072218Y-72580847D01*
X76082446Y-72602471D01*
X76090504Y-72624993D01*
X76096316Y-72648197D01*
X76099826Y-72671858D01*
X76101000Y-72695750D01*
X76101000Y-73608250D01*
X76099826Y-73632142D01*
X76096316Y-73655803D01*
X76090504Y-73679007D01*
X76082446Y-73701529D01*
X76072218Y-73723153D01*
X76059921Y-73743670D01*
X76045671Y-73762883D01*
X76029607Y-73780607D01*
X76011883Y-73796671D01*
X75992670Y-73810921D01*
X75972153Y-73823218D01*
X75950529Y-73833446D01*
X75928007Y-73841504D01*
X75904803Y-73847316D01*
X75881142Y-73850826D01*
X75857250Y-73852000D01*
X75369750Y-73852000D01*
X75345858Y-73850826D01*
X75322197Y-73847316D01*
X75298993Y-73841504D01*
X75276471Y-73833446D01*
X75254847Y-73823218D01*
X75234330Y-73810921D01*
X75215117Y-73796671D01*
X75197393Y-73780607D01*
X75181329Y-73762883D01*
X75167079Y-73743670D01*
X75154782Y-73723153D01*
X75144554Y-73701529D01*
X75136496Y-73679007D01*
X75130684Y-73655803D01*
X75127174Y-73632142D01*
X75126000Y-73608250D01*
X75126000Y-72695750D01*
X75127174Y-72671858D01*
X75130684Y-72648197D01*
X75136496Y-72624993D01*
X75144554Y-72602471D01*
X75154782Y-72580847D01*
X75167079Y-72560330D01*
X75181329Y-72541117D01*
X75197393Y-72523393D01*
X75215117Y-72507329D01*
X75234330Y-72493079D01*
X75254847Y-72480782D01*
X75276471Y-72470554D01*
X75298993Y-72462496D01*
X75322197Y-72456684D01*
X75345858Y-72453174D01*
X75369750Y-72452000D01*
X75857250Y-72452000D01*
X75881142Y-72453174D01*
G37*
G04 #@! TD*
G04 #@! TO.C,C2*
G36*
X75881142Y-69405174D02*
G01*
X75904803Y-69408684D01*
X75928007Y-69414496D01*
X75950529Y-69422554D01*
X75972153Y-69432782D01*
X75992670Y-69445079D01*
X76011883Y-69459329D01*
X76029607Y-69475393D01*
X76045671Y-69493117D01*
X76059921Y-69512330D01*
X76072218Y-69532847D01*
X76082446Y-69554471D01*
X76090504Y-69576993D01*
X76096316Y-69600197D01*
X76099826Y-69623858D01*
X76101000Y-69647750D01*
X76101000Y-70560250D01*
X76099826Y-70584142D01*
X76096316Y-70607803D01*
X76090504Y-70631007D01*
X76082446Y-70653529D01*
X76072218Y-70675153D01*
X76059921Y-70695670D01*
X76045671Y-70714883D01*
X76029607Y-70732607D01*
X76011883Y-70748671D01*
X75992670Y-70762921D01*
X75972153Y-70775218D01*
X75950529Y-70785446D01*
X75928007Y-70793504D01*
X75904803Y-70799316D01*
X75881142Y-70802826D01*
X75857250Y-70804000D01*
X75369750Y-70804000D01*
X75345858Y-70802826D01*
X75322197Y-70799316D01*
X75298993Y-70793504D01*
X75276471Y-70785446D01*
X75254847Y-70775218D01*
X75234330Y-70762921D01*
X75215117Y-70748671D01*
X75197393Y-70732607D01*
X75181329Y-70714883D01*
X75167079Y-70695670D01*
X75154782Y-70675153D01*
X75144554Y-70653529D01*
X75136496Y-70631007D01*
X75130684Y-70607803D01*
X75127174Y-70584142D01*
X75126000Y-70560250D01*
X75126000Y-69647750D01*
X75127174Y-69623858D01*
X75130684Y-69600197D01*
X75136496Y-69576993D01*
X75144554Y-69554471D01*
X75154782Y-69532847D01*
X75167079Y-69512330D01*
X75181329Y-69493117D01*
X75197393Y-69475393D01*
X75215117Y-69459329D01*
X75234330Y-69445079D01*
X75254847Y-69432782D01*
X75276471Y-69422554D01*
X75298993Y-69414496D01*
X75322197Y-69408684D01*
X75345858Y-69405174D01*
X75369750Y-69404000D01*
X75857250Y-69404000D01*
X75881142Y-69405174D01*
G37*
G36*
X74006142Y-69405174D02*
G01*
X74029803Y-69408684D01*
X74053007Y-69414496D01*
X74075529Y-69422554D01*
X74097153Y-69432782D01*
X74117670Y-69445079D01*
X74136883Y-69459329D01*
X74154607Y-69475393D01*
X74170671Y-69493117D01*
X74184921Y-69512330D01*
X74197218Y-69532847D01*
X74207446Y-69554471D01*
X74215504Y-69576993D01*
X74221316Y-69600197D01*
X74224826Y-69623858D01*
X74226000Y-69647750D01*
X74226000Y-70560250D01*
X74224826Y-70584142D01*
X74221316Y-70607803D01*
X74215504Y-70631007D01*
X74207446Y-70653529D01*
X74197218Y-70675153D01*
X74184921Y-70695670D01*
X74170671Y-70714883D01*
X74154607Y-70732607D01*
X74136883Y-70748671D01*
X74117670Y-70762921D01*
X74097153Y-70775218D01*
X74075529Y-70785446D01*
X74053007Y-70793504D01*
X74029803Y-70799316D01*
X74006142Y-70802826D01*
X73982250Y-70804000D01*
X73494750Y-70804000D01*
X73470858Y-70802826D01*
X73447197Y-70799316D01*
X73423993Y-70793504D01*
X73401471Y-70785446D01*
X73379847Y-70775218D01*
X73359330Y-70762921D01*
X73340117Y-70748671D01*
X73322393Y-70732607D01*
X73306329Y-70714883D01*
X73292079Y-70695670D01*
X73279782Y-70675153D01*
X73269554Y-70653529D01*
X73261496Y-70631007D01*
X73255684Y-70607803D01*
X73252174Y-70584142D01*
X73251000Y-70560250D01*
X73251000Y-69647750D01*
X73252174Y-69623858D01*
X73255684Y-69600197D01*
X73261496Y-69576993D01*
X73269554Y-69554471D01*
X73279782Y-69532847D01*
X73292079Y-69512330D01*
X73306329Y-69493117D01*
X73322393Y-69475393D01*
X73340117Y-69459329D01*
X73359330Y-69445079D01*
X73379847Y-69432782D01*
X73401471Y-69422554D01*
X73423993Y-69414496D01*
X73447197Y-69408684D01*
X73470858Y-69405174D01*
X73494750Y-69404000D01*
X73982250Y-69404000D01*
X74006142Y-69405174D01*
G37*
G04 #@! TD*
G04 #@! TO.C,C3*
G36*
X99794142Y-74873174D02*
G01*
X99817803Y-74876684D01*
X99841007Y-74882496D01*
X99863529Y-74890554D01*
X99885153Y-74900782D01*
X99905670Y-74913079D01*
X99924883Y-74927329D01*
X99942607Y-74943393D01*
X99958671Y-74961117D01*
X99972921Y-74980330D01*
X99985218Y-75000847D01*
X99995446Y-75022471D01*
X100003504Y-75044993D01*
X100009316Y-75068197D01*
X100012826Y-75091858D01*
X100014000Y-75115750D01*
X100014000Y-75603250D01*
X100012826Y-75627142D01*
X100009316Y-75650803D01*
X100003504Y-75674007D01*
X99995446Y-75696529D01*
X99985218Y-75718153D01*
X99972921Y-75738670D01*
X99958671Y-75757883D01*
X99942607Y-75775607D01*
X99924883Y-75791671D01*
X99905670Y-75805921D01*
X99885153Y-75818218D01*
X99863529Y-75828446D01*
X99841007Y-75836504D01*
X99817803Y-75842316D01*
X99794142Y-75845826D01*
X99770250Y-75847000D01*
X98857750Y-75847000D01*
X98833858Y-75845826D01*
X98810197Y-75842316D01*
X98786993Y-75836504D01*
X98764471Y-75828446D01*
X98742847Y-75818218D01*
X98722330Y-75805921D01*
X98703117Y-75791671D01*
X98685393Y-75775607D01*
X98669329Y-75757883D01*
X98655079Y-75738670D01*
X98642782Y-75718153D01*
X98632554Y-75696529D01*
X98624496Y-75674007D01*
X98618684Y-75650803D01*
X98615174Y-75627142D01*
X98614000Y-75603250D01*
X98614000Y-75115750D01*
X98615174Y-75091858D01*
X98618684Y-75068197D01*
X98624496Y-75044993D01*
X98632554Y-75022471D01*
X98642782Y-75000847D01*
X98655079Y-74980330D01*
X98669329Y-74961117D01*
X98685393Y-74943393D01*
X98703117Y-74927329D01*
X98722330Y-74913079D01*
X98742847Y-74900782D01*
X98764471Y-74890554D01*
X98786993Y-74882496D01*
X98810197Y-74876684D01*
X98833858Y-74873174D01*
X98857750Y-74872000D01*
X99770250Y-74872000D01*
X99794142Y-74873174D01*
G37*
G36*
X99794142Y-72998174D02*
G01*
X99817803Y-73001684D01*
X99841007Y-73007496D01*
X99863529Y-73015554D01*
X99885153Y-73025782D01*
X99905670Y-73038079D01*
X99924883Y-73052329D01*
X99942607Y-73068393D01*
X99958671Y-73086117D01*
X99972921Y-73105330D01*
X99985218Y-73125847D01*
X99995446Y-73147471D01*
X100003504Y-73169993D01*
X100009316Y-73193197D01*
X100012826Y-73216858D01*
X100014000Y-73240750D01*
X100014000Y-73728250D01*
X100012826Y-73752142D01*
X100009316Y-73775803D01*
X100003504Y-73799007D01*
X99995446Y-73821529D01*
X99985218Y-73843153D01*
X99972921Y-73863670D01*
X99958671Y-73882883D01*
X99942607Y-73900607D01*
X99924883Y-73916671D01*
X99905670Y-73930921D01*
X99885153Y-73943218D01*
X99863529Y-73953446D01*
X99841007Y-73961504D01*
X99817803Y-73967316D01*
X99794142Y-73970826D01*
X99770250Y-73972000D01*
X98857750Y-73972000D01*
X98833858Y-73970826D01*
X98810197Y-73967316D01*
X98786993Y-73961504D01*
X98764471Y-73953446D01*
X98742847Y-73943218D01*
X98722330Y-73930921D01*
X98703117Y-73916671D01*
X98685393Y-73900607D01*
X98669329Y-73882883D01*
X98655079Y-73863670D01*
X98642782Y-73843153D01*
X98632554Y-73821529D01*
X98624496Y-73799007D01*
X98618684Y-73775803D01*
X98615174Y-73752142D01*
X98614000Y-73728250D01*
X98614000Y-73240750D01*
X98615174Y-73216858D01*
X98618684Y-73193197D01*
X98624496Y-73169993D01*
X98632554Y-73147471D01*
X98642782Y-73125847D01*
X98655079Y-73105330D01*
X98669329Y-73086117D01*
X98685393Y-73068393D01*
X98703117Y-73052329D01*
X98722330Y-73038079D01*
X98742847Y-73025782D01*
X98764471Y-73015554D01*
X98786993Y-73007496D01*
X98810197Y-73001684D01*
X98833858Y-72998174D01*
X98857750Y-72997000D01*
X99770250Y-72997000D01*
X99794142Y-72998174D01*
G37*
G04 #@! TD*
G04 #@! TO.C,C4*
G36*
X102588142Y-72998174D02*
G01*
X102611803Y-73001684D01*
X102635007Y-73007496D01*
X102657529Y-73015554D01*
X102679153Y-73025782D01*
X102699670Y-73038079D01*
X102718883Y-73052329D01*
X102736607Y-73068393D01*
X102752671Y-73086117D01*
X102766921Y-73105330D01*
X102779218Y-73125847D01*
X102789446Y-73147471D01*
X102797504Y-73169993D01*
X102803316Y-73193197D01*
X102806826Y-73216858D01*
X102808000Y-73240750D01*
X102808000Y-73728250D01*
X102806826Y-73752142D01*
X102803316Y-73775803D01*
X102797504Y-73799007D01*
X102789446Y-73821529D01*
X102779218Y-73843153D01*
X102766921Y-73863670D01*
X102752671Y-73882883D01*
X102736607Y-73900607D01*
X102718883Y-73916671D01*
X102699670Y-73930921D01*
X102679153Y-73943218D01*
X102657529Y-73953446D01*
X102635007Y-73961504D01*
X102611803Y-73967316D01*
X102588142Y-73970826D01*
X102564250Y-73972000D01*
X101651750Y-73972000D01*
X101627858Y-73970826D01*
X101604197Y-73967316D01*
X101580993Y-73961504D01*
X101558471Y-73953446D01*
X101536847Y-73943218D01*
X101516330Y-73930921D01*
X101497117Y-73916671D01*
X101479393Y-73900607D01*
X101463329Y-73882883D01*
X101449079Y-73863670D01*
X101436782Y-73843153D01*
X101426554Y-73821529D01*
X101418496Y-73799007D01*
X101412684Y-73775803D01*
X101409174Y-73752142D01*
X101408000Y-73728250D01*
X101408000Y-73240750D01*
X101409174Y-73216858D01*
X101412684Y-73193197D01*
X101418496Y-73169993D01*
X101426554Y-73147471D01*
X101436782Y-73125847D01*
X101449079Y-73105330D01*
X101463329Y-73086117D01*
X101479393Y-73068393D01*
X101497117Y-73052329D01*
X101516330Y-73038079D01*
X101536847Y-73025782D01*
X101558471Y-73015554D01*
X101580993Y-73007496D01*
X101604197Y-73001684D01*
X101627858Y-72998174D01*
X101651750Y-72997000D01*
X102564250Y-72997000D01*
X102588142Y-72998174D01*
G37*
G36*
X102588142Y-74873174D02*
G01*
X102611803Y-74876684D01*
X102635007Y-74882496D01*
X102657529Y-74890554D01*
X102679153Y-74900782D01*
X102699670Y-74913079D01*
X102718883Y-74927329D01*
X102736607Y-74943393D01*
X102752671Y-74961117D01*
X102766921Y-74980330D01*
X102779218Y-75000847D01*
X102789446Y-75022471D01*
X102797504Y-75044993D01*
X102803316Y-75068197D01*
X102806826Y-75091858D01*
X102808000Y-75115750D01*
X102808000Y-75603250D01*
X102806826Y-75627142D01*
X102803316Y-75650803D01*
X102797504Y-75674007D01*
X102789446Y-75696529D01*
X102779218Y-75718153D01*
X102766921Y-75738670D01*
X102752671Y-75757883D01*
X102736607Y-75775607D01*
X102718883Y-75791671D01*
X102699670Y-75805921D01*
X102679153Y-75818218D01*
X102657529Y-75828446D01*
X102635007Y-75836504D01*
X102611803Y-75842316D01*
X102588142Y-75845826D01*
X102564250Y-75847000D01*
X101651750Y-75847000D01*
X101627858Y-75845826D01*
X101604197Y-75842316D01*
X101580993Y-75836504D01*
X101558471Y-75828446D01*
X101536847Y-75818218D01*
X101516330Y-75805921D01*
X101497117Y-75791671D01*
X101479393Y-75775607D01*
X101463329Y-75757883D01*
X101449079Y-75738670D01*
X101436782Y-75718153D01*
X101426554Y-75696529D01*
X101418496Y-75674007D01*
X101412684Y-75650803D01*
X101409174Y-75627142D01*
X101408000Y-75603250D01*
X101408000Y-75115750D01*
X101409174Y-75091858D01*
X101412684Y-75068197D01*
X101418496Y-75044993D01*
X101426554Y-75022471D01*
X101436782Y-75000847D01*
X101449079Y-74980330D01*
X101463329Y-74961117D01*
X101479393Y-74943393D01*
X101497117Y-74927329D01*
X101516330Y-74913079D01*
X101536847Y-74900782D01*
X101558471Y-74890554D01*
X101580993Y-74882496D01*
X101604197Y-74876684D01*
X101627858Y-74873174D01*
X101651750Y-74872000D01*
X102564250Y-74872000D01*
X102588142Y-74873174D01*
G37*
G04 #@! TD*
G04 #@! TO.C,C5*
G36*
X116050142Y-83509174D02*
G01*
X116073803Y-83512684D01*
X116097007Y-83518496D01*
X116119529Y-83526554D01*
X116141153Y-83536782D01*
X116161670Y-83549079D01*
X116180883Y-83563329D01*
X116198607Y-83579393D01*
X116214671Y-83597117D01*
X116228921Y-83616330D01*
X116241218Y-83636847D01*
X116251446Y-83658471D01*
X116259504Y-83680993D01*
X116265316Y-83704197D01*
X116268826Y-83727858D01*
X116270000Y-83751750D01*
X116270000Y-84239250D01*
X116268826Y-84263142D01*
X116265316Y-84286803D01*
X116259504Y-84310007D01*
X116251446Y-84332529D01*
X116241218Y-84354153D01*
X116228921Y-84374670D01*
X116214671Y-84393883D01*
X116198607Y-84411607D01*
X116180883Y-84427671D01*
X116161670Y-84441921D01*
X116141153Y-84454218D01*
X116119529Y-84464446D01*
X116097007Y-84472504D01*
X116073803Y-84478316D01*
X116050142Y-84481826D01*
X116026250Y-84483000D01*
X115113750Y-84483000D01*
X115089858Y-84481826D01*
X115066197Y-84478316D01*
X115042993Y-84472504D01*
X115020471Y-84464446D01*
X114998847Y-84454218D01*
X114978330Y-84441921D01*
X114959117Y-84427671D01*
X114941393Y-84411607D01*
X114925329Y-84393883D01*
X114911079Y-84374670D01*
X114898782Y-84354153D01*
X114888554Y-84332529D01*
X114880496Y-84310007D01*
X114874684Y-84286803D01*
X114871174Y-84263142D01*
X114870000Y-84239250D01*
X114870000Y-83751750D01*
X114871174Y-83727858D01*
X114874684Y-83704197D01*
X114880496Y-83680993D01*
X114888554Y-83658471D01*
X114898782Y-83636847D01*
X114911079Y-83616330D01*
X114925329Y-83597117D01*
X114941393Y-83579393D01*
X114959117Y-83563329D01*
X114978330Y-83549079D01*
X114998847Y-83536782D01*
X115020471Y-83526554D01*
X115042993Y-83518496D01*
X115066197Y-83512684D01*
X115089858Y-83509174D01*
X115113750Y-83508000D01*
X116026250Y-83508000D01*
X116050142Y-83509174D01*
G37*
G36*
X116050142Y-81634174D02*
G01*
X116073803Y-81637684D01*
X116097007Y-81643496D01*
X116119529Y-81651554D01*
X116141153Y-81661782D01*
X116161670Y-81674079D01*
X116180883Y-81688329D01*
X116198607Y-81704393D01*
X116214671Y-81722117D01*
X116228921Y-81741330D01*
X116241218Y-81761847D01*
X116251446Y-81783471D01*
X116259504Y-81805993D01*
X116265316Y-81829197D01*
X116268826Y-81852858D01*
X116270000Y-81876750D01*
X116270000Y-82364250D01*
X116268826Y-82388142D01*
X116265316Y-82411803D01*
X116259504Y-82435007D01*
X116251446Y-82457529D01*
X116241218Y-82479153D01*
X116228921Y-82499670D01*
X116214671Y-82518883D01*
X116198607Y-82536607D01*
X116180883Y-82552671D01*
X116161670Y-82566921D01*
X116141153Y-82579218D01*
X116119529Y-82589446D01*
X116097007Y-82597504D01*
X116073803Y-82603316D01*
X116050142Y-82606826D01*
X116026250Y-82608000D01*
X115113750Y-82608000D01*
X115089858Y-82606826D01*
X115066197Y-82603316D01*
X115042993Y-82597504D01*
X115020471Y-82589446D01*
X114998847Y-82579218D01*
X114978330Y-82566921D01*
X114959117Y-82552671D01*
X114941393Y-82536607D01*
X114925329Y-82518883D01*
X114911079Y-82499670D01*
X114898782Y-82479153D01*
X114888554Y-82457529D01*
X114880496Y-82435007D01*
X114874684Y-82411803D01*
X114871174Y-82388142D01*
X114870000Y-82364250D01*
X114870000Y-81876750D01*
X114871174Y-81852858D01*
X114874684Y-81829197D01*
X114880496Y-81805993D01*
X114888554Y-81783471D01*
X114898782Y-81761847D01*
X114911079Y-81741330D01*
X114925329Y-81722117D01*
X114941393Y-81704393D01*
X114959117Y-81688329D01*
X114978330Y-81674079D01*
X114998847Y-81661782D01*
X115020471Y-81651554D01*
X115042993Y-81643496D01*
X115066197Y-81637684D01*
X115089858Y-81634174D01*
X115113750Y-81633000D01*
X116026250Y-81633000D01*
X116050142Y-81634174D01*
G37*
G04 #@! TD*
G04 #@! TO.C,C6*
G36*
X111598142Y-70929174D02*
G01*
X111621803Y-70932684D01*
X111645007Y-70938496D01*
X111667529Y-70946554D01*
X111689153Y-70956782D01*
X111709670Y-70969079D01*
X111728883Y-70983329D01*
X111746607Y-70999393D01*
X111762671Y-71017117D01*
X111776921Y-71036330D01*
X111789218Y-71056847D01*
X111799446Y-71078471D01*
X111807504Y-71100993D01*
X111813316Y-71124197D01*
X111816826Y-71147858D01*
X111818000Y-71171750D01*
X111818000Y-72084250D01*
X111816826Y-72108142D01*
X111813316Y-72131803D01*
X111807504Y-72155007D01*
X111799446Y-72177529D01*
X111789218Y-72199153D01*
X111776921Y-72219670D01*
X111762671Y-72238883D01*
X111746607Y-72256607D01*
X111728883Y-72272671D01*
X111709670Y-72286921D01*
X111689153Y-72299218D01*
X111667529Y-72309446D01*
X111645007Y-72317504D01*
X111621803Y-72323316D01*
X111598142Y-72326826D01*
X111574250Y-72328000D01*
X111086750Y-72328000D01*
X111062858Y-72326826D01*
X111039197Y-72323316D01*
X111015993Y-72317504D01*
X110993471Y-72309446D01*
X110971847Y-72299218D01*
X110951330Y-72286921D01*
X110932117Y-72272671D01*
X110914393Y-72256607D01*
X110898329Y-72238883D01*
X110884079Y-72219670D01*
X110871782Y-72199153D01*
X110861554Y-72177529D01*
X110853496Y-72155007D01*
X110847684Y-72131803D01*
X110844174Y-72108142D01*
X110843000Y-72084250D01*
X110843000Y-71171750D01*
X110844174Y-71147858D01*
X110847684Y-71124197D01*
X110853496Y-71100993D01*
X110861554Y-71078471D01*
X110871782Y-71056847D01*
X110884079Y-71036330D01*
X110898329Y-71017117D01*
X110914393Y-70999393D01*
X110932117Y-70983329D01*
X110951330Y-70969079D01*
X110971847Y-70956782D01*
X110993471Y-70946554D01*
X111015993Y-70938496D01*
X111039197Y-70932684D01*
X111062858Y-70929174D01*
X111086750Y-70928000D01*
X111574250Y-70928000D01*
X111598142Y-70929174D01*
G37*
G36*
X113473142Y-70929174D02*
G01*
X113496803Y-70932684D01*
X113520007Y-70938496D01*
X113542529Y-70946554D01*
X113564153Y-70956782D01*
X113584670Y-70969079D01*
X113603883Y-70983329D01*
X113621607Y-70999393D01*
X113637671Y-71017117D01*
X113651921Y-71036330D01*
X113664218Y-71056847D01*
X113674446Y-71078471D01*
X113682504Y-71100993D01*
X113688316Y-71124197D01*
X113691826Y-71147858D01*
X113693000Y-71171750D01*
X113693000Y-72084250D01*
X113691826Y-72108142D01*
X113688316Y-72131803D01*
X113682504Y-72155007D01*
X113674446Y-72177529D01*
X113664218Y-72199153D01*
X113651921Y-72219670D01*
X113637671Y-72238883D01*
X113621607Y-72256607D01*
X113603883Y-72272671D01*
X113584670Y-72286921D01*
X113564153Y-72299218D01*
X113542529Y-72309446D01*
X113520007Y-72317504D01*
X113496803Y-72323316D01*
X113473142Y-72326826D01*
X113449250Y-72328000D01*
X112961750Y-72328000D01*
X112937858Y-72326826D01*
X112914197Y-72323316D01*
X112890993Y-72317504D01*
X112868471Y-72309446D01*
X112846847Y-72299218D01*
X112826330Y-72286921D01*
X112807117Y-72272671D01*
X112789393Y-72256607D01*
X112773329Y-72238883D01*
X112759079Y-72219670D01*
X112746782Y-72199153D01*
X112736554Y-72177529D01*
X112728496Y-72155007D01*
X112722684Y-72131803D01*
X112719174Y-72108142D01*
X112718000Y-72084250D01*
X112718000Y-71171750D01*
X112719174Y-71147858D01*
X112722684Y-71124197D01*
X112728496Y-71100993D01*
X112736554Y-71078471D01*
X112746782Y-71056847D01*
X112759079Y-71036330D01*
X112773329Y-71017117D01*
X112789393Y-70999393D01*
X112807117Y-70983329D01*
X112826330Y-70969079D01*
X112846847Y-70956782D01*
X112868471Y-70946554D01*
X112890993Y-70938496D01*
X112914197Y-70932684D01*
X112937858Y-70929174D01*
X112961750Y-70928000D01*
X113449250Y-70928000D01*
X113473142Y-70929174D01*
G37*
G04 #@! TD*
G04 #@! TO.C,C7*
G36*
X125702142Y-75381174D02*
G01*
X125725803Y-75384684D01*
X125749007Y-75390496D01*
X125771529Y-75398554D01*
X125793153Y-75408782D01*
X125813670Y-75421079D01*
X125832883Y-75435329D01*
X125850607Y-75451393D01*
X125866671Y-75469117D01*
X125880921Y-75488330D01*
X125893218Y-75508847D01*
X125903446Y-75530471D01*
X125911504Y-75552993D01*
X125917316Y-75576197D01*
X125920826Y-75599858D01*
X125922000Y-75623750D01*
X125922000Y-76111250D01*
X125920826Y-76135142D01*
X125917316Y-76158803D01*
X125911504Y-76182007D01*
X125903446Y-76204529D01*
X125893218Y-76226153D01*
X125880921Y-76246670D01*
X125866671Y-76265883D01*
X125850607Y-76283607D01*
X125832883Y-76299671D01*
X125813670Y-76313921D01*
X125793153Y-76326218D01*
X125771529Y-76336446D01*
X125749007Y-76344504D01*
X125725803Y-76350316D01*
X125702142Y-76353826D01*
X125678250Y-76355000D01*
X124765750Y-76355000D01*
X124741858Y-76353826D01*
X124718197Y-76350316D01*
X124694993Y-76344504D01*
X124672471Y-76336446D01*
X124650847Y-76326218D01*
X124630330Y-76313921D01*
X124611117Y-76299671D01*
X124593393Y-76283607D01*
X124577329Y-76265883D01*
X124563079Y-76246670D01*
X124550782Y-76226153D01*
X124540554Y-76204529D01*
X124532496Y-76182007D01*
X124526684Y-76158803D01*
X124523174Y-76135142D01*
X124522000Y-76111250D01*
X124522000Y-75623750D01*
X124523174Y-75599858D01*
X124526684Y-75576197D01*
X124532496Y-75552993D01*
X124540554Y-75530471D01*
X124550782Y-75508847D01*
X124563079Y-75488330D01*
X124577329Y-75469117D01*
X124593393Y-75451393D01*
X124611117Y-75435329D01*
X124630330Y-75421079D01*
X124650847Y-75408782D01*
X124672471Y-75398554D01*
X124694993Y-75390496D01*
X124718197Y-75384684D01*
X124741858Y-75381174D01*
X124765750Y-75380000D01*
X125678250Y-75380000D01*
X125702142Y-75381174D01*
G37*
G36*
X125702142Y-73506174D02*
G01*
X125725803Y-73509684D01*
X125749007Y-73515496D01*
X125771529Y-73523554D01*
X125793153Y-73533782D01*
X125813670Y-73546079D01*
X125832883Y-73560329D01*
X125850607Y-73576393D01*
X125866671Y-73594117D01*
X125880921Y-73613330D01*
X125893218Y-73633847D01*
X125903446Y-73655471D01*
X125911504Y-73677993D01*
X125917316Y-73701197D01*
X125920826Y-73724858D01*
X125922000Y-73748750D01*
X125922000Y-74236250D01*
X125920826Y-74260142D01*
X125917316Y-74283803D01*
X125911504Y-74307007D01*
X125903446Y-74329529D01*
X125893218Y-74351153D01*
X125880921Y-74371670D01*
X125866671Y-74390883D01*
X125850607Y-74408607D01*
X125832883Y-74424671D01*
X125813670Y-74438921D01*
X125793153Y-74451218D01*
X125771529Y-74461446D01*
X125749007Y-74469504D01*
X125725803Y-74475316D01*
X125702142Y-74478826D01*
X125678250Y-74480000D01*
X124765750Y-74480000D01*
X124741858Y-74478826D01*
X124718197Y-74475316D01*
X124694993Y-74469504D01*
X124672471Y-74461446D01*
X124650847Y-74451218D01*
X124630330Y-74438921D01*
X124611117Y-74424671D01*
X124593393Y-74408607D01*
X124577329Y-74390883D01*
X124563079Y-74371670D01*
X124550782Y-74351153D01*
X124540554Y-74329529D01*
X124532496Y-74307007D01*
X124526684Y-74283803D01*
X124523174Y-74260142D01*
X124522000Y-74236250D01*
X124522000Y-73748750D01*
X124523174Y-73724858D01*
X124526684Y-73701197D01*
X124532496Y-73677993D01*
X124540554Y-73655471D01*
X124550782Y-73633847D01*
X124563079Y-73613330D01*
X124577329Y-73594117D01*
X124593393Y-73576393D01*
X124611117Y-73560329D01*
X124630330Y-73546079D01*
X124650847Y-73533782D01*
X124672471Y-73523554D01*
X124694993Y-73515496D01*
X124718197Y-73509684D01*
X124741858Y-73506174D01*
X124765750Y-73505000D01*
X125678250Y-73505000D01*
X125702142Y-73506174D01*
G37*
G04 #@! TD*
G04 #@! TO.C,C8*
G36*
X130237142Y-73469174D02*
G01*
X130260803Y-73472684D01*
X130284007Y-73478496D01*
X130306529Y-73486554D01*
X130328153Y-73496782D01*
X130348670Y-73509079D01*
X130367883Y-73523329D01*
X130385607Y-73539393D01*
X130401671Y-73557117D01*
X130415921Y-73576330D01*
X130428218Y-73596847D01*
X130438446Y-73618471D01*
X130446504Y-73640993D01*
X130452316Y-73664197D01*
X130455826Y-73687858D01*
X130457000Y-73711750D01*
X130457000Y-74624250D01*
X130455826Y-74648142D01*
X130452316Y-74671803D01*
X130446504Y-74695007D01*
X130438446Y-74717529D01*
X130428218Y-74739153D01*
X130415921Y-74759670D01*
X130401671Y-74778883D01*
X130385607Y-74796607D01*
X130367883Y-74812671D01*
X130348670Y-74826921D01*
X130328153Y-74839218D01*
X130306529Y-74849446D01*
X130284007Y-74857504D01*
X130260803Y-74863316D01*
X130237142Y-74866826D01*
X130213250Y-74868000D01*
X129725750Y-74868000D01*
X129701858Y-74866826D01*
X129678197Y-74863316D01*
X129654993Y-74857504D01*
X129632471Y-74849446D01*
X129610847Y-74839218D01*
X129590330Y-74826921D01*
X129571117Y-74812671D01*
X129553393Y-74796607D01*
X129537329Y-74778883D01*
X129523079Y-74759670D01*
X129510782Y-74739153D01*
X129500554Y-74717529D01*
X129492496Y-74695007D01*
X129486684Y-74671803D01*
X129483174Y-74648142D01*
X129482000Y-74624250D01*
X129482000Y-73711750D01*
X129483174Y-73687858D01*
X129486684Y-73664197D01*
X129492496Y-73640993D01*
X129500554Y-73618471D01*
X129510782Y-73596847D01*
X129523079Y-73576330D01*
X129537329Y-73557117D01*
X129553393Y-73539393D01*
X129571117Y-73523329D01*
X129590330Y-73509079D01*
X129610847Y-73496782D01*
X129632471Y-73486554D01*
X129654993Y-73478496D01*
X129678197Y-73472684D01*
X129701858Y-73469174D01*
X129725750Y-73468000D01*
X130213250Y-73468000D01*
X130237142Y-73469174D01*
G37*
G36*
X128362142Y-73469174D02*
G01*
X128385803Y-73472684D01*
X128409007Y-73478496D01*
X128431529Y-73486554D01*
X128453153Y-73496782D01*
X128473670Y-73509079D01*
X128492883Y-73523329D01*
X128510607Y-73539393D01*
X128526671Y-73557117D01*
X128540921Y-73576330D01*
X128553218Y-73596847D01*
X128563446Y-73618471D01*
X128571504Y-73640993D01*
X128577316Y-73664197D01*
X128580826Y-73687858D01*
X128582000Y-73711750D01*
X128582000Y-74624250D01*
X128580826Y-74648142D01*
X128577316Y-74671803D01*
X128571504Y-74695007D01*
X128563446Y-74717529D01*
X128553218Y-74739153D01*
X128540921Y-74759670D01*
X128526671Y-74778883D01*
X128510607Y-74796607D01*
X128492883Y-74812671D01*
X128473670Y-74826921D01*
X128453153Y-74839218D01*
X128431529Y-74849446D01*
X128409007Y-74857504D01*
X128385803Y-74863316D01*
X128362142Y-74866826D01*
X128338250Y-74868000D01*
X127850750Y-74868000D01*
X127826858Y-74866826D01*
X127803197Y-74863316D01*
X127779993Y-74857504D01*
X127757471Y-74849446D01*
X127735847Y-74839218D01*
X127715330Y-74826921D01*
X127696117Y-74812671D01*
X127678393Y-74796607D01*
X127662329Y-74778883D01*
X127648079Y-74759670D01*
X127635782Y-74739153D01*
X127625554Y-74717529D01*
X127617496Y-74695007D01*
X127611684Y-74671803D01*
X127608174Y-74648142D01*
X127607000Y-74624250D01*
X127607000Y-73711750D01*
X127608174Y-73687858D01*
X127611684Y-73664197D01*
X127617496Y-73640993D01*
X127625554Y-73618471D01*
X127635782Y-73596847D01*
X127648079Y-73576330D01*
X127662329Y-73557117D01*
X127678393Y-73539393D01*
X127696117Y-73523329D01*
X127715330Y-73509079D01*
X127735847Y-73496782D01*
X127757471Y-73486554D01*
X127779993Y-73478496D01*
X127803197Y-73472684D01*
X127826858Y-73469174D01*
X127850750Y-73468000D01*
X128338250Y-73468000D01*
X128362142Y-73469174D01*
G37*
G04 #@! TD*
G04 #@! TO.C,C9*
G36*
X128362142Y-76263174D02*
G01*
X128385803Y-76266684D01*
X128409007Y-76272496D01*
X128431529Y-76280554D01*
X128453153Y-76290782D01*
X128473670Y-76303079D01*
X128492883Y-76317329D01*
X128510607Y-76333393D01*
X128526671Y-76351117D01*
X128540921Y-76370330D01*
X128553218Y-76390847D01*
X128563446Y-76412471D01*
X128571504Y-76434993D01*
X128577316Y-76458197D01*
X128580826Y-76481858D01*
X128582000Y-76505750D01*
X128582000Y-77418250D01*
X128580826Y-77442142D01*
X128577316Y-77465803D01*
X128571504Y-77489007D01*
X128563446Y-77511529D01*
X128553218Y-77533153D01*
X128540921Y-77553670D01*
X128526671Y-77572883D01*
X128510607Y-77590607D01*
X128492883Y-77606671D01*
X128473670Y-77620921D01*
X128453153Y-77633218D01*
X128431529Y-77643446D01*
X128409007Y-77651504D01*
X128385803Y-77657316D01*
X128362142Y-77660826D01*
X128338250Y-77662000D01*
X127850750Y-77662000D01*
X127826858Y-77660826D01*
X127803197Y-77657316D01*
X127779993Y-77651504D01*
X127757471Y-77643446D01*
X127735847Y-77633218D01*
X127715330Y-77620921D01*
X127696117Y-77606671D01*
X127678393Y-77590607D01*
X127662329Y-77572883D01*
X127648079Y-77553670D01*
X127635782Y-77533153D01*
X127625554Y-77511529D01*
X127617496Y-77489007D01*
X127611684Y-77465803D01*
X127608174Y-77442142D01*
X127607000Y-77418250D01*
X127607000Y-76505750D01*
X127608174Y-76481858D01*
X127611684Y-76458197D01*
X127617496Y-76434993D01*
X127625554Y-76412471D01*
X127635782Y-76390847D01*
X127648079Y-76370330D01*
X127662329Y-76351117D01*
X127678393Y-76333393D01*
X127696117Y-76317329D01*
X127715330Y-76303079D01*
X127735847Y-76290782D01*
X127757471Y-76280554D01*
X127779993Y-76272496D01*
X127803197Y-76266684D01*
X127826858Y-76263174D01*
X127850750Y-76262000D01*
X128338250Y-76262000D01*
X128362142Y-76263174D01*
G37*
G36*
X130237142Y-76263174D02*
G01*
X130260803Y-76266684D01*
X130284007Y-76272496D01*
X130306529Y-76280554D01*
X130328153Y-76290782D01*
X130348670Y-76303079D01*
X130367883Y-76317329D01*
X130385607Y-76333393D01*
X130401671Y-76351117D01*
X130415921Y-76370330D01*
X130428218Y-76390847D01*
X130438446Y-76412471D01*
X130446504Y-76434993D01*
X130452316Y-76458197D01*
X130455826Y-76481858D01*
X130457000Y-76505750D01*
X130457000Y-77418250D01*
X130455826Y-77442142D01*
X130452316Y-77465803D01*
X130446504Y-77489007D01*
X130438446Y-77511529D01*
X130428218Y-77533153D01*
X130415921Y-77553670D01*
X130401671Y-77572883D01*
X130385607Y-77590607D01*
X130367883Y-77606671D01*
X130348670Y-77620921D01*
X130328153Y-77633218D01*
X130306529Y-77643446D01*
X130284007Y-77651504D01*
X130260803Y-77657316D01*
X130237142Y-77660826D01*
X130213250Y-77662000D01*
X129725750Y-77662000D01*
X129701858Y-77660826D01*
X129678197Y-77657316D01*
X129654993Y-77651504D01*
X129632471Y-77643446D01*
X129610847Y-77633218D01*
X129590330Y-77620921D01*
X129571117Y-77606671D01*
X129553393Y-77590607D01*
X129537329Y-77572883D01*
X129523079Y-77553670D01*
X129510782Y-77533153D01*
X129500554Y-77511529D01*
X129492496Y-77489007D01*
X129486684Y-77465803D01*
X129483174Y-77442142D01*
X129482000Y-77418250D01*
X129482000Y-76505750D01*
X129483174Y-76481858D01*
X129486684Y-76458197D01*
X129492496Y-76434993D01*
X129500554Y-76412471D01*
X129510782Y-76390847D01*
X129523079Y-76370330D01*
X129537329Y-76351117D01*
X129553393Y-76333393D01*
X129571117Y-76317329D01*
X129590330Y-76303079D01*
X129610847Y-76290782D01*
X129632471Y-76280554D01*
X129654993Y-76272496D01*
X129678197Y-76266684D01*
X129701858Y-76263174D01*
X129725750Y-76262000D01*
X130213250Y-76262000D01*
X130237142Y-76263174D01*
G37*
G04 #@! TD*
G04 #@! TO.C,D1*
G36*
X97254142Y-80110174D02*
G01*
X97277803Y-80113684D01*
X97301007Y-80119496D01*
X97323529Y-80127554D01*
X97345153Y-80137782D01*
X97365670Y-80150079D01*
X97384883Y-80164329D01*
X97402607Y-80180393D01*
X97418671Y-80198117D01*
X97432921Y-80217330D01*
X97445218Y-80237847D01*
X97455446Y-80259471D01*
X97463504Y-80281993D01*
X97469316Y-80305197D01*
X97472826Y-80328858D01*
X97474000Y-80352750D01*
X97474000Y-80840250D01*
X97472826Y-80864142D01*
X97469316Y-80887803D01*
X97463504Y-80911007D01*
X97455446Y-80933529D01*
X97445218Y-80955153D01*
X97432921Y-80975670D01*
X97418671Y-80994883D01*
X97402607Y-81012607D01*
X97384883Y-81028671D01*
X97365670Y-81042921D01*
X97345153Y-81055218D01*
X97323529Y-81065446D01*
X97301007Y-81073504D01*
X97277803Y-81079316D01*
X97254142Y-81082826D01*
X97230250Y-81084000D01*
X96317750Y-81084000D01*
X96293858Y-81082826D01*
X96270197Y-81079316D01*
X96246993Y-81073504D01*
X96224471Y-81065446D01*
X96202847Y-81055218D01*
X96182330Y-81042921D01*
X96163117Y-81028671D01*
X96145393Y-81012607D01*
X96129329Y-80994883D01*
X96115079Y-80975670D01*
X96102782Y-80955153D01*
X96092554Y-80933529D01*
X96084496Y-80911007D01*
X96078684Y-80887803D01*
X96075174Y-80864142D01*
X96074000Y-80840250D01*
X96074000Y-80352750D01*
X96075174Y-80328858D01*
X96078684Y-80305197D01*
X96084496Y-80281993D01*
X96092554Y-80259471D01*
X96102782Y-80237847D01*
X96115079Y-80217330D01*
X96129329Y-80198117D01*
X96145393Y-80180393D01*
X96163117Y-80164329D01*
X96182330Y-80150079D01*
X96202847Y-80137782D01*
X96224471Y-80127554D01*
X96246993Y-80119496D01*
X96270197Y-80113684D01*
X96293858Y-80110174D01*
X96317750Y-80109000D01*
X97230250Y-80109000D01*
X97254142Y-80110174D01*
G37*
G36*
X97254142Y-81985174D02*
G01*
X97277803Y-81988684D01*
X97301007Y-81994496D01*
X97323529Y-82002554D01*
X97345153Y-82012782D01*
X97365670Y-82025079D01*
X97384883Y-82039329D01*
X97402607Y-82055393D01*
X97418671Y-82073117D01*
X97432921Y-82092330D01*
X97445218Y-82112847D01*
X97455446Y-82134471D01*
X97463504Y-82156993D01*
X97469316Y-82180197D01*
X97472826Y-82203858D01*
X97474000Y-82227750D01*
X97474000Y-82715250D01*
X97472826Y-82739142D01*
X97469316Y-82762803D01*
X97463504Y-82786007D01*
X97455446Y-82808529D01*
X97445218Y-82830153D01*
X97432921Y-82850670D01*
X97418671Y-82869883D01*
X97402607Y-82887607D01*
X97384883Y-82903671D01*
X97365670Y-82917921D01*
X97345153Y-82930218D01*
X97323529Y-82940446D01*
X97301007Y-82948504D01*
X97277803Y-82954316D01*
X97254142Y-82957826D01*
X97230250Y-82959000D01*
X96317750Y-82959000D01*
X96293858Y-82957826D01*
X96270197Y-82954316D01*
X96246993Y-82948504D01*
X96224471Y-82940446D01*
X96202847Y-82930218D01*
X96182330Y-82917921D01*
X96163117Y-82903671D01*
X96145393Y-82887607D01*
X96129329Y-82869883D01*
X96115079Y-82850670D01*
X96102782Y-82830153D01*
X96092554Y-82808529D01*
X96084496Y-82786007D01*
X96078684Y-82762803D01*
X96075174Y-82739142D01*
X96074000Y-82715250D01*
X96074000Y-82227750D01*
X96075174Y-82203858D01*
X96078684Y-82180197D01*
X96084496Y-82156993D01*
X96092554Y-82134471D01*
X96102782Y-82112847D01*
X96115079Y-82092330D01*
X96129329Y-82073117D01*
X96145393Y-82055393D01*
X96163117Y-82039329D01*
X96182330Y-82025079D01*
X96202847Y-82012782D01*
X96224471Y-82002554D01*
X96246993Y-81994496D01*
X96270197Y-81988684D01*
X96293858Y-81985174D01*
X96317750Y-81984000D01*
X97230250Y-81984000D01*
X97254142Y-81985174D01*
G37*
G04 #@! TD*
G04 #@! TO.C,D2*
G36*
X100302142Y-81985174D02*
G01*
X100325803Y-81988684D01*
X100349007Y-81994496D01*
X100371529Y-82002554D01*
X100393153Y-82012782D01*
X100413670Y-82025079D01*
X100432883Y-82039329D01*
X100450607Y-82055393D01*
X100466671Y-82073117D01*
X100480921Y-82092330D01*
X100493218Y-82112847D01*
X100503446Y-82134471D01*
X100511504Y-82156993D01*
X100517316Y-82180197D01*
X100520826Y-82203858D01*
X100522000Y-82227750D01*
X100522000Y-82715250D01*
X100520826Y-82739142D01*
X100517316Y-82762803D01*
X100511504Y-82786007D01*
X100503446Y-82808529D01*
X100493218Y-82830153D01*
X100480921Y-82850670D01*
X100466671Y-82869883D01*
X100450607Y-82887607D01*
X100432883Y-82903671D01*
X100413670Y-82917921D01*
X100393153Y-82930218D01*
X100371529Y-82940446D01*
X100349007Y-82948504D01*
X100325803Y-82954316D01*
X100302142Y-82957826D01*
X100278250Y-82959000D01*
X99365750Y-82959000D01*
X99341858Y-82957826D01*
X99318197Y-82954316D01*
X99294993Y-82948504D01*
X99272471Y-82940446D01*
X99250847Y-82930218D01*
X99230330Y-82917921D01*
X99211117Y-82903671D01*
X99193393Y-82887607D01*
X99177329Y-82869883D01*
X99163079Y-82850670D01*
X99150782Y-82830153D01*
X99140554Y-82808529D01*
X99132496Y-82786007D01*
X99126684Y-82762803D01*
X99123174Y-82739142D01*
X99122000Y-82715250D01*
X99122000Y-82227750D01*
X99123174Y-82203858D01*
X99126684Y-82180197D01*
X99132496Y-82156993D01*
X99140554Y-82134471D01*
X99150782Y-82112847D01*
X99163079Y-82092330D01*
X99177329Y-82073117D01*
X99193393Y-82055393D01*
X99211117Y-82039329D01*
X99230330Y-82025079D01*
X99250847Y-82012782D01*
X99272471Y-82002554D01*
X99294993Y-81994496D01*
X99318197Y-81988684D01*
X99341858Y-81985174D01*
X99365750Y-81984000D01*
X100278250Y-81984000D01*
X100302142Y-81985174D01*
G37*
G36*
X100302142Y-80110174D02*
G01*
X100325803Y-80113684D01*
X100349007Y-80119496D01*
X100371529Y-80127554D01*
X100393153Y-80137782D01*
X100413670Y-80150079D01*
X100432883Y-80164329D01*
X100450607Y-80180393D01*
X100466671Y-80198117D01*
X100480921Y-80217330D01*
X100493218Y-80237847D01*
X100503446Y-80259471D01*
X100511504Y-80281993D01*
X100517316Y-80305197D01*
X100520826Y-80328858D01*
X100522000Y-80352750D01*
X100522000Y-80840250D01*
X100520826Y-80864142D01*
X100517316Y-80887803D01*
X100511504Y-80911007D01*
X100503446Y-80933529D01*
X100493218Y-80955153D01*
X100480921Y-80975670D01*
X100466671Y-80994883D01*
X100450607Y-81012607D01*
X100432883Y-81028671D01*
X100413670Y-81042921D01*
X100393153Y-81055218D01*
X100371529Y-81065446D01*
X100349007Y-81073504D01*
X100325803Y-81079316D01*
X100302142Y-81082826D01*
X100278250Y-81084000D01*
X99365750Y-81084000D01*
X99341858Y-81082826D01*
X99318197Y-81079316D01*
X99294993Y-81073504D01*
X99272471Y-81065446D01*
X99250847Y-81055218D01*
X99230330Y-81042921D01*
X99211117Y-81028671D01*
X99193393Y-81012607D01*
X99177329Y-80994883D01*
X99163079Y-80975670D01*
X99150782Y-80955153D01*
X99140554Y-80933529D01*
X99132496Y-80911007D01*
X99126684Y-80887803D01*
X99123174Y-80864142D01*
X99122000Y-80840250D01*
X99122000Y-80352750D01*
X99123174Y-80328858D01*
X99126684Y-80305197D01*
X99132496Y-80281993D01*
X99140554Y-80259471D01*
X99150782Y-80237847D01*
X99163079Y-80217330D01*
X99177329Y-80198117D01*
X99193393Y-80180393D01*
X99211117Y-80164329D01*
X99230330Y-80150079D01*
X99250847Y-80137782D01*
X99272471Y-80127554D01*
X99294993Y-80119496D01*
X99318197Y-80113684D01*
X99341858Y-80110174D01*
X99365750Y-80109000D01*
X100278250Y-80109000D01*
X100302142Y-80110174D01*
G37*
G04 #@! TD*
D14*
G04 #@! TO.C,L1*
X118110000Y-71438000D03*
X118110000Y-66738000D03*
G04 #@! TD*
D13*
G04 #@! TO.C,R1*
G36*
X92428142Y-76905174D02*
G01*
X92451803Y-76908684D01*
X92475007Y-76914496D01*
X92497529Y-76922554D01*
X92519153Y-76932782D01*
X92539670Y-76945079D01*
X92558883Y-76959329D01*
X92576607Y-76975393D01*
X92592671Y-76993117D01*
X92606921Y-77012330D01*
X92619218Y-77032847D01*
X92629446Y-77054471D01*
X92637504Y-77076993D01*
X92643316Y-77100197D01*
X92646826Y-77123858D01*
X92648000Y-77147750D01*
X92648000Y-77635250D01*
X92646826Y-77659142D01*
X92643316Y-77682803D01*
X92637504Y-77706007D01*
X92629446Y-77728529D01*
X92619218Y-77750153D01*
X92606921Y-77770670D01*
X92592671Y-77789883D01*
X92576607Y-77807607D01*
X92558883Y-77823671D01*
X92539670Y-77837921D01*
X92519153Y-77850218D01*
X92497529Y-77860446D01*
X92475007Y-77868504D01*
X92451803Y-77874316D01*
X92428142Y-77877826D01*
X92404250Y-77879000D01*
X91491750Y-77879000D01*
X91467858Y-77877826D01*
X91444197Y-77874316D01*
X91420993Y-77868504D01*
X91398471Y-77860446D01*
X91376847Y-77850218D01*
X91356330Y-77837921D01*
X91337117Y-77823671D01*
X91319393Y-77807607D01*
X91303329Y-77789883D01*
X91289079Y-77770670D01*
X91276782Y-77750153D01*
X91266554Y-77728529D01*
X91258496Y-77706007D01*
X91252684Y-77682803D01*
X91249174Y-77659142D01*
X91248000Y-77635250D01*
X91248000Y-77147750D01*
X91249174Y-77123858D01*
X91252684Y-77100197D01*
X91258496Y-77076993D01*
X91266554Y-77054471D01*
X91276782Y-77032847D01*
X91289079Y-77012330D01*
X91303329Y-76993117D01*
X91319393Y-76975393D01*
X91337117Y-76959329D01*
X91356330Y-76945079D01*
X91376847Y-76932782D01*
X91398471Y-76922554D01*
X91420993Y-76914496D01*
X91444197Y-76908684D01*
X91467858Y-76905174D01*
X91491750Y-76904000D01*
X92404250Y-76904000D01*
X92428142Y-76905174D01*
G37*
G36*
X92428142Y-75030174D02*
G01*
X92451803Y-75033684D01*
X92475007Y-75039496D01*
X92497529Y-75047554D01*
X92519153Y-75057782D01*
X92539670Y-75070079D01*
X92558883Y-75084329D01*
X92576607Y-75100393D01*
X92592671Y-75118117D01*
X92606921Y-75137330D01*
X92619218Y-75157847D01*
X92629446Y-75179471D01*
X92637504Y-75201993D01*
X92643316Y-75225197D01*
X92646826Y-75248858D01*
X92648000Y-75272750D01*
X92648000Y-75760250D01*
X92646826Y-75784142D01*
X92643316Y-75807803D01*
X92637504Y-75831007D01*
X92629446Y-75853529D01*
X92619218Y-75875153D01*
X92606921Y-75895670D01*
X92592671Y-75914883D01*
X92576607Y-75932607D01*
X92558883Y-75948671D01*
X92539670Y-75962921D01*
X92519153Y-75975218D01*
X92497529Y-75985446D01*
X92475007Y-75993504D01*
X92451803Y-75999316D01*
X92428142Y-76002826D01*
X92404250Y-76004000D01*
X91491750Y-76004000D01*
X91467858Y-76002826D01*
X91444197Y-75999316D01*
X91420993Y-75993504D01*
X91398471Y-75985446D01*
X91376847Y-75975218D01*
X91356330Y-75962921D01*
X91337117Y-75948671D01*
X91319393Y-75932607D01*
X91303329Y-75914883D01*
X91289079Y-75895670D01*
X91276782Y-75875153D01*
X91266554Y-75853529D01*
X91258496Y-75831007D01*
X91252684Y-75807803D01*
X91249174Y-75784142D01*
X91248000Y-75760250D01*
X91248000Y-75272750D01*
X91249174Y-75248858D01*
X91252684Y-75225197D01*
X91258496Y-75201993D01*
X91266554Y-75179471D01*
X91276782Y-75157847D01*
X91289079Y-75137330D01*
X91303329Y-75118117D01*
X91319393Y-75100393D01*
X91337117Y-75084329D01*
X91356330Y-75070079D01*
X91376847Y-75057782D01*
X91398471Y-75047554D01*
X91420993Y-75039496D01*
X91444197Y-75033684D01*
X91467858Y-75030174D01*
X91491750Y-75029000D01*
X92404250Y-75029000D01*
X92428142Y-75030174D01*
G37*
G04 #@! TD*
G04 #@! TO.C,R2*
G36*
X92428142Y-78840174D02*
G01*
X92451803Y-78843684D01*
X92475007Y-78849496D01*
X92497529Y-78857554D01*
X92519153Y-78867782D01*
X92539670Y-78880079D01*
X92558883Y-78894329D01*
X92576607Y-78910393D01*
X92592671Y-78928117D01*
X92606921Y-78947330D01*
X92619218Y-78967847D01*
X92629446Y-78989471D01*
X92637504Y-79011993D01*
X92643316Y-79035197D01*
X92646826Y-79058858D01*
X92648000Y-79082750D01*
X92648000Y-79570250D01*
X92646826Y-79594142D01*
X92643316Y-79617803D01*
X92637504Y-79641007D01*
X92629446Y-79663529D01*
X92619218Y-79685153D01*
X92606921Y-79705670D01*
X92592671Y-79724883D01*
X92576607Y-79742607D01*
X92558883Y-79758671D01*
X92539670Y-79772921D01*
X92519153Y-79785218D01*
X92497529Y-79795446D01*
X92475007Y-79803504D01*
X92451803Y-79809316D01*
X92428142Y-79812826D01*
X92404250Y-79814000D01*
X91491750Y-79814000D01*
X91467858Y-79812826D01*
X91444197Y-79809316D01*
X91420993Y-79803504D01*
X91398471Y-79795446D01*
X91376847Y-79785218D01*
X91356330Y-79772921D01*
X91337117Y-79758671D01*
X91319393Y-79742607D01*
X91303329Y-79724883D01*
X91289079Y-79705670D01*
X91276782Y-79685153D01*
X91266554Y-79663529D01*
X91258496Y-79641007D01*
X91252684Y-79617803D01*
X91249174Y-79594142D01*
X91248000Y-79570250D01*
X91248000Y-79082750D01*
X91249174Y-79058858D01*
X91252684Y-79035197D01*
X91258496Y-79011993D01*
X91266554Y-78989471D01*
X91276782Y-78967847D01*
X91289079Y-78947330D01*
X91303329Y-78928117D01*
X91319393Y-78910393D01*
X91337117Y-78894329D01*
X91356330Y-78880079D01*
X91376847Y-78867782D01*
X91398471Y-78857554D01*
X91420993Y-78849496D01*
X91444197Y-78843684D01*
X91467858Y-78840174D01*
X91491750Y-78839000D01*
X92404250Y-78839000D01*
X92428142Y-78840174D01*
G37*
G36*
X92428142Y-80715174D02*
G01*
X92451803Y-80718684D01*
X92475007Y-80724496D01*
X92497529Y-80732554D01*
X92519153Y-80742782D01*
X92539670Y-80755079D01*
X92558883Y-80769329D01*
X92576607Y-80785393D01*
X92592671Y-80803117D01*
X92606921Y-80822330D01*
X92619218Y-80842847D01*
X92629446Y-80864471D01*
X92637504Y-80886993D01*
X92643316Y-80910197D01*
X92646826Y-80933858D01*
X92648000Y-80957750D01*
X92648000Y-81445250D01*
X92646826Y-81469142D01*
X92643316Y-81492803D01*
X92637504Y-81516007D01*
X92629446Y-81538529D01*
X92619218Y-81560153D01*
X92606921Y-81580670D01*
X92592671Y-81599883D01*
X92576607Y-81617607D01*
X92558883Y-81633671D01*
X92539670Y-81647921D01*
X92519153Y-81660218D01*
X92497529Y-81670446D01*
X92475007Y-81678504D01*
X92451803Y-81684316D01*
X92428142Y-81687826D01*
X92404250Y-81689000D01*
X91491750Y-81689000D01*
X91467858Y-81687826D01*
X91444197Y-81684316D01*
X91420993Y-81678504D01*
X91398471Y-81670446D01*
X91376847Y-81660218D01*
X91356330Y-81647921D01*
X91337117Y-81633671D01*
X91319393Y-81617607D01*
X91303329Y-81599883D01*
X91289079Y-81580670D01*
X91276782Y-81560153D01*
X91266554Y-81538529D01*
X91258496Y-81516007D01*
X91252684Y-81492803D01*
X91249174Y-81469142D01*
X91248000Y-81445250D01*
X91248000Y-80957750D01*
X91249174Y-80933858D01*
X91252684Y-80910197D01*
X91258496Y-80886993D01*
X91266554Y-80864471D01*
X91276782Y-80842847D01*
X91289079Y-80822330D01*
X91303329Y-80803117D01*
X91319393Y-80785393D01*
X91337117Y-80769329D01*
X91356330Y-80755079D01*
X91376847Y-80742782D01*
X91398471Y-80732554D01*
X91420993Y-80724496D01*
X91444197Y-80718684D01*
X91467858Y-80715174D01*
X91491750Y-80714000D01*
X92404250Y-80714000D01*
X92428142Y-80715174D01*
G37*
G04 #@! TD*
G04 #@! TO.C,R3*
G36*
X108647142Y-79819174D02*
G01*
X108670803Y-79822684D01*
X108694007Y-79828496D01*
X108716529Y-79836554D01*
X108738153Y-79846782D01*
X108758670Y-79859079D01*
X108777883Y-79873329D01*
X108795607Y-79889393D01*
X108811671Y-79907117D01*
X108825921Y-79926330D01*
X108838218Y-79946847D01*
X108848446Y-79968471D01*
X108856504Y-79990993D01*
X108862316Y-80014197D01*
X108865826Y-80037858D01*
X108867000Y-80061750D01*
X108867000Y-80974250D01*
X108865826Y-80998142D01*
X108862316Y-81021803D01*
X108856504Y-81045007D01*
X108848446Y-81067529D01*
X108838218Y-81089153D01*
X108825921Y-81109670D01*
X108811671Y-81128883D01*
X108795607Y-81146607D01*
X108777883Y-81162671D01*
X108758670Y-81176921D01*
X108738153Y-81189218D01*
X108716529Y-81199446D01*
X108694007Y-81207504D01*
X108670803Y-81213316D01*
X108647142Y-81216826D01*
X108623250Y-81218000D01*
X108135750Y-81218000D01*
X108111858Y-81216826D01*
X108088197Y-81213316D01*
X108064993Y-81207504D01*
X108042471Y-81199446D01*
X108020847Y-81189218D01*
X108000330Y-81176921D01*
X107981117Y-81162671D01*
X107963393Y-81146607D01*
X107947329Y-81128883D01*
X107933079Y-81109670D01*
X107920782Y-81089153D01*
X107910554Y-81067529D01*
X107902496Y-81045007D01*
X107896684Y-81021803D01*
X107893174Y-80998142D01*
X107892000Y-80974250D01*
X107892000Y-80061750D01*
X107893174Y-80037858D01*
X107896684Y-80014197D01*
X107902496Y-79990993D01*
X107910554Y-79968471D01*
X107920782Y-79946847D01*
X107933079Y-79926330D01*
X107947329Y-79907117D01*
X107963393Y-79889393D01*
X107981117Y-79873329D01*
X108000330Y-79859079D01*
X108020847Y-79846782D01*
X108042471Y-79836554D01*
X108064993Y-79828496D01*
X108088197Y-79822684D01*
X108111858Y-79819174D01*
X108135750Y-79818000D01*
X108623250Y-79818000D01*
X108647142Y-79819174D01*
G37*
G36*
X106772142Y-79819174D02*
G01*
X106795803Y-79822684D01*
X106819007Y-79828496D01*
X106841529Y-79836554D01*
X106863153Y-79846782D01*
X106883670Y-79859079D01*
X106902883Y-79873329D01*
X106920607Y-79889393D01*
X106936671Y-79907117D01*
X106950921Y-79926330D01*
X106963218Y-79946847D01*
X106973446Y-79968471D01*
X106981504Y-79990993D01*
X106987316Y-80014197D01*
X106990826Y-80037858D01*
X106992000Y-80061750D01*
X106992000Y-80974250D01*
X106990826Y-80998142D01*
X106987316Y-81021803D01*
X106981504Y-81045007D01*
X106973446Y-81067529D01*
X106963218Y-81089153D01*
X106950921Y-81109670D01*
X106936671Y-81128883D01*
X106920607Y-81146607D01*
X106902883Y-81162671D01*
X106883670Y-81176921D01*
X106863153Y-81189218D01*
X106841529Y-81199446D01*
X106819007Y-81207504D01*
X106795803Y-81213316D01*
X106772142Y-81216826D01*
X106748250Y-81218000D01*
X106260750Y-81218000D01*
X106236858Y-81216826D01*
X106213197Y-81213316D01*
X106189993Y-81207504D01*
X106167471Y-81199446D01*
X106145847Y-81189218D01*
X106125330Y-81176921D01*
X106106117Y-81162671D01*
X106088393Y-81146607D01*
X106072329Y-81128883D01*
X106058079Y-81109670D01*
X106045782Y-81089153D01*
X106035554Y-81067529D01*
X106027496Y-81045007D01*
X106021684Y-81021803D01*
X106018174Y-80998142D01*
X106017000Y-80974250D01*
X106017000Y-80061750D01*
X106018174Y-80037858D01*
X106021684Y-80014197D01*
X106027496Y-79990993D01*
X106035554Y-79968471D01*
X106045782Y-79946847D01*
X106058079Y-79926330D01*
X106072329Y-79907117D01*
X106088393Y-79889393D01*
X106106117Y-79873329D01*
X106125330Y-79859079D01*
X106145847Y-79846782D01*
X106167471Y-79836554D01*
X106189993Y-79828496D01*
X106213197Y-79822684D01*
X106236858Y-79819174D01*
X106260750Y-79818000D01*
X106748250Y-79818000D01*
X106772142Y-79819174D01*
G37*
G04 #@! TD*
G04 #@! TO.C,R4*
G36*
X96866142Y-84391174D02*
G01*
X96889803Y-84394684D01*
X96913007Y-84400496D01*
X96935529Y-84408554D01*
X96957153Y-84418782D01*
X96977670Y-84431079D01*
X96996883Y-84445329D01*
X97014607Y-84461393D01*
X97030671Y-84479117D01*
X97044921Y-84498330D01*
X97057218Y-84518847D01*
X97067446Y-84540471D01*
X97075504Y-84562993D01*
X97081316Y-84586197D01*
X97084826Y-84609858D01*
X97086000Y-84633750D01*
X97086000Y-85546250D01*
X97084826Y-85570142D01*
X97081316Y-85593803D01*
X97075504Y-85617007D01*
X97067446Y-85639529D01*
X97057218Y-85661153D01*
X97044921Y-85681670D01*
X97030671Y-85700883D01*
X97014607Y-85718607D01*
X96996883Y-85734671D01*
X96977670Y-85748921D01*
X96957153Y-85761218D01*
X96935529Y-85771446D01*
X96913007Y-85779504D01*
X96889803Y-85785316D01*
X96866142Y-85788826D01*
X96842250Y-85790000D01*
X96354750Y-85790000D01*
X96330858Y-85788826D01*
X96307197Y-85785316D01*
X96283993Y-85779504D01*
X96261471Y-85771446D01*
X96239847Y-85761218D01*
X96219330Y-85748921D01*
X96200117Y-85734671D01*
X96182393Y-85718607D01*
X96166329Y-85700883D01*
X96152079Y-85681670D01*
X96139782Y-85661153D01*
X96129554Y-85639529D01*
X96121496Y-85617007D01*
X96115684Y-85593803D01*
X96112174Y-85570142D01*
X96111000Y-85546250D01*
X96111000Y-84633750D01*
X96112174Y-84609858D01*
X96115684Y-84586197D01*
X96121496Y-84562993D01*
X96129554Y-84540471D01*
X96139782Y-84518847D01*
X96152079Y-84498330D01*
X96166329Y-84479117D01*
X96182393Y-84461393D01*
X96200117Y-84445329D01*
X96219330Y-84431079D01*
X96239847Y-84418782D01*
X96261471Y-84408554D01*
X96283993Y-84400496D01*
X96307197Y-84394684D01*
X96330858Y-84391174D01*
X96354750Y-84390000D01*
X96842250Y-84390000D01*
X96866142Y-84391174D01*
G37*
G36*
X98741142Y-84391174D02*
G01*
X98764803Y-84394684D01*
X98788007Y-84400496D01*
X98810529Y-84408554D01*
X98832153Y-84418782D01*
X98852670Y-84431079D01*
X98871883Y-84445329D01*
X98889607Y-84461393D01*
X98905671Y-84479117D01*
X98919921Y-84498330D01*
X98932218Y-84518847D01*
X98942446Y-84540471D01*
X98950504Y-84562993D01*
X98956316Y-84586197D01*
X98959826Y-84609858D01*
X98961000Y-84633750D01*
X98961000Y-85546250D01*
X98959826Y-85570142D01*
X98956316Y-85593803D01*
X98950504Y-85617007D01*
X98942446Y-85639529D01*
X98932218Y-85661153D01*
X98919921Y-85681670D01*
X98905671Y-85700883D01*
X98889607Y-85718607D01*
X98871883Y-85734671D01*
X98852670Y-85748921D01*
X98832153Y-85761218D01*
X98810529Y-85771446D01*
X98788007Y-85779504D01*
X98764803Y-85785316D01*
X98741142Y-85788826D01*
X98717250Y-85790000D01*
X98229750Y-85790000D01*
X98205858Y-85788826D01*
X98182197Y-85785316D01*
X98158993Y-85779504D01*
X98136471Y-85771446D01*
X98114847Y-85761218D01*
X98094330Y-85748921D01*
X98075117Y-85734671D01*
X98057393Y-85718607D01*
X98041329Y-85700883D01*
X98027079Y-85681670D01*
X98014782Y-85661153D01*
X98004554Y-85639529D01*
X97996496Y-85617007D01*
X97990684Y-85593803D01*
X97987174Y-85570142D01*
X97986000Y-85546250D01*
X97986000Y-84633750D01*
X97987174Y-84609858D01*
X97990684Y-84586197D01*
X97996496Y-84562993D01*
X98004554Y-84540471D01*
X98014782Y-84518847D01*
X98027079Y-84498330D01*
X98041329Y-84479117D01*
X98057393Y-84461393D01*
X98075117Y-84445329D01*
X98094330Y-84431079D01*
X98114847Y-84418782D01*
X98136471Y-84408554D01*
X98158993Y-84400496D01*
X98182197Y-84394684D01*
X98205858Y-84391174D01*
X98229750Y-84390000D01*
X98717250Y-84390000D01*
X98741142Y-84391174D01*
G37*
G04 #@! TD*
G04 #@! TO.C,R5*
G36*
X111344142Y-85153174D02*
G01*
X111367803Y-85156684D01*
X111391007Y-85162496D01*
X111413529Y-85170554D01*
X111435153Y-85180782D01*
X111455670Y-85193079D01*
X111474883Y-85207329D01*
X111492607Y-85223393D01*
X111508671Y-85241117D01*
X111522921Y-85260330D01*
X111535218Y-85280847D01*
X111545446Y-85302471D01*
X111553504Y-85324993D01*
X111559316Y-85348197D01*
X111562826Y-85371858D01*
X111564000Y-85395750D01*
X111564000Y-86308250D01*
X111562826Y-86332142D01*
X111559316Y-86355803D01*
X111553504Y-86379007D01*
X111545446Y-86401529D01*
X111535218Y-86423153D01*
X111522921Y-86443670D01*
X111508671Y-86462883D01*
X111492607Y-86480607D01*
X111474883Y-86496671D01*
X111455670Y-86510921D01*
X111435153Y-86523218D01*
X111413529Y-86533446D01*
X111391007Y-86541504D01*
X111367803Y-86547316D01*
X111344142Y-86550826D01*
X111320250Y-86552000D01*
X110832750Y-86552000D01*
X110808858Y-86550826D01*
X110785197Y-86547316D01*
X110761993Y-86541504D01*
X110739471Y-86533446D01*
X110717847Y-86523218D01*
X110697330Y-86510921D01*
X110678117Y-86496671D01*
X110660393Y-86480607D01*
X110644329Y-86462883D01*
X110630079Y-86443670D01*
X110617782Y-86423153D01*
X110607554Y-86401529D01*
X110599496Y-86379007D01*
X110593684Y-86355803D01*
X110590174Y-86332142D01*
X110589000Y-86308250D01*
X110589000Y-85395750D01*
X110590174Y-85371858D01*
X110593684Y-85348197D01*
X110599496Y-85324993D01*
X110607554Y-85302471D01*
X110617782Y-85280847D01*
X110630079Y-85260330D01*
X110644329Y-85241117D01*
X110660393Y-85223393D01*
X110678117Y-85207329D01*
X110697330Y-85193079D01*
X110717847Y-85180782D01*
X110739471Y-85170554D01*
X110761993Y-85162496D01*
X110785197Y-85156684D01*
X110808858Y-85153174D01*
X110832750Y-85152000D01*
X111320250Y-85152000D01*
X111344142Y-85153174D01*
G37*
G36*
X113219142Y-85153174D02*
G01*
X113242803Y-85156684D01*
X113266007Y-85162496D01*
X113288529Y-85170554D01*
X113310153Y-85180782D01*
X113330670Y-85193079D01*
X113349883Y-85207329D01*
X113367607Y-85223393D01*
X113383671Y-85241117D01*
X113397921Y-85260330D01*
X113410218Y-85280847D01*
X113420446Y-85302471D01*
X113428504Y-85324993D01*
X113434316Y-85348197D01*
X113437826Y-85371858D01*
X113439000Y-85395750D01*
X113439000Y-86308250D01*
X113437826Y-86332142D01*
X113434316Y-86355803D01*
X113428504Y-86379007D01*
X113420446Y-86401529D01*
X113410218Y-86423153D01*
X113397921Y-86443670D01*
X113383671Y-86462883D01*
X113367607Y-86480607D01*
X113349883Y-86496671D01*
X113330670Y-86510921D01*
X113310153Y-86523218D01*
X113288529Y-86533446D01*
X113266007Y-86541504D01*
X113242803Y-86547316D01*
X113219142Y-86550826D01*
X113195250Y-86552000D01*
X112707750Y-86552000D01*
X112683858Y-86550826D01*
X112660197Y-86547316D01*
X112636993Y-86541504D01*
X112614471Y-86533446D01*
X112592847Y-86523218D01*
X112572330Y-86510921D01*
X112553117Y-86496671D01*
X112535393Y-86480607D01*
X112519329Y-86462883D01*
X112505079Y-86443670D01*
X112492782Y-86423153D01*
X112482554Y-86401529D01*
X112474496Y-86379007D01*
X112468684Y-86355803D01*
X112465174Y-86332142D01*
X112464000Y-86308250D01*
X112464000Y-85395750D01*
X112465174Y-85371858D01*
X112468684Y-85348197D01*
X112474496Y-85324993D01*
X112482554Y-85302471D01*
X112492782Y-85280847D01*
X112505079Y-85260330D01*
X112519329Y-85241117D01*
X112535393Y-85223393D01*
X112553117Y-85207329D01*
X112572330Y-85193079D01*
X112592847Y-85180782D01*
X112614471Y-85170554D01*
X112636993Y-85162496D01*
X112660197Y-85156684D01*
X112683858Y-85153174D01*
X112707750Y-85152000D01*
X113195250Y-85152000D01*
X113219142Y-85153174D01*
G37*
G04 #@! TD*
G04 #@! TO.C,R6*
G36*
X107123142Y-85153174D02*
G01*
X107146803Y-85156684D01*
X107170007Y-85162496D01*
X107192529Y-85170554D01*
X107214153Y-85180782D01*
X107234670Y-85193079D01*
X107253883Y-85207329D01*
X107271607Y-85223393D01*
X107287671Y-85241117D01*
X107301921Y-85260330D01*
X107314218Y-85280847D01*
X107324446Y-85302471D01*
X107332504Y-85324993D01*
X107338316Y-85348197D01*
X107341826Y-85371858D01*
X107343000Y-85395750D01*
X107343000Y-86308250D01*
X107341826Y-86332142D01*
X107338316Y-86355803D01*
X107332504Y-86379007D01*
X107324446Y-86401529D01*
X107314218Y-86423153D01*
X107301921Y-86443670D01*
X107287671Y-86462883D01*
X107271607Y-86480607D01*
X107253883Y-86496671D01*
X107234670Y-86510921D01*
X107214153Y-86523218D01*
X107192529Y-86533446D01*
X107170007Y-86541504D01*
X107146803Y-86547316D01*
X107123142Y-86550826D01*
X107099250Y-86552000D01*
X106611750Y-86552000D01*
X106587858Y-86550826D01*
X106564197Y-86547316D01*
X106540993Y-86541504D01*
X106518471Y-86533446D01*
X106496847Y-86523218D01*
X106476330Y-86510921D01*
X106457117Y-86496671D01*
X106439393Y-86480607D01*
X106423329Y-86462883D01*
X106409079Y-86443670D01*
X106396782Y-86423153D01*
X106386554Y-86401529D01*
X106378496Y-86379007D01*
X106372684Y-86355803D01*
X106369174Y-86332142D01*
X106368000Y-86308250D01*
X106368000Y-85395750D01*
X106369174Y-85371858D01*
X106372684Y-85348197D01*
X106378496Y-85324993D01*
X106386554Y-85302471D01*
X106396782Y-85280847D01*
X106409079Y-85260330D01*
X106423329Y-85241117D01*
X106439393Y-85223393D01*
X106457117Y-85207329D01*
X106476330Y-85193079D01*
X106496847Y-85180782D01*
X106518471Y-85170554D01*
X106540993Y-85162496D01*
X106564197Y-85156684D01*
X106587858Y-85153174D01*
X106611750Y-85152000D01*
X107099250Y-85152000D01*
X107123142Y-85153174D01*
G37*
G36*
X105248142Y-85153174D02*
G01*
X105271803Y-85156684D01*
X105295007Y-85162496D01*
X105317529Y-85170554D01*
X105339153Y-85180782D01*
X105359670Y-85193079D01*
X105378883Y-85207329D01*
X105396607Y-85223393D01*
X105412671Y-85241117D01*
X105426921Y-85260330D01*
X105439218Y-85280847D01*
X105449446Y-85302471D01*
X105457504Y-85324993D01*
X105463316Y-85348197D01*
X105466826Y-85371858D01*
X105468000Y-85395750D01*
X105468000Y-86308250D01*
X105466826Y-86332142D01*
X105463316Y-86355803D01*
X105457504Y-86379007D01*
X105449446Y-86401529D01*
X105439218Y-86423153D01*
X105426921Y-86443670D01*
X105412671Y-86462883D01*
X105396607Y-86480607D01*
X105378883Y-86496671D01*
X105359670Y-86510921D01*
X105339153Y-86523218D01*
X105317529Y-86533446D01*
X105295007Y-86541504D01*
X105271803Y-86547316D01*
X105248142Y-86550826D01*
X105224250Y-86552000D01*
X104736750Y-86552000D01*
X104712858Y-86550826D01*
X104689197Y-86547316D01*
X104665993Y-86541504D01*
X104643471Y-86533446D01*
X104621847Y-86523218D01*
X104601330Y-86510921D01*
X104582117Y-86496671D01*
X104564393Y-86480607D01*
X104548329Y-86462883D01*
X104534079Y-86443670D01*
X104521782Y-86423153D01*
X104511554Y-86401529D01*
X104503496Y-86379007D01*
X104497684Y-86355803D01*
X104494174Y-86332142D01*
X104493000Y-86308250D01*
X104493000Y-85395750D01*
X104494174Y-85371858D01*
X104497684Y-85348197D01*
X104503496Y-85324993D01*
X104511554Y-85302471D01*
X104521782Y-85280847D01*
X104534079Y-85260330D01*
X104548329Y-85241117D01*
X104564393Y-85223393D01*
X104582117Y-85207329D01*
X104601330Y-85193079D01*
X104621847Y-85180782D01*
X104643471Y-85170554D01*
X104665993Y-85162496D01*
X104689197Y-85156684D01*
X104712858Y-85153174D01*
X104736750Y-85152000D01*
X105224250Y-85152000D01*
X105248142Y-85153174D01*
G37*
G04 #@! TD*
G04 #@! TO.C,R7*
G36*
X101789142Y-77279174D02*
G01*
X101812803Y-77282684D01*
X101836007Y-77288496D01*
X101858529Y-77296554D01*
X101880153Y-77306782D01*
X101900670Y-77319079D01*
X101919883Y-77333329D01*
X101937607Y-77349393D01*
X101953671Y-77367117D01*
X101967921Y-77386330D01*
X101980218Y-77406847D01*
X101990446Y-77428471D01*
X101998504Y-77450993D01*
X102004316Y-77474197D01*
X102007826Y-77497858D01*
X102009000Y-77521750D01*
X102009000Y-78434250D01*
X102007826Y-78458142D01*
X102004316Y-78481803D01*
X101998504Y-78505007D01*
X101990446Y-78527529D01*
X101980218Y-78549153D01*
X101967921Y-78569670D01*
X101953671Y-78588883D01*
X101937607Y-78606607D01*
X101919883Y-78622671D01*
X101900670Y-78636921D01*
X101880153Y-78649218D01*
X101858529Y-78659446D01*
X101836007Y-78667504D01*
X101812803Y-78673316D01*
X101789142Y-78676826D01*
X101765250Y-78678000D01*
X101277750Y-78678000D01*
X101253858Y-78676826D01*
X101230197Y-78673316D01*
X101206993Y-78667504D01*
X101184471Y-78659446D01*
X101162847Y-78649218D01*
X101142330Y-78636921D01*
X101123117Y-78622671D01*
X101105393Y-78606607D01*
X101089329Y-78588883D01*
X101075079Y-78569670D01*
X101062782Y-78549153D01*
X101052554Y-78527529D01*
X101044496Y-78505007D01*
X101038684Y-78481803D01*
X101035174Y-78458142D01*
X101034000Y-78434250D01*
X101034000Y-77521750D01*
X101035174Y-77497858D01*
X101038684Y-77474197D01*
X101044496Y-77450993D01*
X101052554Y-77428471D01*
X101062782Y-77406847D01*
X101075079Y-77386330D01*
X101089329Y-77367117D01*
X101105393Y-77349393D01*
X101123117Y-77333329D01*
X101142330Y-77319079D01*
X101162847Y-77306782D01*
X101184471Y-77296554D01*
X101206993Y-77288496D01*
X101230197Y-77282684D01*
X101253858Y-77279174D01*
X101277750Y-77278000D01*
X101765250Y-77278000D01*
X101789142Y-77279174D01*
G37*
G36*
X99914142Y-77279174D02*
G01*
X99937803Y-77282684D01*
X99961007Y-77288496D01*
X99983529Y-77296554D01*
X100005153Y-77306782D01*
X100025670Y-77319079D01*
X100044883Y-77333329D01*
X100062607Y-77349393D01*
X100078671Y-77367117D01*
X100092921Y-77386330D01*
X100105218Y-77406847D01*
X100115446Y-77428471D01*
X100123504Y-77450993D01*
X100129316Y-77474197D01*
X100132826Y-77497858D01*
X100134000Y-77521750D01*
X100134000Y-78434250D01*
X100132826Y-78458142D01*
X100129316Y-78481803D01*
X100123504Y-78505007D01*
X100115446Y-78527529D01*
X100105218Y-78549153D01*
X100092921Y-78569670D01*
X100078671Y-78588883D01*
X100062607Y-78606607D01*
X100044883Y-78622671D01*
X100025670Y-78636921D01*
X100005153Y-78649218D01*
X99983529Y-78659446D01*
X99961007Y-78667504D01*
X99937803Y-78673316D01*
X99914142Y-78676826D01*
X99890250Y-78678000D01*
X99402750Y-78678000D01*
X99378858Y-78676826D01*
X99355197Y-78673316D01*
X99331993Y-78667504D01*
X99309471Y-78659446D01*
X99287847Y-78649218D01*
X99267330Y-78636921D01*
X99248117Y-78622671D01*
X99230393Y-78606607D01*
X99214329Y-78588883D01*
X99200079Y-78569670D01*
X99187782Y-78549153D01*
X99177554Y-78527529D01*
X99169496Y-78505007D01*
X99163684Y-78481803D01*
X99160174Y-78458142D01*
X99159000Y-78434250D01*
X99159000Y-77521750D01*
X99160174Y-77497858D01*
X99163684Y-77474197D01*
X99169496Y-77450993D01*
X99177554Y-77428471D01*
X99187782Y-77406847D01*
X99200079Y-77386330D01*
X99214329Y-77367117D01*
X99230393Y-77349393D01*
X99248117Y-77333329D01*
X99267330Y-77319079D01*
X99287847Y-77306782D01*
X99309471Y-77296554D01*
X99331993Y-77288496D01*
X99355197Y-77282684D01*
X99378858Y-77279174D01*
X99402750Y-77278000D01*
X99890250Y-77278000D01*
X99914142Y-77279174D01*
G37*
G04 #@! TD*
G04 #@! TO.C,R8*
G36*
X87819142Y-77025174D02*
G01*
X87842803Y-77028684D01*
X87866007Y-77034496D01*
X87888529Y-77042554D01*
X87910153Y-77052782D01*
X87930670Y-77065079D01*
X87949883Y-77079329D01*
X87967607Y-77095393D01*
X87983671Y-77113117D01*
X87997921Y-77132330D01*
X88010218Y-77152847D01*
X88020446Y-77174471D01*
X88028504Y-77196993D01*
X88034316Y-77220197D01*
X88037826Y-77243858D01*
X88039000Y-77267750D01*
X88039000Y-78180250D01*
X88037826Y-78204142D01*
X88034316Y-78227803D01*
X88028504Y-78251007D01*
X88020446Y-78273529D01*
X88010218Y-78295153D01*
X87997921Y-78315670D01*
X87983671Y-78334883D01*
X87967607Y-78352607D01*
X87949883Y-78368671D01*
X87930670Y-78382921D01*
X87910153Y-78395218D01*
X87888529Y-78405446D01*
X87866007Y-78413504D01*
X87842803Y-78419316D01*
X87819142Y-78422826D01*
X87795250Y-78424000D01*
X87307750Y-78424000D01*
X87283858Y-78422826D01*
X87260197Y-78419316D01*
X87236993Y-78413504D01*
X87214471Y-78405446D01*
X87192847Y-78395218D01*
X87172330Y-78382921D01*
X87153117Y-78368671D01*
X87135393Y-78352607D01*
X87119329Y-78334883D01*
X87105079Y-78315670D01*
X87092782Y-78295153D01*
X87082554Y-78273529D01*
X87074496Y-78251007D01*
X87068684Y-78227803D01*
X87065174Y-78204142D01*
X87064000Y-78180250D01*
X87064000Y-77267750D01*
X87065174Y-77243858D01*
X87068684Y-77220197D01*
X87074496Y-77196993D01*
X87082554Y-77174471D01*
X87092782Y-77152847D01*
X87105079Y-77132330D01*
X87119329Y-77113117D01*
X87135393Y-77095393D01*
X87153117Y-77079329D01*
X87172330Y-77065079D01*
X87192847Y-77052782D01*
X87214471Y-77042554D01*
X87236993Y-77034496D01*
X87260197Y-77028684D01*
X87283858Y-77025174D01*
X87307750Y-77024000D01*
X87795250Y-77024000D01*
X87819142Y-77025174D01*
G37*
G36*
X85944142Y-77025174D02*
G01*
X85967803Y-77028684D01*
X85991007Y-77034496D01*
X86013529Y-77042554D01*
X86035153Y-77052782D01*
X86055670Y-77065079D01*
X86074883Y-77079329D01*
X86092607Y-77095393D01*
X86108671Y-77113117D01*
X86122921Y-77132330D01*
X86135218Y-77152847D01*
X86145446Y-77174471D01*
X86153504Y-77196993D01*
X86159316Y-77220197D01*
X86162826Y-77243858D01*
X86164000Y-77267750D01*
X86164000Y-78180250D01*
X86162826Y-78204142D01*
X86159316Y-78227803D01*
X86153504Y-78251007D01*
X86145446Y-78273529D01*
X86135218Y-78295153D01*
X86122921Y-78315670D01*
X86108671Y-78334883D01*
X86092607Y-78352607D01*
X86074883Y-78368671D01*
X86055670Y-78382921D01*
X86035153Y-78395218D01*
X86013529Y-78405446D01*
X85991007Y-78413504D01*
X85967803Y-78419316D01*
X85944142Y-78422826D01*
X85920250Y-78424000D01*
X85432750Y-78424000D01*
X85408858Y-78422826D01*
X85385197Y-78419316D01*
X85361993Y-78413504D01*
X85339471Y-78405446D01*
X85317847Y-78395218D01*
X85297330Y-78382921D01*
X85278117Y-78368671D01*
X85260393Y-78352607D01*
X85244329Y-78334883D01*
X85230079Y-78315670D01*
X85217782Y-78295153D01*
X85207554Y-78273529D01*
X85199496Y-78251007D01*
X85193684Y-78227803D01*
X85190174Y-78204142D01*
X85189000Y-78180250D01*
X85189000Y-77267750D01*
X85190174Y-77243858D01*
X85193684Y-77220197D01*
X85199496Y-77196993D01*
X85207554Y-77174471D01*
X85217782Y-77152847D01*
X85230079Y-77132330D01*
X85244329Y-77113117D01*
X85260393Y-77095393D01*
X85278117Y-77079329D01*
X85297330Y-77065079D01*
X85317847Y-77052782D01*
X85339471Y-77042554D01*
X85361993Y-77034496D01*
X85385197Y-77028684D01*
X85408858Y-77025174D01*
X85432750Y-77024000D01*
X85920250Y-77024000D01*
X85944142Y-77025174D01*
G37*
G04 #@! TD*
G04 #@! TO.C,R9*
G36*
X100676142Y-84391174D02*
G01*
X100699803Y-84394684D01*
X100723007Y-84400496D01*
X100745529Y-84408554D01*
X100767153Y-84418782D01*
X100787670Y-84431079D01*
X100806883Y-84445329D01*
X100824607Y-84461393D01*
X100840671Y-84479117D01*
X100854921Y-84498330D01*
X100867218Y-84518847D01*
X100877446Y-84540471D01*
X100885504Y-84562993D01*
X100891316Y-84586197D01*
X100894826Y-84609858D01*
X100896000Y-84633750D01*
X100896000Y-85546250D01*
X100894826Y-85570142D01*
X100891316Y-85593803D01*
X100885504Y-85617007D01*
X100877446Y-85639529D01*
X100867218Y-85661153D01*
X100854921Y-85681670D01*
X100840671Y-85700883D01*
X100824607Y-85718607D01*
X100806883Y-85734671D01*
X100787670Y-85748921D01*
X100767153Y-85761218D01*
X100745529Y-85771446D01*
X100723007Y-85779504D01*
X100699803Y-85785316D01*
X100676142Y-85788826D01*
X100652250Y-85790000D01*
X100164750Y-85790000D01*
X100140858Y-85788826D01*
X100117197Y-85785316D01*
X100093993Y-85779504D01*
X100071471Y-85771446D01*
X100049847Y-85761218D01*
X100029330Y-85748921D01*
X100010117Y-85734671D01*
X99992393Y-85718607D01*
X99976329Y-85700883D01*
X99962079Y-85681670D01*
X99949782Y-85661153D01*
X99939554Y-85639529D01*
X99931496Y-85617007D01*
X99925684Y-85593803D01*
X99922174Y-85570142D01*
X99921000Y-85546250D01*
X99921000Y-84633750D01*
X99922174Y-84609858D01*
X99925684Y-84586197D01*
X99931496Y-84562993D01*
X99939554Y-84540471D01*
X99949782Y-84518847D01*
X99962079Y-84498330D01*
X99976329Y-84479117D01*
X99992393Y-84461393D01*
X100010117Y-84445329D01*
X100029330Y-84431079D01*
X100049847Y-84418782D01*
X100071471Y-84408554D01*
X100093993Y-84400496D01*
X100117197Y-84394684D01*
X100140858Y-84391174D01*
X100164750Y-84390000D01*
X100652250Y-84390000D01*
X100676142Y-84391174D01*
G37*
G36*
X102551142Y-84391174D02*
G01*
X102574803Y-84394684D01*
X102598007Y-84400496D01*
X102620529Y-84408554D01*
X102642153Y-84418782D01*
X102662670Y-84431079D01*
X102681883Y-84445329D01*
X102699607Y-84461393D01*
X102715671Y-84479117D01*
X102729921Y-84498330D01*
X102742218Y-84518847D01*
X102752446Y-84540471D01*
X102760504Y-84562993D01*
X102766316Y-84586197D01*
X102769826Y-84609858D01*
X102771000Y-84633750D01*
X102771000Y-85546250D01*
X102769826Y-85570142D01*
X102766316Y-85593803D01*
X102760504Y-85617007D01*
X102752446Y-85639529D01*
X102742218Y-85661153D01*
X102729921Y-85681670D01*
X102715671Y-85700883D01*
X102699607Y-85718607D01*
X102681883Y-85734671D01*
X102662670Y-85748921D01*
X102642153Y-85761218D01*
X102620529Y-85771446D01*
X102598007Y-85779504D01*
X102574803Y-85785316D01*
X102551142Y-85788826D01*
X102527250Y-85790000D01*
X102039750Y-85790000D01*
X102015858Y-85788826D01*
X101992197Y-85785316D01*
X101968993Y-85779504D01*
X101946471Y-85771446D01*
X101924847Y-85761218D01*
X101904330Y-85748921D01*
X101885117Y-85734671D01*
X101867393Y-85718607D01*
X101851329Y-85700883D01*
X101837079Y-85681670D01*
X101824782Y-85661153D01*
X101814554Y-85639529D01*
X101806496Y-85617007D01*
X101800684Y-85593803D01*
X101797174Y-85570142D01*
X101796000Y-85546250D01*
X101796000Y-84633750D01*
X101797174Y-84609858D01*
X101800684Y-84586197D01*
X101806496Y-84562993D01*
X101814554Y-84540471D01*
X101824782Y-84518847D01*
X101837079Y-84498330D01*
X101851329Y-84479117D01*
X101867393Y-84461393D01*
X101885117Y-84445329D01*
X101904330Y-84431079D01*
X101924847Y-84418782D01*
X101946471Y-84408554D01*
X101968993Y-84400496D01*
X101992197Y-84394684D01*
X102015858Y-84391174D01*
X102039750Y-84390000D01*
X102527250Y-84390000D01*
X102551142Y-84391174D01*
G37*
G04 #@! TD*
G04 #@! TO.C,R10*
G36*
X119098142Y-79602174D02*
G01*
X119121803Y-79605684D01*
X119145007Y-79611496D01*
X119167529Y-79619554D01*
X119189153Y-79629782D01*
X119209670Y-79642079D01*
X119228883Y-79656329D01*
X119246607Y-79672393D01*
X119262671Y-79690117D01*
X119276921Y-79709330D01*
X119289218Y-79729847D01*
X119299446Y-79751471D01*
X119307504Y-79773993D01*
X119313316Y-79797197D01*
X119316826Y-79820858D01*
X119318000Y-79844750D01*
X119318000Y-80332250D01*
X119316826Y-80356142D01*
X119313316Y-80379803D01*
X119307504Y-80403007D01*
X119299446Y-80425529D01*
X119289218Y-80447153D01*
X119276921Y-80467670D01*
X119262671Y-80486883D01*
X119246607Y-80504607D01*
X119228883Y-80520671D01*
X119209670Y-80534921D01*
X119189153Y-80547218D01*
X119167529Y-80557446D01*
X119145007Y-80565504D01*
X119121803Y-80571316D01*
X119098142Y-80574826D01*
X119074250Y-80576000D01*
X118161750Y-80576000D01*
X118137858Y-80574826D01*
X118114197Y-80571316D01*
X118090993Y-80565504D01*
X118068471Y-80557446D01*
X118046847Y-80547218D01*
X118026330Y-80534921D01*
X118007117Y-80520671D01*
X117989393Y-80504607D01*
X117973329Y-80486883D01*
X117959079Y-80467670D01*
X117946782Y-80447153D01*
X117936554Y-80425529D01*
X117928496Y-80403007D01*
X117922684Y-80379803D01*
X117919174Y-80356142D01*
X117918000Y-80332250D01*
X117918000Y-79844750D01*
X117919174Y-79820858D01*
X117922684Y-79797197D01*
X117928496Y-79773993D01*
X117936554Y-79751471D01*
X117946782Y-79729847D01*
X117959079Y-79709330D01*
X117973329Y-79690117D01*
X117989393Y-79672393D01*
X118007117Y-79656329D01*
X118026330Y-79642079D01*
X118046847Y-79629782D01*
X118068471Y-79619554D01*
X118090993Y-79611496D01*
X118114197Y-79605684D01*
X118137858Y-79602174D01*
X118161750Y-79601000D01*
X119074250Y-79601000D01*
X119098142Y-79602174D01*
G37*
G36*
X119098142Y-81477174D02*
G01*
X119121803Y-81480684D01*
X119145007Y-81486496D01*
X119167529Y-81494554D01*
X119189153Y-81504782D01*
X119209670Y-81517079D01*
X119228883Y-81531329D01*
X119246607Y-81547393D01*
X119262671Y-81565117D01*
X119276921Y-81584330D01*
X119289218Y-81604847D01*
X119299446Y-81626471D01*
X119307504Y-81648993D01*
X119313316Y-81672197D01*
X119316826Y-81695858D01*
X119318000Y-81719750D01*
X119318000Y-82207250D01*
X119316826Y-82231142D01*
X119313316Y-82254803D01*
X119307504Y-82278007D01*
X119299446Y-82300529D01*
X119289218Y-82322153D01*
X119276921Y-82342670D01*
X119262671Y-82361883D01*
X119246607Y-82379607D01*
X119228883Y-82395671D01*
X119209670Y-82409921D01*
X119189153Y-82422218D01*
X119167529Y-82432446D01*
X119145007Y-82440504D01*
X119121803Y-82446316D01*
X119098142Y-82449826D01*
X119074250Y-82451000D01*
X118161750Y-82451000D01*
X118137858Y-82449826D01*
X118114197Y-82446316D01*
X118090993Y-82440504D01*
X118068471Y-82432446D01*
X118046847Y-82422218D01*
X118026330Y-82409921D01*
X118007117Y-82395671D01*
X117989393Y-82379607D01*
X117973329Y-82361883D01*
X117959079Y-82342670D01*
X117946782Y-82322153D01*
X117936554Y-82300529D01*
X117928496Y-82278007D01*
X117922684Y-82254803D01*
X117919174Y-82231142D01*
X117918000Y-82207250D01*
X117918000Y-81719750D01*
X117919174Y-81695858D01*
X117922684Y-81672197D01*
X117928496Y-81648993D01*
X117936554Y-81626471D01*
X117946782Y-81604847D01*
X117959079Y-81584330D01*
X117973329Y-81565117D01*
X117989393Y-81547393D01*
X118007117Y-81531329D01*
X118026330Y-81517079D01*
X118046847Y-81504782D01*
X118068471Y-81494554D01*
X118090993Y-81486496D01*
X118114197Y-81480684D01*
X118137858Y-81477174D01*
X118161750Y-81476000D01*
X119074250Y-81476000D01*
X119098142Y-81477174D01*
G37*
G04 #@! TD*
G04 #@! TO.C,R11*
G36*
X122400142Y-75381174D02*
G01*
X122423803Y-75384684D01*
X122447007Y-75390496D01*
X122469529Y-75398554D01*
X122491153Y-75408782D01*
X122511670Y-75421079D01*
X122530883Y-75435329D01*
X122548607Y-75451393D01*
X122564671Y-75469117D01*
X122578921Y-75488330D01*
X122591218Y-75508847D01*
X122601446Y-75530471D01*
X122609504Y-75552993D01*
X122615316Y-75576197D01*
X122618826Y-75599858D01*
X122620000Y-75623750D01*
X122620000Y-76111250D01*
X122618826Y-76135142D01*
X122615316Y-76158803D01*
X122609504Y-76182007D01*
X122601446Y-76204529D01*
X122591218Y-76226153D01*
X122578921Y-76246670D01*
X122564671Y-76265883D01*
X122548607Y-76283607D01*
X122530883Y-76299671D01*
X122511670Y-76313921D01*
X122491153Y-76326218D01*
X122469529Y-76336446D01*
X122447007Y-76344504D01*
X122423803Y-76350316D01*
X122400142Y-76353826D01*
X122376250Y-76355000D01*
X121463750Y-76355000D01*
X121439858Y-76353826D01*
X121416197Y-76350316D01*
X121392993Y-76344504D01*
X121370471Y-76336446D01*
X121348847Y-76326218D01*
X121328330Y-76313921D01*
X121309117Y-76299671D01*
X121291393Y-76283607D01*
X121275329Y-76265883D01*
X121261079Y-76246670D01*
X121248782Y-76226153D01*
X121238554Y-76204529D01*
X121230496Y-76182007D01*
X121224684Y-76158803D01*
X121221174Y-76135142D01*
X121220000Y-76111250D01*
X121220000Y-75623750D01*
X121221174Y-75599858D01*
X121224684Y-75576197D01*
X121230496Y-75552993D01*
X121238554Y-75530471D01*
X121248782Y-75508847D01*
X121261079Y-75488330D01*
X121275329Y-75469117D01*
X121291393Y-75451393D01*
X121309117Y-75435329D01*
X121328330Y-75421079D01*
X121348847Y-75408782D01*
X121370471Y-75398554D01*
X121392993Y-75390496D01*
X121416197Y-75384684D01*
X121439858Y-75381174D01*
X121463750Y-75380000D01*
X122376250Y-75380000D01*
X122400142Y-75381174D01*
G37*
G36*
X122400142Y-73506174D02*
G01*
X122423803Y-73509684D01*
X122447007Y-73515496D01*
X122469529Y-73523554D01*
X122491153Y-73533782D01*
X122511670Y-73546079D01*
X122530883Y-73560329D01*
X122548607Y-73576393D01*
X122564671Y-73594117D01*
X122578921Y-73613330D01*
X122591218Y-73633847D01*
X122601446Y-73655471D01*
X122609504Y-73677993D01*
X122615316Y-73701197D01*
X122618826Y-73724858D01*
X122620000Y-73748750D01*
X122620000Y-74236250D01*
X122618826Y-74260142D01*
X122615316Y-74283803D01*
X122609504Y-74307007D01*
X122601446Y-74329529D01*
X122591218Y-74351153D01*
X122578921Y-74371670D01*
X122564671Y-74390883D01*
X122548607Y-74408607D01*
X122530883Y-74424671D01*
X122511670Y-74438921D01*
X122491153Y-74451218D01*
X122469529Y-74461446D01*
X122447007Y-74469504D01*
X122423803Y-74475316D01*
X122400142Y-74478826D01*
X122376250Y-74480000D01*
X121463750Y-74480000D01*
X121439858Y-74478826D01*
X121416197Y-74475316D01*
X121392993Y-74469504D01*
X121370471Y-74461446D01*
X121348847Y-74451218D01*
X121328330Y-74438921D01*
X121309117Y-74424671D01*
X121291393Y-74408607D01*
X121275329Y-74390883D01*
X121261079Y-74371670D01*
X121248782Y-74351153D01*
X121238554Y-74329529D01*
X121230496Y-74307007D01*
X121224684Y-74283803D01*
X121221174Y-74260142D01*
X121220000Y-74236250D01*
X121220000Y-73748750D01*
X121221174Y-73724858D01*
X121224684Y-73701197D01*
X121230496Y-73677993D01*
X121238554Y-73655471D01*
X121248782Y-73633847D01*
X121261079Y-73613330D01*
X121275329Y-73594117D01*
X121291393Y-73576393D01*
X121309117Y-73560329D01*
X121328330Y-73546079D01*
X121348847Y-73533782D01*
X121370471Y-73523554D01*
X121392993Y-73515496D01*
X121416197Y-73509684D01*
X121439858Y-73506174D01*
X121463750Y-73505000D01*
X122376250Y-73505000D01*
X122400142Y-73506174D01*
G37*
G04 #@! TD*
G04 #@! TO.C,R12*
G36*
X133068142Y-71063174D02*
G01*
X133091803Y-71066684D01*
X133115007Y-71072496D01*
X133137529Y-71080554D01*
X133159153Y-71090782D01*
X133179670Y-71103079D01*
X133198883Y-71117329D01*
X133216607Y-71133393D01*
X133232671Y-71151117D01*
X133246921Y-71170330D01*
X133259218Y-71190847D01*
X133269446Y-71212471D01*
X133277504Y-71234993D01*
X133283316Y-71258197D01*
X133286826Y-71281858D01*
X133288000Y-71305750D01*
X133288000Y-71793250D01*
X133286826Y-71817142D01*
X133283316Y-71840803D01*
X133277504Y-71864007D01*
X133269446Y-71886529D01*
X133259218Y-71908153D01*
X133246921Y-71928670D01*
X133232671Y-71947883D01*
X133216607Y-71965607D01*
X133198883Y-71981671D01*
X133179670Y-71995921D01*
X133159153Y-72008218D01*
X133137529Y-72018446D01*
X133115007Y-72026504D01*
X133091803Y-72032316D01*
X133068142Y-72035826D01*
X133044250Y-72037000D01*
X132131750Y-72037000D01*
X132107858Y-72035826D01*
X132084197Y-72032316D01*
X132060993Y-72026504D01*
X132038471Y-72018446D01*
X132016847Y-72008218D01*
X131996330Y-71995921D01*
X131977117Y-71981671D01*
X131959393Y-71965607D01*
X131943329Y-71947883D01*
X131929079Y-71928670D01*
X131916782Y-71908153D01*
X131906554Y-71886529D01*
X131898496Y-71864007D01*
X131892684Y-71840803D01*
X131889174Y-71817142D01*
X131888000Y-71793250D01*
X131888000Y-71305750D01*
X131889174Y-71281858D01*
X131892684Y-71258197D01*
X131898496Y-71234993D01*
X131906554Y-71212471D01*
X131916782Y-71190847D01*
X131929079Y-71170330D01*
X131943329Y-71151117D01*
X131959393Y-71133393D01*
X131977117Y-71117329D01*
X131996330Y-71103079D01*
X132016847Y-71090782D01*
X132038471Y-71080554D01*
X132060993Y-71072496D01*
X132084197Y-71066684D01*
X132107858Y-71063174D01*
X132131750Y-71062000D01*
X133044250Y-71062000D01*
X133068142Y-71063174D01*
G37*
G36*
X133068142Y-69188174D02*
G01*
X133091803Y-69191684D01*
X133115007Y-69197496D01*
X133137529Y-69205554D01*
X133159153Y-69215782D01*
X133179670Y-69228079D01*
X133198883Y-69242329D01*
X133216607Y-69258393D01*
X133232671Y-69276117D01*
X133246921Y-69295330D01*
X133259218Y-69315847D01*
X133269446Y-69337471D01*
X133277504Y-69359993D01*
X133283316Y-69383197D01*
X133286826Y-69406858D01*
X133288000Y-69430750D01*
X133288000Y-69918250D01*
X133286826Y-69942142D01*
X133283316Y-69965803D01*
X133277504Y-69989007D01*
X133269446Y-70011529D01*
X133259218Y-70033153D01*
X133246921Y-70053670D01*
X133232671Y-70072883D01*
X133216607Y-70090607D01*
X133198883Y-70106671D01*
X133179670Y-70120921D01*
X133159153Y-70133218D01*
X133137529Y-70143446D01*
X133115007Y-70151504D01*
X133091803Y-70157316D01*
X133068142Y-70160826D01*
X133044250Y-70162000D01*
X132131750Y-70162000D01*
X132107858Y-70160826D01*
X132084197Y-70157316D01*
X132060993Y-70151504D01*
X132038471Y-70143446D01*
X132016847Y-70133218D01*
X131996330Y-70120921D01*
X131977117Y-70106671D01*
X131959393Y-70090607D01*
X131943329Y-70072883D01*
X131929079Y-70053670D01*
X131916782Y-70033153D01*
X131906554Y-70011529D01*
X131898496Y-69989007D01*
X131892684Y-69965803D01*
X131889174Y-69942142D01*
X131888000Y-69918250D01*
X131888000Y-69430750D01*
X131889174Y-69406858D01*
X131892684Y-69383197D01*
X131898496Y-69359993D01*
X131906554Y-69337471D01*
X131916782Y-69315847D01*
X131929079Y-69295330D01*
X131943329Y-69276117D01*
X131959393Y-69258393D01*
X131977117Y-69242329D01*
X131996330Y-69228079D01*
X132016847Y-69215782D01*
X132038471Y-69205554D01*
X132060993Y-69197496D01*
X132084197Y-69191684D01*
X132107858Y-69188174D01*
X132131750Y-69187000D01*
X133044250Y-69187000D01*
X133068142Y-69188174D01*
G37*
G04 #@! TD*
G04 #@! TO.C,R13*
G36*
X129766142Y-70047174D02*
G01*
X129789803Y-70050684D01*
X129813007Y-70056496D01*
X129835529Y-70064554D01*
X129857153Y-70074782D01*
X129877670Y-70087079D01*
X129896883Y-70101329D01*
X129914607Y-70117393D01*
X129930671Y-70135117D01*
X129944921Y-70154330D01*
X129957218Y-70174847D01*
X129967446Y-70196471D01*
X129975504Y-70218993D01*
X129981316Y-70242197D01*
X129984826Y-70265858D01*
X129986000Y-70289750D01*
X129986000Y-70777250D01*
X129984826Y-70801142D01*
X129981316Y-70824803D01*
X129975504Y-70848007D01*
X129967446Y-70870529D01*
X129957218Y-70892153D01*
X129944921Y-70912670D01*
X129930671Y-70931883D01*
X129914607Y-70949607D01*
X129896883Y-70965671D01*
X129877670Y-70979921D01*
X129857153Y-70992218D01*
X129835529Y-71002446D01*
X129813007Y-71010504D01*
X129789803Y-71016316D01*
X129766142Y-71019826D01*
X129742250Y-71021000D01*
X128829750Y-71021000D01*
X128805858Y-71019826D01*
X128782197Y-71016316D01*
X128758993Y-71010504D01*
X128736471Y-71002446D01*
X128714847Y-70992218D01*
X128694330Y-70979921D01*
X128675117Y-70965671D01*
X128657393Y-70949607D01*
X128641329Y-70931883D01*
X128627079Y-70912670D01*
X128614782Y-70892153D01*
X128604554Y-70870529D01*
X128596496Y-70848007D01*
X128590684Y-70824803D01*
X128587174Y-70801142D01*
X128586000Y-70777250D01*
X128586000Y-70289750D01*
X128587174Y-70265858D01*
X128590684Y-70242197D01*
X128596496Y-70218993D01*
X128604554Y-70196471D01*
X128614782Y-70174847D01*
X128627079Y-70154330D01*
X128641329Y-70135117D01*
X128657393Y-70117393D01*
X128675117Y-70101329D01*
X128694330Y-70087079D01*
X128714847Y-70074782D01*
X128736471Y-70064554D01*
X128758993Y-70056496D01*
X128782197Y-70050684D01*
X128805858Y-70047174D01*
X128829750Y-70046000D01*
X129742250Y-70046000D01*
X129766142Y-70047174D01*
G37*
G36*
X129766142Y-68172174D02*
G01*
X129789803Y-68175684D01*
X129813007Y-68181496D01*
X129835529Y-68189554D01*
X129857153Y-68199782D01*
X129877670Y-68212079D01*
X129896883Y-68226329D01*
X129914607Y-68242393D01*
X129930671Y-68260117D01*
X129944921Y-68279330D01*
X129957218Y-68299847D01*
X129967446Y-68321471D01*
X129975504Y-68343993D01*
X129981316Y-68367197D01*
X129984826Y-68390858D01*
X129986000Y-68414750D01*
X129986000Y-68902250D01*
X129984826Y-68926142D01*
X129981316Y-68949803D01*
X129975504Y-68973007D01*
X129967446Y-68995529D01*
X129957218Y-69017153D01*
X129944921Y-69037670D01*
X129930671Y-69056883D01*
X129914607Y-69074607D01*
X129896883Y-69090671D01*
X129877670Y-69104921D01*
X129857153Y-69117218D01*
X129835529Y-69127446D01*
X129813007Y-69135504D01*
X129789803Y-69141316D01*
X129766142Y-69144826D01*
X129742250Y-69146000D01*
X128829750Y-69146000D01*
X128805858Y-69144826D01*
X128782197Y-69141316D01*
X128758993Y-69135504D01*
X128736471Y-69127446D01*
X128714847Y-69117218D01*
X128694330Y-69104921D01*
X128675117Y-69090671D01*
X128657393Y-69074607D01*
X128641329Y-69056883D01*
X128627079Y-69037670D01*
X128614782Y-69017153D01*
X128604554Y-68995529D01*
X128596496Y-68973007D01*
X128590684Y-68949803D01*
X128587174Y-68926142D01*
X128586000Y-68902250D01*
X128586000Y-68414750D01*
X128587174Y-68390858D01*
X128590684Y-68367197D01*
X128596496Y-68343993D01*
X128604554Y-68321471D01*
X128614782Y-68299847D01*
X128627079Y-68279330D01*
X128641329Y-68260117D01*
X128657393Y-68242393D01*
X128675117Y-68226329D01*
X128694330Y-68212079D01*
X128714847Y-68199782D01*
X128736471Y-68189554D01*
X128758993Y-68181496D01*
X128782197Y-68175684D01*
X128805858Y-68172174D01*
X128829750Y-68171000D01*
X129742250Y-68171000D01*
X129766142Y-68172174D01*
G37*
G04 #@! TD*
D15*
G04 #@! TO.C,U1*
X94729300Y-75707999D03*
X94729300Y-76208001D03*
X94729300Y-76708000D03*
X94729300Y-77207999D03*
X94729300Y-77708001D03*
X96786700Y-77708001D03*
X96786700Y-77207999D03*
X96786700Y-76708000D03*
X96786700Y-76208001D03*
X96786700Y-75707999D03*
D16*
X95758000Y-76708000D03*
G04 #@! TD*
D17*
G04 #@! TO.C,U2*
X108345999Y-82558001D03*
D18*
X108366001Y-83058000D03*
X108366001Y-83557999D03*
X109565999Y-83557999D03*
X109565999Y-83058000D03*
X109565999Y-82558001D03*
G04 #@! TD*
D19*
G04 #@! TO.C,U5*
X126218000Y-71079000D03*
X126218000Y-70429000D03*
X126218000Y-69779000D03*
X126218000Y-69129000D03*
X123718000Y-69129000D03*
X123718000Y-69779000D03*
X123718000Y-70429000D03*
X123718000Y-71079000D03*
G04 #@! TD*
M02*
