M48
; DRILL file {KiCad (5.1.5)-3} date 4/26/2020 9:46:19 PM
; FORMAT={-:-/ absolute / inch / decimal}
; #@! TF.CreationDate,2020-04-26T21:46:19-07:00
; #@! TF.GenerationSoftware,Kicad,Pcbnew,(5.1.5)-3
; #@! TF.FileFunction,Plated,1,2,PTH
FMAT,2
INCH
T1C0.0157
T2C0.0354
T3C0.0394
T4C0.0394
T5C0.0591
%
G90
G05
T1
X3.39Y-2.98
X3.85Y-3.1
X3.9631Y-2.9669
X4.09Y-3.24
X4.12Y-3.01
X4.2187Y-3.2686
X4.3Y-3.38
X4.36Y-3.13
T2
X3.1Y-2.8731
X3.1Y-2.9716
X3.1Y-3.07
X3.2299Y-2.8731
X3.2299Y-2.9716
X3.2299Y-3.07
T3
X4.2Y-2.75
X4.2Y-2.85
X4.2Y-2.95
T4
X2.79Y-2.61
X2.79Y-3.14
X3.17Y-2.6
X2.79Y-3.39
X3.54Y-3.35
X3.3Y-3.35
X5.32Y-2.99
X5.32Y-3.21
T5
X5.16Y-3.63
X4.54Y-3.64
T0
M30
