G04 #@! TF.GenerationSoftware,KiCad,Pcbnew,(5.1.5)-3*
G04 #@! TF.CreationDate,2020-04-26T21:45:51-07:00*
G04 #@! TF.ProjectId,JessopIII_SPP460,4a657373-6f70-4494-9949-5f5350503436,rev?*
G04 #@! TF.SameCoordinates,Original*
G04 #@! TF.FileFunction,Soldermask,Top*
G04 #@! TF.FilePolarity,Negative*
%FSLAX46Y46*%
G04 Gerber Fmt 4.6, Leading zero omitted, Abs format (unit mm)*
G04 Created by KiCad (PCBNEW (5.1.5)-3) date 2020-04-26 21:45:51*
%MOMM*%
%LPD*%
G04 APERTURE LIST*
G04 #@! TA.AperFunction,Profile*
%ADD10C,0.100000*%
G04 #@! TD*
%ADD11C,0.152400*%
%ADD12C,0.100000*%
G04 APERTURE END LIST*
D10*
X138430000Y-61722000D02*
X138430000Y-97536000D01*
X66548000Y-61722000D02*
X138430000Y-61722000D01*
X66548000Y-97536000D02*
X66548000Y-61722000D01*
X138430000Y-97536000D02*
X66548000Y-97536000D01*
D11*
G04 #@! TO.C,U2*
X108615201Y-82433003D02*
X108616176Y-82423091D01*
X108616176Y-82423091D02*
X108619066Y-82413561D01*
X108619066Y-82413561D02*
X108623763Y-82404781D01*
X108623763Y-82404781D02*
X108630080Y-82397082D01*
X108630080Y-82397082D02*
X108637779Y-82390765D01*
X108637779Y-82390765D02*
X108646559Y-82386068D01*
X108646559Y-82386068D02*
X108656090Y-82383178D01*
X108656090Y-82383178D02*
X108666001Y-82382203D01*
X108666001Y-82382203D02*
X108716000Y-82382203D01*
X108716000Y-82382203D02*
X108725912Y-82383178D01*
X108725912Y-82383178D02*
X108735442Y-82386068D01*
X108735442Y-82386068D02*
X108744222Y-82390765D01*
X108744222Y-82390765D02*
X108751921Y-82397082D01*
X108751921Y-82397082D02*
X108851921Y-82497082D01*
X108851921Y-82497082D02*
X108858238Y-82504780D01*
X108858238Y-82504780D02*
X108862934Y-82513561D01*
X108862934Y-82513561D02*
X108865825Y-82523091D01*
X108865825Y-82523091D02*
X108866800Y-82533002D01*
X108866800Y-82533002D02*
X108866800Y-82682999D01*
X108866800Y-82682999D02*
X108865825Y-82692911D01*
X108865825Y-82692911D02*
X108862934Y-82702441D01*
X108862934Y-82702441D02*
X108858238Y-82711221D01*
X108858238Y-82711221D02*
X108851921Y-82718920D01*
X108851921Y-82718920D02*
X108844222Y-82725237D01*
X108844222Y-82725237D02*
X108835441Y-82729934D01*
X108835441Y-82729934D02*
X108825911Y-82732824D01*
X108825911Y-82732824D02*
X108816000Y-82733799D01*
X108816000Y-82733799D02*
X108666001Y-82733799D01*
X108666001Y-82733799D02*
X108656090Y-82732824D01*
X108656090Y-82732824D02*
X108646559Y-82729934D01*
X108646559Y-82729934D02*
X108637779Y-82725237D01*
X108637779Y-82725237D02*
X108630080Y-82718920D01*
X108630080Y-82718920D02*
X108623763Y-82711221D01*
X108623763Y-82711221D02*
X108619066Y-82702441D01*
X108619066Y-82702441D02*
X108616176Y-82692911D01*
X108616176Y-82692911D02*
X108615201Y-82682999D01*
X108615201Y-82682999D02*
X108615201Y-82433003D01*
D12*
G36*
X123823487Y-92728996D02*
G01*
X124060253Y-92827068D01*
X124060255Y-92827069D01*
X124273339Y-92969447D01*
X124454553Y-93150661D01*
X124585166Y-93346137D01*
X124596932Y-93363747D01*
X124695004Y-93600513D01*
X124745000Y-93851861D01*
X124745000Y-94108139D01*
X124695004Y-94359487D01*
X124649640Y-94469004D01*
X124596931Y-94596255D01*
X124454553Y-94809339D01*
X124273339Y-94990553D01*
X124060255Y-95132931D01*
X124060254Y-95132932D01*
X124060253Y-95132932D01*
X123823487Y-95231004D01*
X123572139Y-95281000D01*
X123315861Y-95281000D01*
X123064513Y-95231004D01*
X122827747Y-95132932D01*
X122827746Y-95132932D01*
X122827745Y-95132931D01*
X122614661Y-94990553D01*
X122433447Y-94809339D01*
X122291069Y-94596255D01*
X122238360Y-94469004D01*
X122192996Y-94359487D01*
X122143000Y-94108139D01*
X122143000Y-93851861D01*
X122192996Y-93600513D01*
X122291068Y-93363747D01*
X122302835Y-93346137D01*
X122433447Y-93150661D01*
X122614661Y-92969447D01*
X122827745Y-92827069D01*
X122827747Y-92827068D01*
X123064513Y-92728996D01*
X123315861Y-92679000D01*
X123572139Y-92679000D01*
X123823487Y-92728996D01*
G37*
G36*
X72515487Y-91966996D02*
G01*
X72752253Y-92065068D01*
X72752255Y-92065069D01*
X72965339Y-92207447D01*
X73146553Y-92388661D01*
X73288932Y-92601747D01*
X73387004Y-92838513D01*
X73437000Y-93089861D01*
X73437000Y-93346139D01*
X73387004Y-93597487D01*
X73318199Y-93763596D01*
X73288931Y-93834255D01*
X73146553Y-94047339D01*
X72965339Y-94228553D01*
X72752255Y-94370931D01*
X72752254Y-94370932D01*
X72752253Y-94370932D01*
X72515487Y-94469004D01*
X72264139Y-94519000D01*
X72007861Y-94519000D01*
X71756513Y-94469004D01*
X71519747Y-94370932D01*
X71519746Y-94370932D01*
X71519745Y-94370931D01*
X71306661Y-94228553D01*
X71125447Y-94047339D01*
X70983069Y-93834255D01*
X70953801Y-93763596D01*
X70884996Y-93597487D01*
X70835000Y-93346139D01*
X70835000Y-93089861D01*
X70884996Y-92838513D01*
X70983068Y-92601747D01*
X71125447Y-92388661D01*
X71306661Y-92207447D01*
X71519745Y-92065069D01*
X71519747Y-92065068D01*
X71756513Y-91966996D01*
X72007861Y-91917000D01*
X72264139Y-91917000D01*
X72515487Y-91966996D01*
G37*
G36*
X115914326Y-90483578D02*
G01*
X115914329Y-90483579D01*
X115914328Y-90483579D01*
X116287631Y-90638206D01*
X116623596Y-90862690D01*
X116909310Y-91148404D01*
X116964077Y-91230369D01*
X117133795Y-91484371D01*
X117288422Y-91857674D01*
X117367250Y-92253968D01*
X117367250Y-92658032D01*
X117288422Y-93054326D01*
X117160256Y-93363747D01*
X117133794Y-93427631D01*
X116909310Y-93763596D01*
X116623596Y-94049310D01*
X116287631Y-94273794D01*
X116287630Y-94273795D01*
X116287629Y-94273795D01*
X115914326Y-94428422D01*
X115518032Y-94507250D01*
X115113968Y-94507250D01*
X114717674Y-94428422D01*
X114344371Y-94273795D01*
X114344370Y-94273795D01*
X114344369Y-94273794D01*
X114008404Y-94049310D01*
X113722690Y-93763596D01*
X113498206Y-93427631D01*
X113471744Y-93363747D01*
X113343578Y-93054326D01*
X113264750Y-92658032D01*
X113264750Y-92253968D01*
X113343578Y-91857674D01*
X113498205Y-91484371D01*
X113667923Y-91230369D01*
X113722690Y-91148404D01*
X114008404Y-90862690D01*
X114344369Y-90638206D01*
X114717672Y-90483579D01*
X114717671Y-90483579D01*
X114717674Y-90483578D01*
X115113968Y-90404750D01*
X115518032Y-90404750D01*
X115914326Y-90483578D01*
G37*
G36*
X131662326Y-90229578D02*
G01*
X131662329Y-90229579D01*
X131662328Y-90229579D01*
X132035631Y-90384206D01*
X132371596Y-90608690D01*
X132657310Y-90894404D01*
X132881794Y-91230369D01*
X132881795Y-91230371D01*
X133036422Y-91603674D01*
X133115250Y-91999968D01*
X133115250Y-92404032D01*
X133036422Y-92800326D01*
X132881795Y-93173629D01*
X132881794Y-93173631D01*
X132657310Y-93509596D01*
X132371596Y-93795310D01*
X132035631Y-94019794D01*
X132035630Y-94019795D01*
X132035629Y-94019795D01*
X131662326Y-94174422D01*
X131266032Y-94253250D01*
X130861968Y-94253250D01*
X130465674Y-94174422D01*
X130092371Y-94019795D01*
X130092370Y-94019795D01*
X130092369Y-94019794D01*
X129756404Y-93795310D01*
X129470690Y-93509596D01*
X129246206Y-93173631D01*
X129246205Y-93173629D01*
X129091578Y-92800326D01*
X129012750Y-92404032D01*
X129012750Y-91999968D01*
X129091578Y-91603674D01*
X129246205Y-91230371D01*
X129246206Y-91230369D01*
X129470690Y-90894404D01*
X129756404Y-90608690D01*
X130092369Y-90384206D01*
X130465672Y-90229579D01*
X130465671Y-90229579D01*
X130465674Y-90229578D01*
X130861968Y-90150750D01*
X131266032Y-90150750D01*
X131662326Y-90229578D01*
G37*
G36*
X106940000Y-93749000D02*
G01*
X104388000Y-93749000D01*
X104388000Y-91337000D01*
X106940000Y-91337000D01*
X106940000Y-93749000D01*
G37*
G36*
X99066000Y-93749000D02*
G01*
X96514000Y-93749000D01*
X96514000Y-91337000D01*
X99066000Y-91337000D01*
X99066000Y-93749000D01*
G37*
G36*
X99066000Y-90879000D02*
G01*
X96514000Y-90879000D01*
X96514000Y-90147000D01*
X99066000Y-90147000D01*
X99066000Y-90879000D01*
G37*
G36*
X106940000Y-90879000D02*
G01*
X104388000Y-90879000D01*
X104388000Y-90147000D01*
X106940000Y-90147000D01*
X106940000Y-90879000D01*
G37*
G36*
X71245393Y-84855304D02*
G01*
X71482101Y-84953352D01*
X71482103Y-84953353D01*
X71695135Y-85095696D01*
X71876304Y-85276865D01*
X72004947Y-85469394D01*
X72018648Y-85489899D01*
X72116696Y-85726607D01*
X72166680Y-85977893D01*
X72166680Y-86234107D01*
X72116696Y-86485393D01*
X72069872Y-86598435D01*
X72018647Y-86722103D01*
X71876304Y-86935135D01*
X71695135Y-87116304D01*
X71482103Y-87258647D01*
X71482102Y-87258648D01*
X71482101Y-87258648D01*
X71245393Y-87356696D01*
X70994107Y-87406680D01*
X70737893Y-87406680D01*
X70486607Y-87356696D01*
X70249899Y-87258648D01*
X70249898Y-87258648D01*
X70249897Y-87258647D01*
X70036865Y-87116304D01*
X69855696Y-86935135D01*
X69713353Y-86722103D01*
X69662128Y-86598435D01*
X69615304Y-86485393D01*
X69565320Y-86234107D01*
X69565320Y-85977893D01*
X69615304Y-85726607D01*
X69713352Y-85489899D01*
X69727053Y-85469394D01*
X69855696Y-85276865D01*
X70036865Y-85095696D01*
X70249897Y-84953353D01*
X70249899Y-84953352D01*
X70486607Y-84855304D01*
X70737893Y-84805320D01*
X70994107Y-84805320D01*
X71245393Y-84855304D01*
G37*
G36*
X113323468Y-85105565D02*
G01*
X113362138Y-85117296D01*
X113397777Y-85136346D01*
X113429017Y-85161983D01*
X113454654Y-85193223D01*
X113473704Y-85228862D01*
X113485435Y-85267532D01*
X113490000Y-85313888D01*
X113490000Y-86390112D01*
X113485435Y-86436468D01*
X113473704Y-86475138D01*
X113454654Y-86510777D01*
X113429017Y-86542017D01*
X113397777Y-86567654D01*
X113362138Y-86586704D01*
X113323468Y-86598435D01*
X113277112Y-86603000D01*
X112625888Y-86603000D01*
X112579532Y-86598435D01*
X112540862Y-86586704D01*
X112505223Y-86567654D01*
X112473983Y-86542017D01*
X112448346Y-86510777D01*
X112429296Y-86475138D01*
X112417565Y-86436468D01*
X112413000Y-86390112D01*
X112413000Y-85313888D01*
X112417565Y-85267532D01*
X112429296Y-85228862D01*
X112448346Y-85193223D01*
X112473983Y-85161983D01*
X112505223Y-85136346D01*
X112540862Y-85117296D01*
X112579532Y-85105565D01*
X112625888Y-85101000D01*
X113277112Y-85101000D01*
X113323468Y-85105565D01*
G37*
G36*
X111448468Y-85105565D02*
G01*
X111487138Y-85117296D01*
X111522777Y-85136346D01*
X111554017Y-85161983D01*
X111579654Y-85193223D01*
X111598704Y-85228862D01*
X111610435Y-85267532D01*
X111615000Y-85313888D01*
X111615000Y-86390112D01*
X111610435Y-86436468D01*
X111598704Y-86475138D01*
X111579654Y-86510777D01*
X111554017Y-86542017D01*
X111522777Y-86567654D01*
X111487138Y-86586704D01*
X111448468Y-86598435D01*
X111402112Y-86603000D01*
X110750888Y-86603000D01*
X110704532Y-86598435D01*
X110665862Y-86586704D01*
X110630223Y-86567654D01*
X110598983Y-86542017D01*
X110573346Y-86510777D01*
X110554296Y-86475138D01*
X110542565Y-86436468D01*
X110538000Y-86390112D01*
X110538000Y-85313888D01*
X110542565Y-85267532D01*
X110554296Y-85228862D01*
X110573346Y-85193223D01*
X110598983Y-85161983D01*
X110630223Y-85136346D01*
X110665862Y-85117296D01*
X110704532Y-85105565D01*
X110750888Y-85101000D01*
X111402112Y-85101000D01*
X111448468Y-85105565D01*
G37*
G36*
X107227468Y-85105565D02*
G01*
X107266138Y-85117296D01*
X107301777Y-85136346D01*
X107333017Y-85161983D01*
X107358654Y-85193223D01*
X107377704Y-85228862D01*
X107389435Y-85267532D01*
X107394000Y-85313888D01*
X107394000Y-86390112D01*
X107389435Y-86436468D01*
X107377704Y-86475138D01*
X107358654Y-86510777D01*
X107333017Y-86542017D01*
X107301777Y-86567654D01*
X107266138Y-86586704D01*
X107227468Y-86598435D01*
X107181112Y-86603000D01*
X106529888Y-86603000D01*
X106483532Y-86598435D01*
X106444862Y-86586704D01*
X106409223Y-86567654D01*
X106377983Y-86542017D01*
X106352346Y-86510777D01*
X106333296Y-86475138D01*
X106321565Y-86436468D01*
X106317000Y-86390112D01*
X106317000Y-85313888D01*
X106321565Y-85267532D01*
X106333296Y-85228862D01*
X106352346Y-85193223D01*
X106377983Y-85161983D01*
X106409223Y-85136346D01*
X106444862Y-85117296D01*
X106483532Y-85105565D01*
X106529888Y-85101000D01*
X107181112Y-85101000D01*
X107227468Y-85105565D01*
G37*
G36*
X105352468Y-85105565D02*
G01*
X105391138Y-85117296D01*
X105426777Y-85136346D01*
X105458017Y-85161983D01*
X105483654Y-85193223D01*
X105502704Y-85228862D01*
X105514435Y-85267532D01*
X105519000Y-85313888D01*
X105519000Y-86390112D01*
X105514435Y-86436468D01*
X105502704Y-86475138D01*
X105483654Y-86510777D01*
X105458017Y-86542017D01*
X105426777Y-86567654D01*
X105391138Y-86586704D01*
X105352468Y-86598435D01*
X105306112Y-86603000D01*
X104654888Y-86603000D01*
X104608532Y-86598435D01*
X104569862Y-86586704D01*
X104534223Y-86567654D01*
X104502983Y-86542017D01*
X104477346Y-86510777D01*
X104458296Y-86475138D01*
X104446565Y-86436468D01*
X104442000Y-86390112D01*
X104442000Y-85313888D01*
X104446565Y-85267532D01*
X104458296Y-85228862D01*
X104477346Y-85193223D01*
X104502983Y-85161983D01*
X104534223Y-85136346D01*
X104569862Y-85117296D01*
X104608532Y-85105565D01*
X104654888Y-85101000D01*
X105306112Y-85101000D01*
X105352468Y-85105565D01*
G37*
G36*
X90295393Y-83839304D02*
G01*
X90532101Y-83937352D01*
X90532103Y-83937353D01*
X90745135Y-84079696D01*
X90926304Y-84260865D01*
X91019259Y-84399983D01*
X91068648Y-84473899D01*
X91166696Y-84710607D01*
X91216680Y-84961893D01*
X91216680Y-85218107D01*
X91166696Y-85469393D01*
X91158202Y-85489899D01*
X91068647Y-85706103D01*
X90926304Y-85919135D01*
X90745135Y-86100304D01*
X90532103Y-86242647D01*
X90532102Y-86242648D01*
X90532101Y-86242648D01*
X90295393Y-86340696D01*
X90044107Y-86390680D01*
X89787893Y-86390680D01*
X89536607Y-86340696D01*
X89299899Y-86242648D01*
X89299898Y-86242648D01*
X89299897Y-86242647D01*
X89086865Y-86100304D01*
X88905696Y-85919135D01*
X88763353Y-85706103D01*
X88673798Y-85489899D01*
X88665304Y-85469393D01*
X88615320Y-85218107D01*
X88615320Y-84961893D01*
X88665304Y-84710607D01*
X88763352Y-84473899D01*
X88812741Y-84399983D01*
X88905696Y-84260865D01*
X89086865Y-84079696D01*
X89299897Y-83937353D01*
X89299899Y-83937352D01*
X89536607Y-83839304D01*
X89787893Y-83789320D01*
X90044107Y-83789320D01*
X90295393Y-83839304D01*
G37*
G36*
X84199393Y-83839304D02*
G01*
X84436101Y-83937352D01*
X84436103Y-83937353D01*
X84649135Y-84079696D01*
X84830304Y-84260865D01*
X84923259Y-84399983D01*
X84972648Y-84473899D01*
X85070696Y-84710607D01*
X85120680Y-84961893D01*
X85120680Y-85218107D01*
X85070696Y-85469393D01*
X85062202Y-85489899D01*
X84972647Y-85706103D01*
X84830304Y-85919135D01*
X84649135Y-86100304D01*
X84436103Y-86242647D01*
X84436102Y-86242648D01*
X84436101Y-86242648D01*
X84199393Y-86340696D01*
X83948107Y-86390680D01*
X83691893Y-86390680D01*
X83440607Y-86340696D01*
X83203899Y-86242648D01*
X83203898Y-86242648D01*
X83203897Y-86242647D01*
X82990865Y-86100304D01*
X82809696Y-85919135D01*
X82667353Y-85706103D01*
X82577798Y-85489899D01*
X82569304Y-85469393D01*
X82519320Y-85218107D01*
X82519320Y-84961893D01*
X82569304Y-84710607D01*
X82667352Y-84473899D01*
X82716741Y-84399983D01*
X82809696Y-84260865D01*
X82990865Y-84079696D01*
X83203897Y-83937353D01*
X83203899Y-83937352D01*
X83440607Y-83839304D01*
X83691893Y-83789320D01*
X83948107Y-83789320D01*
X84199393Y-83839304D01*
G37*
G36*
X98845468Y-84343565D02*
G01*
X98884138Y-84355296D01*
X98919777Y-84374346D01*
X98951017Y-84399983D01*
X98976654Y-84431223D01*
X98995704Y-84466862D01*
X99007435Y-84505532D01*
X99012000Y-84551888D01*
X99012000Y-85628112D01*
X99007435Y-85674468D01*
X98995704Y-85713138D01*
X98976654Y-85748777D01*
X98951017Y-85780017D01*
X98919777Y-85805654D01*
X98884138Y-85824704D01*
X98845468Y-85836435D01*
X98799112Y-85841000D01*
X98147888Y-85841000D01*
X98101532Y-85836435D01*
X98062862Y-85824704D01*
X98027223Y-85805654D01*
X97995983Y-85780017D01*
X97970346Y-85748777D01*
X97951296Y-85713138D01*
X97939565Y-85674468D01*
X97935000Y-85628112D01*
X97935000Y-84551888D01*
X97939565Y-84505532D01*
X97951296Y-84466862D01*
X97970346Y-84431223D01*
X97995983Y-84399983D01*
X98027223Y-84374346D01*
X98062862Y-84355296D01*
X98101532Y-84343565D01*
X98147888Y-84339000D01*
X98799112Y-84339000D01*
X98845468Y-84343565D01*
G37*
G36*
X102655468Y-84343565D02*
G01*
X102694138Y-84355296D01*
X102729777Y-84374346D01*
X102761017Y-84399983D01*
X102786654Y-84431223D01*
X102805704Y-84466862D01*
X102817435Y-84505532D01*
X102822000Y-84551888D01*
X102822000Y-85628112D01*
X102817435Y-85674468D01*
X102805704Y-85713138D01*
X102786654Y-85748777D01*
X102761017Y-85780017D01*
X102729777Y-85805654D01*
X102694138Y-85824704D01*
X102655468Y-85836435D01*
X102609112Y-85841000D01*
X101957888Y-85841000D01*
X101911532Y-85836435D01*
X101872862Y-85824704D01*
X101837223Y-85805654D01*
X101805983Y-85780017D01*
X101780346Y-85748777D01*
X101761296Y-85713138D01*
X101749565Y-85674468D01*
X101745000Y-85628112D01*
X101745000Y-84551888D01*
X101749565Y-84505532D01*
X101761296Y-84466862D01*
X101780346Y-84431223D01*
X101805983Y-84399983D01*
X101837223Y-84374346D01*
X101872862Y-84355296D01*
X101911532Y-84343565D01*
X101957888Y-84339000D01*
X102609112Y-84339000D01*
X102655468Y-84343565D01*
G37*
G36*
X100780468Y-84343565D02*
G01*
X100819138Y-84355296D01*
X100854777Y-84374346D01*
X100886017Y-84399983D01*
X100911654Y-84431223D01*
X100930704Y-84466862D01*
X100942435Y-84505532D01*
X100947000Y-84551888D01*
X100947000Y-85628112D01*
X100942435Y-85674468D01*
X100930704Y-85713138D01*
X100911654Y-85748777D01*
X100886017Y-85780017D01*
X100854777Y-85805654D01*
X100819138Y-85824704D01*
X100780468Y-85836435D01*
X100734112Y-85841000D01*
X100082888Y-85841000D01*
X100036532Y-85836435D01*
X99997862Y-85824704D01*
X99962223Y-85805654D01*
X99930983Y-85780017D01*
X99905346Y-85748777D01*
X99886296Y-85713138D01*
X99874565Y-85674468D01*
X99870000Y-85628112D01*
X99870000Y-84551888D01*
X99874565Y-84505532D01*
X99886296Y-84466862D01*
X99905346Y-84431223D01*
X99930983Y-84399983D01*
X99962223Y-84374346D01*
X99997862Y-84355296D01*
X100036532Y-84343565D01*
X100082888Y-84339000D01*
X100734112Y-84339000D01*
X100780468Y-84343565D01*
G37*
G36*
X96970468Y-84343565D02*
G01*
X97009138Y-84355296D01*
X97044777Y-84374346D01*
X97076017Y-84399983D01*
X97101654Y-84431223D01*
X97120704Y-84466862D01*
X97132435Y-84505532D01*
X97137000Y-84551888D01*
X97137000Y-85628112D01*
X97132435Y-85674468D01*
X97120704Y-85713138D01*
X97101654Y-85748777D01*
X97076017Y-85780017D01*
X97044777Y-85805654D01*
X97009138Y-85824704D01*
X96970468Y-85836435D01*
X96924112Y-85841000D01*
X96272888Y-85841000D01*
X96226532Y-85836435D01*
X96187862Y-85824704D01*
X96152223Y-85805654D01*
X96120983Y-85780017D01*
X96095346Y-85748777D01*
X96076296Y-85713138D01*
X96064565Y-85674468D01*
X96060000Y-85628112D01*
X96060000Y-84551888D01*
X96064565Y-84505532D01*
X96076296Y-84466862D01*
X96095346Y-84431223D01*
X96120983Y-84399983D01*
X96152223Y-84374346D01*
X96187862Y-84355296D01*
X96226532Y-84343565D01*
X96272888Y-84339000D01*
X96924112Y-84339000D01*
X96970468Y-84343565D01*
G37*
G36*
X116154468Y-83461565D02*
G01*
X116193138Y-83473296D01*
X116228777Y-83492346D01*
X116260017Y-83517983D01*
X116285654Y-83549223D01*
X116304704Y-83584862D01*
X116316435Y-83623532D01*
X116321000Y-83669888D01*
X116321000Y-84321112D01*
X116316435Y-84367468D01*
X116304704Y-84406138D01*
X116285654Y-84441777D01*
X116260017Y-84473017D01*
X116228777Y-84498654D01*
X116193138Y-84517704D01*
X116154468Y-84529435D01*
X116108112Y-84534000D01*
X115031888Y-84534000D01*
X114985532Y-84529435D01*
X114946862Y-84517704D01*
X114911223Y-84498654D01*
X114879983Y-84473017D01*
X114854346Y-84441777D01*
X114835296Y-84406138D01*
X114823565Y-84367468D01*
X114819000Y-84321112D01*
X114819000Y-83669888D01*
X114823565Y-83623532D01*
X114835296Y-83584862D01*
X114854346Y-83549223D01*
X114879983Y-83517983D01*
X114911223Y-83492346D01*
X114946862Y-83473296D01*
X114985532Y-83461565D01*
X115031888Y-83457000D01*
X116108112Y-83457000D01*
X116154468Y-83461565D01*
G37*
G36*
X109966999Y-83733998D02*
G01*
X109164999Y-83733998D01*
X109164999Y-82382002D01*
X109966999Y-82382002D01*
X109966999Y-83733998D01*
G37*
G36*
X108726999Y-82757002D02*
G01*
X108729401Y-82781388D01*
X108736514Y-82804837D01*
X108748065Y-82826448D01*
X108763610Y-82845390D01*
X108767001Y-82848173D01*
X108767001Y-83733998D01*
X107965001Y-83733998D01*
X107965001Y-82858999D01*
X107964999Y-82858979D01*
X107964999Y-82382002D01*
X108726999Y-82382002D01*
X108726999Y-82757002D01*
G37*
G36*
X100406468Y-81937565D02*
G01*
X100445138Y-81949296D01*
X100480777Y-81968346D01*
X100512017Y-81993983D01*
X100537654Y-82025223D01*
X100556704Y-82060862D01*
X100568435Y-82099532D01*
X100573000Y-82145888D01*
X100573000Y-82797112D01*
X100568435Y-82843468D01*
X100556704Y-82882138D01*
X100537654Y-82917777D01*
X100512017Y-82949017D01*
X100480777Y-82974654D01*
X100445138Y-82993704D01*
X100406468Y-83005435D01*
X100360112Y-83010000D01*
X99283888Y-83010000D01*
X99237532Y-83005435D01*
X99198862Y-82993704D01*
X99163223Y-82974654D01*
X99131983Y-82949017D01*
X99106346Y-82917777D01*
X99087296Y-82882138D01*
X99075565Y-82843468D01*
X99071000Y-82797112D01*
X99071000Y-82145888D01*
X99075565Y-82099532D01*
X99087296Y-82060862D01*
X99106346Y-82025223D01*
X99131983Y-81993983D01*
X99163223Y-81968346D01*
X99198862Y-81949296D01*
X99237532Y-81937565D01*
X99283888Y-81933000D01*
X100360112Y-81933000D01*
X100406468Y-81937565D01*
G37*
G36*
X97358468Y-81937565D02*
G01*
X97397138Y-81949296D01*
X97432777Y-81968346D01*
X97464017Y-81993983D01*
X97489654Y-82025223D01*
X97508704Y-82060862D01*
X97520435Y-82099532D01*
X97525000Y-82145888D01*
X97525000Y-82797112D01*
X97520435Y-82843468D01*
X97508704Y-82882138D01*
X97489654Y-82917777D01*
X97464017Y-82949017D01*
X97432777Y-82974654D01*
X97397138Y-82993704D01*
X97358468Y-83005435D01*
X97312112Y-83010000D01*
X96235888Y-83010000D01*
X96189532Y-83005435D01*
X96150862Y-82993704D01*
X96115223Y-82974654D01*
X96083983Y-82949017D01*
X96058346Y-82917777D01*
X96039296Y-82882138D01*
X96027565Y-82843468D01*
X96023000Y-82797112D01*
X96023000Y-82145888D01*
X96027565Y-82099532D01*
X96039296Y-82060862D01*
X96058346Y-82025223D01*
X96083983Y-81993983D01*
X96115223Y-81968346D01*
X96150862Y-81949296D01*
X96189532Y-81937565D01*
X96235888Y-81933000D01*
X97312112Y-81933000D01*
X97358468Y-81937565D01*
G37*
G36*
X135507393Y-80283304D02*
G01*
X135721767Y-80372101D01*
X135744103Y-80381353D01*
X135957135Y-80523696D01*
X136138304Y-80704865D01*
X136255139Y-80879722D01*
X136280648Y-80917899D01*
X136378696Y-81154607D01*
X136428680Y-81405893D01*
X136428680Y-81662107D01*
X136378696Y-81913393D01*
X136345314Y-81993983D01*
X136280647Y-82150103D01*
X136138304Y-82363135D01*
X135957135Y-82544304D01*
X135744103Y-82686647D01*
X135744102Y-82686648D01*
X135744101Y-82686648D01*
X135507393Y-82784696D01*
X135256107Y-82834680D01*
X134999893Y-82834680D01*
X134748607Y-82784696D01*
X134511899Y-82686648D01*
X134511898Y-82686648D01*
X134511897Y-82686647D01*
X134298865Y-82544304D01*
X134117696Y-82363135D01*
X133975353Y-82150103D01*
X133910686Y-81993983D01*
X133877304Y-81913393D01*
X133827320Y-81662107D01*
X133827320Y-81405893D01*
X133877304Y-81154607D01*
X133975352Y-80917899D01*
X134000861Y-80879722D01*
X134117696Y-80704865D01*
X134298865Y-80523696D01*
X134511897Y-80381353D01*
X134534233Y-80372101D01*
X134748607Y-80283304D01*
X134999893Y-80233320D01*
X135256107Y-80233320D01*
X135507393Y-80283304D01*
G37*
G36*
X116154468Y-81586565D02*
G01*
X116193138Y-81598296D01*
X116228777Y-81617346D01*
X116260017Y-81642983D01*
X116285654Y-81674223D01*
X116304704Y-81709862D01*
X116316435Y-81748532D01*
X116321000Y-81794888D01*
X116321000Y-82446112D01*
X116316435Y-82492468D01*
X116304704Y-82531138D01*
X116285654Y-82566777D01*
X116260017Y-82598017D01*
X116228777Y-82623654D01*
X116193138Y-82642704D01*
X116154468Y-82654435D01*
X116108112Y-82659000D01*
X115031888Y-82659000D01*
X114985532Y-82654435D01*
X114946862Y-82642704D01*
X114911223Y-82623654D01*
X114879983Y-82598017D01*
X114854346Y-82566777D01*
X114835296Y-82531138D01*
X114823565Y-82492468D01*
X114819000Y-82446112D01*
X114819000Y-81794888D01*
X114823565Y-81748532D01*
X114835296Y-81709862D01*
X114854346Y-81674223D01*
X114879983Y-81642983D01*
X114911223Y-81617346D01*
X114946862Y-81598296D01*
X114985532Y-81586565D01*
X115031888Y-81582000D01*
X116108112Y-81582000D01*
X116154468Y-81586565D01*
G37*
G36*
X119202468Y-81429565D02*
G01*
X119241138Y-81441296D01*
X119276777Y-81460346D01*
X119308017Y-81485983D01*
X119333654Y-81517223D01*
X119352704Y-81552862D01*
X119364435Y-81591532D01*
X119369000Y-81637888D01*
X119369000Y-82289112D01*
X119364435Y-82335468D01*
X119352704Y-82374138D01*
X119333654Y-82409777D01*
X119308017Y-82441017D01*
X119276777Y-82466654D01*
X119241138Y-82485704D01*
X119202468Y-82497435D01*
X119156112Y-82502000D01*
X118079888Y-82502000D01*
X118033532Y-82497435D01*
X117994862Y-82485704D01*
X117959223Y-82466654D01*
X117927983Y-82441017D01*
X117902346Y-82409777D01*
X117883296Y-82374138D01*
X117871565Y-82335468D01*
X117867000Y-82289112D01*
X117867000Y-81637888D01*
X117871565Y-81591532D01*
X117883296Y-81552862D01*
X117902346Y-81517223D01*
X117927983Y-81485983D01*
X117959223Y-81460346D01*
X117994862Y-81441296D01*
X118033532Y-81429565D01*
X118079888Y-81425000D01*
X119156112Y-81425000D01*
X119202468Y-81429565D01*
G37*
G36*
X92532468Y-80667565D02*
G01*
X92571138Y-80679296D01*
X92606777Y-80698346D01*
X92638017Y-80723983D01*
X92663654Y-80755223D01*
X92682704Y-80790862D01*
X92694435Y-80829532D01*
X92699000Y-80875888D01*
X92699000Y-81527112D01*
X92694435Y-81573468D01*
X92682704Y-81612138D01*
X92663654Y-81647777D01*
X92638017Y-81679017D01*
X92606777Y-81704654D01*
X92571138Y-81723704D01*
X92532468Y-81735435D01*
X92486112Y-81740000D01*
X91409888Y-81740000D01*
X91363532Y-81735435D01*
X91324862Y-81723704D01*
X91289223Y-81704654D01*
X91257983Y-81679017D01*
X91232346Y-81647777D01*
X91213296Y-81612138D01*
X91201565Y-81573468D01*
X91197000Y-81527112D01*
X91197000Y-80875888D01*
X91201565Y-80829532D01*
X91213296Y-80790862D01*
X91232346Y-80755223D01*
X91257983Y-80723983D01*
X91289223Y-80698346D01*
X91324862Y-80679296D01*
X91363532Y-80667565D01*
X91409888Y-80663000D01*
X92486112Y-80663000D01*
X92532468Y-80667565D01*
G37*
G36*
X106876468Y-79771565D02*
G01*
X106915138Y-79783296D01*
X106950777Y-79802346D01*
X106982017Y-79827983D01*
X107007654Y-79859223D01*
X107026704Y-79894862D01*
X107038435Y-79933532D01*
X107043000Y-79979888D01*
X107043000Y-81056112D01*
X107038435Y-81102468D01*
X107026704Y-81141138D01*
X107007654Y-81176777D01*
X106982017Y-81208017D01*
X106950777Y-81233654D01*
X106915138Y-81252704D01*
X106876468Y-81264435D01*
X106830112Y-81269000D01*
X106178888Y-81269000D01*
X106132532Y-81264435D01*
X106093862Y-81252704D01*
X106058223Y-81233654D01*
X106026983Y-81208017D01*
X106001346Y-81176777D01*
X105982296Y-81141138D01*
X105970565Y-81102468D01*
X105966000Y-81056112D01*
X105966000Y-79979888D01*
X105970565Y-79933532D01*
X105982296Y-79894862D01*
X106001346Y-79859223D01*
X106026983Y-79827983D01*
X106058223Y-79802346D01*
X106093862Y-79783296D01*
X106132532Y-79771565D01*
X106178888Y-79767000D01*
X106830112Y-79767000D01*
X106876468Y-79771565D01*
G37*
G36*
X108751468Y-79771565D02*
G01*
X108790138Y-79783296D01*
X108825777Y-79802346D01*
X108857017Y-79827983D01*
X108882654Y-79859223D01*
X108901704Y-79894862D01*
X108913435Y-79933532D01*
X108918000Y-79979888D01*
X108918000Y-81056112D01*
X108913435Y-81102468D01*
X108901704Y-81141138D01*
X108882654Y-81176777D01*
X108857017Y-81208017D01*
X108825777Y-81233654D01*
X108790138Y-81252704D01*
X108751468Y-81264435D01*
X108705112Y-81269000D01*
X108053888Y-81269000D01*
X108007532Y-81264435D01*
X107968862Y-81252704D01*
X107933223Y-81233654D01*
X107901983Y-81208017D01*
X107876346Y-81176777D01*
X107857296Y-81141138D01*
X107845565Y-81102468D01*
X107841000Y-81056112D01*
X107841000Y-79979888D01*
X107845565Y-79933532D01*
X107857296Y-79894862D01*
X107876346Y-79859223D01*
X107901983Y-79827983D01*
X107933223Y-79802346D01*
X107968862Y-79783296D01*
X108007532Y-79771565D01*
X108053888Y-79767000D01*
X108705112Y-79767000D01*
X108751468Y-79771565D01*
G37*
G36*
X97358468Y-80062565D02*
G01*
X97397138Y-80074296D01*
X97432777Y-80093346D01*
X97464017Y-80118983D01*
X97489654Y-80150223D01*
X97508704Y-80185862D01*
X97520435Y-80224532D01*
X97525000Y-80270888D01*
X97525000Y-80922112D01*
X97520435Y-80968468D01*
X97508704Y-81007138D01*
X97489654Y-81042777D01*
X97464017Y-81074017D01*
X97432777Y-81099654D01*
X97397138Y-81118704D01*
X97358468Y-81130435D01*
X97312112Y-81135000D01*
X96235888Y-81135000D01*
X96189532Y-81130435D01*
X96150862Y-81118704D01*
X96115223Y-81099654D01*
X96083983Y-81074017D01*
X96058346Y-81042777D01*
X96039296Y-81007138D01*
X96027565Y-80968468D01*
X96023000Y-80922112D01*
X96023000Y-80270888D01*
X96027565Y-80224532D01*
X96039296Y-80185862D01*
X96058346Y-80150223D01*
X96083983Y-80118983D01*
X96115223Y-80093346D01*
X96150862Y-80074296D01*
X96189532Y-80062565D01*
X96235888Y-80058000D01*
X97312112Y-80058000D01*
X97358468Y-80062565D01*
G37*
G36*
X100406468Y-80062565D02*
G01*
X100445138Y-80074296D01*
X100480777Y-80093346D01*
X100512017Y-80118983D01*
X100537654Y-80150223D01*
X100556704Y-80185862D01*
X100568435Y-80224532D01*
X100573000Y-80270888D01*
X100573000Y-80922112D01*
X100568435Y-80968468D01*
X100556704Y-81007138D01*
X100537654Y-81042777D01*
X100512017Y-81074017D01*
X100480777Y-81099654D01*
X100445138Y-81118704D01*
X100406468Y-81130435D01*
X100360112Y-81135000D01*
X99283888Y-81135000D01*
X99237532Y-81130435D01*
X99198862Y-81118704D01*
X99163223Y-81099654D01*
X99131983Y-81074017D01*
X99106346Y-81042777D01*
X99087296Y-81007138D01*
X99075565Y-80968468D01*
X99071000Y-80922112D01*
X99071000Y-80270888D01*
X99075565Y-80224532D01*
X99087296Y-80185862D01*
X99106346Y-80150223D01*
X99131983Y-80118983D01*
X99163223Y-80093346D01*
X99198862Y-80074296D01*
X99237532Y-80062565D01*
X99283888Y-80058000D01*
X100360112Y-80058000D01*
X100406468Y-80062565D01*
G37*
G36*
X71245393Y-78505304D02*
G01*
X71476756Y-78601138D01*
X71482103Y-78603353D01*
X71695135Y-78745696D01*
X71876304Y-78926865D01*
X71894790Y-78954532D01*
X72018648Y-79139899D01*
X72116696Y-79376607D01*
X72166680Y-79627893D01*
X72166680Y-79884107D01*
X72116696Y-80135393D01*
X72037226Y-80327250D01*
X72018647Y-80372103D01*
X71876304Y-80585135D01*
X71695135Y-80766304D01*
X71482103Y-80908647D01*
X71482102Y-80908648D01*
X71482101Y-80908648D01*
X71245393Y-81006696D01*
X70994107Y-81056680D01*
X70737893Y-81056680D01*
X70486607Y-81006696D01*
X70249899Y-80908648D01*
X70249898Y-80908648D01*
X70249897Y-80908647D01*
X70036865Y-80766304D01*
X69855696Y-80585135D01*
X69713353Y-80372103D01*
X69694774Y-80327250D01*
X69615304Y-80135393D01*
X69565320Y-79884107D01*
X69565320Y-79627893D01*
X69615304Y-79376607D01*
X69713352Y-79139899D01*
X69837210Y-78954532D01*
X69855696Y-78926865D01*
X70036865Y-78745696D01*
X70249897Y-78603353D01*
X70255244Y-78601138D01*
X70486607Y-78505304D01*
X70737893Y-78455320D01*
X70994107Y-78455320D01*
X71245393Y-78505304D01*
G37*
G36*
X119202468Y-79554565D02*
G01*
X119241138Y-79566296D01*
X119276777Y-79585346D01*
X119308017Y-79610983D01*
X119333654Y-79642223D01*
X119352704Y-79677862D01*
X119364435Y-79716532D01*
X119369000Y-79762888D01*
X119369000Y-80414112D01*
X119364435Y-80460468D01*
X119352704Y-80499138D01*
X119333654Y-80534777D01*
X119308017Y-80566017D01*
X119276777Y-80591654D01*
X119241138Y-80610704D01*
X119202468Y-80622435D01*
X119156112Y-80627000D01*
X118079888Y-80627000D01*
X118033532Y-80622435D01*
X117994862Y-80610704D01*
X117959223Y-80591654D01*
X117927983Y-80566017D01*
X117902346Y-80534777D01*
X117883296Y-80499138D01*
X117871565Y-80460468D01*
X117867000Y-80414112D01*
X117867000Y-79762888D01*
X117871565Y-79716532D01*
X117883296Y-79677862D01*
X117902346Y-79642223D01*
X117927983Y-79610983D01*
X117959223Y-79585346D01*
X117994862Y-79566296D01*
X118033532Y-79554565D01*
X118079888Y-79550000D01*
X119156112Y-79550000D01*
X119202468Y-79554565D01*
G37*
G36*
X92532468Y-78792565D02*
G01*
X92571138Y-78804296D01*
X92606777Y-78823346D01*
X92638017Y-78848983D01*
X92663654Y-78880223D01*
X92682704Y-78915862D01*
X92694435Y-78954532D01*
X92699000Y-79000888D01*
X92699000Y-79652112D01*
X92694435Y-79698468D01*
X92682704Y-79737138D01*
X92663654Y-79772777D01*
X92638017Y-79804017D01*
X92606777Y-79829654D01*
X92571138Y-79848704D01*
X92532468Y-79860435D01*
X92486112Y-79865000D01*
X91409888Y-79865000D01*
X91363532Y-79860435D01*
X91324862Y-79848704D01*
X91289223Y-79829654D01*
X91257983Y-79804017D01*
X91232346Y-79772777D01*
X91213296Y-79737138D01*
X91201565Y-79698468D01*
X91197000Y-79652112D01*
X91197000Y-79000888D01*
X91201565Y-78954532D01*
X91213296Y-78915862D01*
X91232346Y-78880223D01*
X91257983Y-78848983D01*
X91289223Y-78823346D01*
X91324862Y-78804296D01*
X91363532Y-78792565D01*
X91409888Y-78788000D01*
X92486112Y-78788000D01*
X92532468Y-78792565D01*
G37*
G36*
X101893468Y-77231565D02*
G01*
X101932138Y-77243296D01*
X101967777Y-77262346D01*
X101999017Y-77287983D01*
X102024654Y-77319223D01*
X102043704Y-77354862D01*
X102055435Y-77393532D01*
X102060000Y-77439888D01*
X102060000Y-78516112D01*
X102055435Y-78562468D01*
X102043704Y-78601138D01*
X102024654Y-78636777D01*
X101999017Y-78668017D01*
X101967777Y-78693654D01*
X101932138Y-78712704D01*
X101893468Y-78724435D01*
X101847112Y-78729000D01*
X101195888Y-78729000D01*
X101149532Y-78724435D01*
X101110862Y-78712704D01*
X101075223Y-78693654D01*
X101043983Y-78668017D01*
X101018346Y-78636777D01*
X100999296Y-78601138D01*
X100987565Y-78562468D01*
X100983000Y-78516112D01*
X100983000Y-77439888D01*
X100987565Y-77393532D01*
X100999296Y-77354862D01*
X101018346Y-77319223D01*
X101043983Y-77287983D01*
X101075223Y-77262346D01*
X101110862Y-77243296D01*
X101149532Y-77231565D01*
X101195888Y-77227000D01*
X101847112Y-77227000D01*
X101893468Y-77231565D01*
G37*
G36*
X100018468Y-77231565D02*
G01*
X100057138Y-77243296D01*
X100092777Y-77262346D01*
X100124017Y-77287983D01*
X100149654Y-77319223D01*
X100168704Y-77354862D01*
X100180435Y-77393532D01*
X100185000Y-77439888D01*
X100185000Y-78516112D01*
X100180435Y-78562468D01*
X100168704Y-78601138D01*
X100149654Y-78636777D01*
X100124017Y-78668017D01*
X100092777Y-78693654D01*
X100057138Y-78712704D01*
X100018468Y-78724435D01*
X99972112Y-78729000D01*
X99320888Y-78729000D01*
X99274532Y-78724435D01*
X99235862Y-78712704D01*
X99200223Y-78693654D01*
X99168983Y-78668017D01*
X99143346Y-78636777D01*
X99124296Y-78601138D01*
X99112565Y-78562468D01*
X99108000Y-78516112D01*
X99108000Y-77439888D01*
X99112565Y-77393532D01*
X99124296Y-77354862D01*
X99143346Y-77319223D01*
X99168983Y-77287983D01*
X99200223Y-77262346D01*
X99235862Y-77243296D01*
X99274532Y-77231565D01*
X99320888Y-77227000D01*
X99972112Y-77227000D01*
X100018468Y-77231565D01*
G37*
G36*
X82259059Y-77255860D02*
G01*
X82298935Y-77272377D01*
X82395732Y-77312472D01*
X82518735Y-77394660D01*
X82623340Y-77499265D01*
X82705528Y-77622268D01*
X82705529Y-77622270D01*
X82762140Y-77758941D01*
X82789135Y-77894654D01*
X82791000Y-77904033D01*
X82791000Y-78051967D01*
X82762140Y-78197059D01*
X82705528Y-78333732D01*
X82623340Y-78456735D01*
X82518735Y-78561340D01*
X82395732Y-78643528D01*
X82395731Y-78643529D01*
X82395730Y-78643529D01*
X82259059Y-78700140D01*
X82113968Y-78729000D01*
X81966032Y-78729000D01*
X81820941Y-78700140D01*
X81684270Y-78643529D01*
X81684269Y-78643529D01*
X81684268Y-78643528D01*
X81561265Y-78561340D01*
X81456660Y-78456735D01*
X81374472Y-78333732D01*
X81317860Y-78197059D01*
X81289000Y-78051967D01*
X81289000Y-77904033D01*
X81290866Y-77894654D01*
X81317860Y-77758941D01*
X81374471Y-77622270D01*
X81374472Y-77622268D01*
X81456660Y-77499265D01*
X81561265Y-77394660D01*
X81684268Y-77312472D01*
X81781066Y-77272377D01*
X81820941Y-77255860D01*
X81966032Y-77227000D01*
X82113968Y-77227000D01*
X82259059Y-77255860D01*
G37*
G36*
X79491000Y-78729000D02*
G01*
X77989000Y-78729000D01*
X77989000Y-77227000D01*
X79491000Y-77227000D01*
X79491000Y-78729000D01*
G37*
G36*
X87923468Y-76977565D02*
G01*
X87962138Y-76989296D01*
X87997777Y-77008346D01*
X88029017Y-77033983D01*
X88054654Y-77065223D01*
X88073704Y-77100862D01*
X88085435Y-77139532D01*
X88090000Y-77185888D01*
X88090000Y-78262112D01*
X88085435Y-78308468D01*
X88073704Y-78347138D01*
X88054654Y-78382777D01*
X88029017Y-78414017D01*
X87997777Y-78439654D01*
X87962138Y-78458704D01*
X87923468Y-78470435D01*
X87877112Y-78475000D01*
X87225888Y-78475000D01*
X87179532Y-78470435D01*
X87140862Y-78458704D01*
X87105223Y-78439654D01*
X87073983Y-78414017D01*
X87048346Y-78382777D01*
X87029296Y-78347138D01*
X87017565Y-78308468D01*
X87013000Y-78262112D01*
X87013000Y-77185888D01*
X87017565Y-77139532D01*
X87029296Y-77100862D01*
X87048346Y-77065223D01*
X87073983Y-77033983D01*
X87105223Y-77008346D01*
X87140862Y-76989296D01*
X87179532Y-76977565D01*
X87225888Y-76973000D01*
X87877112Y-76973000D01*
X87923468Y-76977565D01*
G37*
G36*
X86048468Y-76977565D02*
G01*
X86087138Y-76989296D01*
X86122777Y-77008346D01*
X86154017Y-77033983D01*
X86179654Y-77065223D01*
X86198704Y-77100862D01*
X86210435Y-77139532D01*
X86215000Y-77185888D01*
X86215000Y-78262112D01*
X86210435Y-78308468D01*
X86198704Y-78347138D01*
X86179654Y-78382777D01*
X86154017Y-78414017D01*
X86122777Y-78439654D01*
X86087138Y-78458704D01*
X86048468Y-78470435D01*
X86002112Y-78475000D01*
X85350888Y-78475000D01*
X85304532Y-78470435D01*
X85265862Y-78458704D01*
X85230223Y-78439654D01*
X85198983Y-78414017D01*
X85173346Y-78382777D01*
X85154296Y-78347138D01*
X85142565Y-78308468D01*
X85138000Y-78262112D01*
X85138000Y-77185888D01*
X85142565Y-77139532D01*
X85154296Y-77100862D01*
X85173346Y-77065223D01*
X85198983Y-77033983D01*
X85230223Y-77008346D01*
X85265862Y-76989296D01*
X85304532Y-76977565D01*
X85350888Y-76973000D01*
X86002112Y-76973000D01*
X86048468Y-76977565D01*
G37*
G36*
X96281302Y-75403986D02*
G01*
X96288415Y-75427435D01*
X96299966Y-75449046D01*
X96315511Y-75467988D01*
X96334453Y-75483533D01*
X96356064Y-75495084D01*
X96379513Y-75502197D01*
X96403899Y-75504599D01*
X97167900Y-75504599D01*
X97167900Y-77911401D01*
X96403899Y-77911401D01*
X96379513Y-77913803D01*
X96356064Y-77920916D01*
X96334453Y-77932467D01*
X96315511Y-77948012D01*
X96299966Y-77966954D01*
X96288415Y-77988565D01*
X96281302Y-78012014D01*
X96280880Y-78016300D01*
X95235120Y-78016300D01*
X95234698Y-78012014D01*
X95227585Y-77988565D01*
X95216034Y-77966954D01*
X95200489Y-77948012D01*
X95181547Y-77932467D01*
X95159936Y-77920916D01*
X95136487Y-77913803D01*
X95112101Y-77911401D01*
X94348100Y-77911401D01*
X94348100Y-75504599D01*
X95112101Y-75504599D01*
X95136487Y-75502197D01*
X95159936Y-75495084D01*
X95181547Y-75483533D01*
X95200489Y-75467988D01*
X95216034Y-75449046D01*
X95227585Y-75427435D01*
X95234698Y-75403986D01*
X95235120Y-75399700D01*
X96280880Y-75399700D01*
X96281302Y-75403986D01*
G37*
G36*
X92532468Y-76857565D02*
G01*
X92571138Y-76869296D01*
X92606777Y-76888346D01*
X92638017Y-76913983D01*
X92663654Y-76945223D01*
X92682704Y-76980862D01*
X92694435Y-77019532D01*
X92699000Y-77065888D01*
X92699000Y-77717112D01*
X92694435Y-77763468D01*
X92682704Y-77802138D01*
X92663654Y-77837777D01*
X92638017Y-77869017D01*
X92606777Y-77894654D01*
X92571138Y-77913704D01*
X92532468Y-77925435D01*
X92486112Y-77930000D01*
X91409888Y-77930000D01*
X91363532Y-77925435D01*
X91324862Y-77913704D01*
X91289223Y-77894654D01*
X91257983Y-77869017D01*
X91232346Y-77837777D01*
X91213296Y-77802138D01*
X91201565Y-77763468D01*
X91197000Y-77717112D01*
X91197000Y-77065888D01*
X91201565Y-77019532D01*
X91213296Y-76980862D01*
X91232346Y-76945223D01*
X91257983Y-76913983D01*
X91289223Y-76888346D01*
X91324862Y-76869296D01*
X91363532Y-76857565D01*
X91409888Y-76853000D01*
X92486112Y-76853000D01*
X92532468Y-76857565D01*
G37*
G36*
X130341468Y-76215565D02*
G01*
X130380138Y-76227296D01*
X130415777Y-76246346D01*
X130447017Y-76271983D01*
X130472654Y-76303223D01*
X130491704Y-76338862D01*
X130503435Y-76377532D01*
X130508000Y-76423888D01*
X130508000Y-77500112D01*
X130503435Y-77546468D01*
X130491704Y-77585138D01*
X130472654Y-77620777D01*
X130447017Y-77652017D01*
X130415777Y-77677654D01*
X130380138Y-77696704D01*
X130341468Y-77708435D01*
X130295112Y-77713000D01*
X129643888Y-77713000D01*
X129597532Y-77708435D01*
X129558862Y-77696704D01*
X129523223Y-77677654D01*
X129491983Y-77652017D01*
X129466346Y-77620777D01*
X129447296Y-77585138D01*
X129435565Y-77546468D01*
X129431000Y-77500112D01*
X129431000Y-76423888D01*
X129435565Y-76377532D01*
X129447296Y-76338862D01*
X129466346Y-76303223D01*
X129491983Y-76271983D01*
X129523223Y-76246346D01*
X129558862Y-76227296D01*
X129597532Y-76215565D01*
X129643888Y-76211000D01*
X130295112Y-76211000D01*
X130341468Y-76215565D01*
G37*
G36*
X128466468Y-76215565D02*
G01*
X128505138Y-76227296D01*
X128540777Y-76246346D01*
X128572017Y-76271983D01*
X128597654Y-76303223D01*
X128616704Y-76338862D01*
X128628435Y-76377532D01*
X128633000Y-76423888D01*
X128633000Y-77500112D01*
X128628435Y-77546468D01*
X128616704Y-77585138D01*
X128597654Y-77620777D01*
X128572017Y-77652017D01*
X128540777Y-77677654D01*
X128505138Y-77696704D01*
X128466468Y-77708435D01*
X128420112Y-77713000D01*
X127768888Y-77713000D01*
X127722532Y-77708435D01*
X127683862Y-77696704D01*
X127648223Y-77677654D01*
X127616983Y-77652017D01*
X127591346Y-77620777D01*
X127572296Y-77585138D01*
X127560565Y-77546468D01*
X127556000Y-77500112D01*
X127556000Y-76423888D01*
X127560565Y-76377532D01*
X127572296Y-76338862D01*
X127591346Y-76303223D01*
X127616983Y-76271983D01*
X127648223Y-76246346D01*
X127683862Y-76227296D01*
X127722532Y-76215565D01*
X127768888Y-76211000D01*
X128420112Y-76211000D01*
X128466468Y-76215565D01*
G37*
G36*
X135507393Y-74695304D02*
G01*
X135738756Y-74791138D01*
X135744103Y-74793353D01*
X135957135Y-74935696D01*
X136138304Y-75116865D01*
X136280647Y-75329897D01*
X136280648Y-75329899D01*
X136378696Y-75566607D01*
X136428680Y-75817893D01*
X136428680Y-76074107D01*
X136378696Y-76325393D01*
X136314552Y-76480250D01*
X136280647Y-76562103D01*
X136138304Y-76775135D01*
X135957135Y-76956304D01*
X135744103Y-77098647D01*
X135744102Y-77098648D01*
X135744101Y-77098648D01*
X135507393Y-77196696D01*
X135256107Y-77246680D01*
X134999893Y-77246680D01*
X134748607Y-77196696D01*
X134511899Y-77098648D01*
X134511898Y-77098648D01*
X134511897Y-77098647D01*
X134298865Y-76956304D01*
X134117696Y-76775135D01*
X133975353Y-76562103D01*
X133941448Y-76480250D01*
X133877304Y-76325393D01*
X133827320Y-76074107D01*
X133827320Y-75817893D01*
X133877304Y-75566607D01*
X133975352Y-75329899D01*
X133975353Y-75329897D01*
X134117696Y-75116865D01*
X134298865Y-74935696D01*
X134511897Y-74793353D01*
X134517244Y-74791138D01*
X134748607Y-74695304D01*
X134999893Y-74645320D01*
X135256107Y-74645320D01*
X135507393Y-74695304D01*
G37*
G36*
X122504468Y-75333565D02*
G01*
X122543138Y-75345296D01*
X122578777Y-75364346D01*
X122610017Y-75389983D01*
X122635654Y-75421223D01*
X122654704Y-75456862D01*
X122666435Y-75495532D01*
X122671000Y-75541888D01*
X122671000Y-76193112D01*
X122666435Y-76239468D01*
X122654704Y-76278138D01*
X122635654Y-76313777D01*
X122610017Y-76345017D01*
X122578777Y-76370654D01*
X122543138Y-76389704D01*
X122504468Y-76401435D01*
X122458112Y-76406000D01*
X121381888Y-76406000D01*
X121335532Y-76401435D01*
X121296862Y-76389704D01*
X121261223Y-76370654D01*
X121229983Y-76345017D01*
X121204346Y-76313777D01*
X121185296Y-76278138D01*
X121173565Y-76239468D01*
X121169000Y-76193112D01*
X121169000Y-75541888D01*
X121173565Y-75495532D01*
X121185296Y-75456862D01*
X121204346Y-75421223D01*
X121229983Y-75389983D01*
X121261223Y-75364346D01*
X121296862Y-75345296D01*
X121335532Y-75333565D01*
X121381888Y-75329000D01*
X122458112Y-75329000D01*
X122504468Y-75333565D01*
G37*
G36*
X125806468Y-75333565D02*
G01*
X125845138Y-75345296D01*
X125880777Y-75364346D01*
X125912017Y-75389983D01*
X125937654Y-75421223D01*
X125956704Y-75456862D01*
X125968435Y-75495532D01*
X125973000Y-75541888D01*
X125973000Y-76193112D01*
X125968435Y-76239468D01*
X125956704Y-76278138D01*
X125937654Y-76313777D01*
X125912017Y-76345017D01*
X125880777Y-76370654D01*
X125845138Y-76389704D01*
X125806468Y-76401435D01*
X125760112Y-76406000D01*
X124683888Y-76406000D01*
X124637532Y-76401435D01*
X124598862Y-76389704D01*
X124563223Y-76370654D01*
X124531983Y-76345017D01*
X124506346Y-76313777D01*
X124487296Y-76278138D01*
X124475565Y-76239468D01*
X124471000Y-76193112D01*
X124471000Y-75541888D01*
X124475565Y-75495532D01*
X124487296Y-75456862D01*
X124506346Y-75421223D01*
X124531983Y-75389983D01*
X124563223Y-75364346D01*
X124598862Y-75345296D01*
X124637532Y-75333565D01*
X124683888Y-75329000D01*
X125760112Y-75329000D01*
X125806468Y-75333565D01*
G37*
G36*
X82259059Y-74755860D02*
G01*
X82364022Y-74799337D01*
X82395732Y-74812472D01*
X82518735Y-74894660D01*
X82623340Y-74999265D01*
X82701918Y-75116866D01*
X82705529Y-75122270D01*
X82762140Y-75258941D01*
X82791000Y-75404032D01*
X82791000Y-75551968D01*
X82762140Y-75697059D01*
X82717108Y-75805777D01*
X82705528Y-75833732D01*
X82623340Y-75956735D01*
X82518735Y-76061340D01*
X82395732Y-76143528D01*
X82395731Y-76143529D01*
X82395730Y-76143529D01*
X82259059Y-76200140D01*
X82113968Y-76229000D01*
X81966032Y-76229000D01*
X81820941Y-76200140D01*
X81684270Y-76143529D01*
X81684269Y-76143529D01*
X81684268Y-76143528D01*
X81561265Y-76061340D01*
X81456660Y-75956735D01*
X81374472Y-75833732D01*
X81362893Y-75805777D01*
X81317860Y-75697059D01*
X81289000Y-75551968D01*
X81289000Y-75404032D01*
X81317860Y-75258941D01*
X81374471Y-75122270D01*
X81378082Y-75116866D01*
X81456660Y-74999265D01*
X81561265Y-74894660D01*
X81684268Y-74812472D01*
X81715979Y-74799337D01*
X81820941Y-74755860D01*
X81966032Y-74727000D01*
X82113968Y-74727000D01*
X82259059Y-74755860D01*
G37*
G36*
X78959059Y-74755860D02*
G01*
X79064022Y-74799337D01*
X79095732Y-74812472D01*
X79218735Y-74894660D01*
X79323340Y-74999265D01*
X79401918Y-75116866D01*
X79405529Y-75122270D01*
X79462140Y-75258941D01*
X79491000Y-75404032D01*
X79491000Y-75551968D01*
X79462140Y-75697059D01*
X79417108Y-75805777D01*
X79405528Y-75833732D01*
X79323340Y-75956735D01*
X79218735Y-76061340D01*
X79095732Y-76143528D01*
X79095731Y-76143529D01*
X79095730Y-76143529D01*
X78959059Y-76200140D01*
X78813968Y-76229000D01*
X78666032Y-76229000D01*
X78520941Y-76200140D01*
X78384270Y-76143529D01*
X78384269Y-76143529D01*
X78384268Y-76143528D01*
X78261265Y-76061340D01*
X78156660Y-75956735D01*
X78074472Y-75833732D01*
X78062893Y-75805777D01*
X78017860Y-75697059D01*
X77989000Y-75551968D01*
X77989000Y-75404032D01*
X78017860Y-75258941D01*
X78074471Y-75122270D01*
X78078082Y-75116866D01*
X78156660Y-74999265D01*
X78261265Y-74894660D01*
X78384268Y-74812472D01*
X78415979Y-74799337D01*
X78520941Y-74755860D01*
X78666032Y-74727000D01*
X78813968Y-74727000D01*
X78959059Y-74755860D01*
G37*
G36*
X92532468Y-74982565D02*
G01*
X92571138Y-74994296D01*
X92606777Y-75013346D01*
X92638017Y-75038983D01*
X92663654Y-75070223D01*
X92682704Y-75105862D01*
X92694435Y-75144532D01*
X92699000Y-75190888D01*
X92699000Y-75842112D01*
X92694435Y-75888468D01*
X92682704Y-75927138D01*
X92663654Y-75962777D01*
X92638017Y-75994017D01*
X92606777Y-76019654D01*
X92571138Y-76038704D01*
X92532468Y-76050435D01*
X92486112Y-76055000D01*
X91409888Y-76055000D01*
X91363532Y-76050435D01*
X91324862Y-76038704D01*
X91289223Y-76019654D01*
X91257983Y-75994017D01*
X91232346Y-75962777D01*
X91213296Y-75927138D01*
X91201565Y-75888468D01*
X91197000Y-75842112D01*
X91197000Y-75190888D01*
X91201565Y-75144532D01*
X91213296Y-75105862D01*
X91232346Y-75070223D01*
X91257983Y-75038983D01*
X91289223Y-75013346D01*
X91324862Y-74994296D01*
X91363532Y-74982565D01*
X91409888Y-74978000D01*
X92486112Y-74978000D01*
X92532468Y-74982565D01*
G37*
G36*
X102692468Y-74825565D02*
G01*
X102731138Y-74837296D01*
X102766777Y-74856346D01*
X102798017Y-74881983D01*
X102823654Y-74913223D01*
X102842704Y-74948862D01*
X102854435Y-74987532D01*
X102859000Y-75033888D01*
X102859000Y-75685112D01*
X102854435Y-75731468D01*
X102842704Y-75770138D01*
X102823654Y-75805777D01*
X102798017Y-75837017D01*
X102766777Y-75862654D01*
X102731138Y-75881704D01*
X102692468Y-75893435D01*
X102646112Y-75898000D01*
X101569888Y-75898000D01*
X101523532Y-75893435D01*
X101484862Y-75881704D01*
X101449223Y-75862654D01*
X101417983Y-75837017D01*
X101392346Y-75805777D01*
X101373296Y-75770138D01*
X101361565Y-75731468D01*
X101357000Y-75685112D01*
X101357000Y-75033888D01*
X101361565Y-74987532D01*
X101373296Y-74948862D01*
X101392346Y-74913223D01*
X101417983Y-74881983D01*
X101449223Y-74856346D01*
X101484862Y-74837296D01*
X101523532Y-74825565D01*
X101569888Y-74821000D01*
X102646112Y-74821000D01*
X102692468Y-74825565D01*
G37*
G36*
X99898468Y-74825565D02*
G01*
X99937138Y-74837296D01*
X99972777Y-74856346D01*
X100004017Y-74881983D01*
X100029654Y-74913223D01*
X100048704Y-74948862D01*
X100060435Y-74987532D01*
X100065000Y-75033888D01*
X100065000Y-75685112D01*
X100060435Y-75731468D01*
X100048704Y-75770138D01*
X100029654Y-75805777D01*
X100004017Y-75837017D01*
X99972777Y-75862654D01*
X99937138Y-75881704D01*
X99898468Y-75893435D01*
X99852112Y-75898000D01*
X98775888Y-75898000D01*
X98729532Y-75893435D01*
X98690862Y-75881704D01*
X98655223Y-75862654D01*
X98623983Y-75837017D01*
X98598346Y-75805777D01*
X98579296Y-75770138D01*
X98567565Y-75731468D01*
X98563000Y-75685112D01*
X98563000Y-75033888D01*
X98567565Y-74987532D01*
X98579296Y-74948862D01*
X98598346Y-74913223D01*
X98623983Y-74881983D01*
X98655223Y-74856346D01*
X98690862Y-74837296D01*
X98729532Y-74825565D01*
X98775888Y-74821000D01*
X99852112Y-74821000D01*
X99898468Y-74825565D01*
G37*
G36*
X107581000Y-75831000D02*
G01*
X105779000Y-75831000D01*
X105779000Y-74029000D01*
X107581000Y-74029000D01*
X107581000Y-75831000D01*
G37*
G36*
X130341468Y-73421565D02*
G01*
X130380138Y-73433296D01*
X130415777Y-73452346D01*
X130447017Y-73477983D01*
X130472654Y-73509223D01*
X130491704Y-73544862D01*
X130503435Y-73583532D01*
X130508000Y-73629888D01*
X130508000Y-74706112D01*
X130503435Y-74752468D01*
X130491704Y-74791138D01*
X130472654Y-74826777D01*
X130447017Y-74858017D01*
X130415777Y-74883654D01*
X130380138Y-74902704D01*
X130341468Y-74914435D01*
X130295112Y-74919000D01*
X129643888Y-74919000D01*
X129597532Y-74914435D01*
X129558862Y-74902704D01*
X129523223Y-74883654D01*
X129491983Y-74858017D01*
X129466346Y-74826777D01*
X129447296Y-74791138D01*
X129435565Y-74752468D01*
X129431000Y-74706112D01*
X129431000Y-73629888D01*
X129435565Y-73583532D01*
X129447296Y-73544862D01*
X129466346Y-73509223D01*
X129491983Y-73477983D01*
X129523223Y-73452346D01*
X129558862Y-73433296D01*
X129597532Y-73421565D01*
X129643888Y-73417000D01*
X130295112Y-73417000D01*
X130341468Y-73421565D01*
G37*
G36*
X128466468Y-73421565D02*
G01*
X128505138Y-73433296D01*
X128540777Y-73452346D01*
X128572017Y-73477983D01*
X128597654Y-73509223D01*
X128616704Y-73544862D01*
X128628435Y-73583532D01*
X128633000Y-73629888D01*
X128633000Y-74706112D01*
X128628435Y-74752468D01*
X128616704Y-74791138D01*
X128597654Y-74826777D01*
X128572017Y-74858017D01*
X128540777Y-74883654D01*
X128505138Y-74902704D01*
X128466468Y-74914435D01*
X128420112Y-74919000D01*
X127768888Y-74919000D01*
X127722532Y-74914435D01*
X127683862Y-74902704D01*
X127648223Y-74883654D01*
X127616983Y-74858017D01*
X127591346Y-74826777D01*
X127572296Y-74791138D01*
X127560565Y-74752468D01*
X127556000Y-74706112D01*
X127556000Y-73629888D01*
X127560565Y-73583532D01*
X127572296Y-73544862D01*
X127591346Y-73509223D01*
X127616983Y-73477983D01*
X127648223Y-73452346D01*
X127683862Y-73433296D01*
X127722532Y-73421565D01*
X127768888Y-73417000D01*
X128420112Y-73417000D01*
X128466468Y-73421565D01*
G37*
G36*
X122504468Y-73458565D02*
G01*
X122543138Y-73470296D01*
X122578777Y-73489346D01*
X122610017Y-73514983D01*
X122635654Y-73546223D01*
X122654704Y-73581862D01*
X122666435Y-73620532D01*
X122671000Y-73666888D01*
X122671000Y-74318112D01*
X122666435Y-74364468D01*
X122654704Y-74403138D01*
X122635654Y-74438777D01*
X122610017Y-74470017D01*
X122578777Y-74495654D01*
X122543138Y-74514704D01*
X122504468Y-74526435D01*
X122458112Y-74531000D01*
X121381888Y-74531000D01*
X121335532Y-74526435D01*
X121296862Y-74514704D01*
X121261223Y-74495654D01*
X121229983Y-74470017D01*
X121204346Y-74438777D01*
X121185296Y-74403138D01*
X121173565Y-74364468D01*
X121169000Y-74318112D01*
X121169000Y-73666888D01*
X121173565Y-73620532D01*
X121185296Y-73581862D01*
X121204346Y-73546223D01*
X121229983Y-73514983D01*
X121261223Y-73489346D01*
X121296862Y-73470296D01*
X121335532Y-73458565D01*
X121381888Y-73454000D01*
X122458112Y-73454000D01*
X122504468Y-73458565D01*
G37*
G36*
X125806468Y-73458565D02*
G01*
X125845138Y-73470296D01*
X125880777Y-73489346D01*
X125912017Y-73514983D01*
X125937654Y-73546223D01*
X125956704Y-73581862D01*
X125968435Y-73620532D01*
X125973000Y-73666888D01*
X125973000Y-74318112D01*
X125968435Y-74364468D01*
X125956704Y-74403138D01*
X125937654Y-74438777D01*
X125912017Y-74470017D01*
X125880777Y-74495654D01*
X125845138Y-74514704D01*
X125806468Y-74526435D01*
X125760112Y-74531000D01*
X124683888Y-74531000D01*
X124637532Y-74526435D01*
X124598862Y-74514704D01*
X124563223Y-74495654D01*
X124531983Y-74470017D01*
X124506346Y-74438777D01*
X124487296Y-74403138D01*
X124475565Y-74364468D01*
X124471000Y-74318112D01*
X124471000Y-73666888D01*
X124475565Y-73620532D01*
X124487296Y-73581862D01*
X124506346Y-73546223D01*
X124531983Y-73514983D01*
X124563223Y-73489346D01*
X124598862Y-73470296D01*
X124637532Y-73458565D01*
X124683888Y-73454000D01*
X125760112Y-73454000D01*
X125806468Y-73458565D01*
G37*
G36*
X99898468Y-72950565D02*
G01*
X99937138Y-72962296D01*
X99972777Y-72981346D01*
X100004017Y-73006983D01*
X100029654Y-73038223D01*
X100048704Y-73073862D01*
X100060435Y-73112532D01*
X100065000Y-73158888D01*
X100065000Y-73810112D01*
X100060435Y-73856468D01*
X100048704Y-73895138D01*
X100029654Y-73930777D01*
X100004017Y-73962017D01*
X99972777Y-73987654D01*
X99937138Y-74006704D01*
X99898468Y-74018435D01*
X99852112Y-74023000D01*
X98775888Y-74023000D01*
X98729532Y-74018435D01*
X98690862Y-74006704D01*
X98655223Y-73987654D01*
X98623983Y-73962017D01*
X98598346Y-73930777D01*
X98579296Y-73895138D01*
X98567565Y-73856468D01*
X98563000Y-73810112D01*
X98563000Y-73158888D01*
X98567565Y-73112532D01*
X98579296Y-73073862D01*
X98598346Y-73038223D01*
X98623983Y-73006983D01*
X98655223Y-72981346D01*
X98690862Y-72962296D01*
X98729532Y-72950565D01*
X98775888Y-72946000D01*
X99852112Y-72946000D01*
X99898468Y-72950565D01*
G37*
G36*
X102692468Y-72950565D02*
G01*
X102731138Y-72962296D01*
X102766777Y-72981346D01*
X102798017Y-73006983D01*
X102823654Y-73038223D01*
X102842704Y-73073862D01*
X102854435Y-73112532D01*
X102859000Y-73158888D01*
X102859000Y-73810112D01*
X102854435Y-73856468D01*
X102842704Y-73895138D01*
X102823654Y-73930777D01*
X102798017Y-73962017D01*
X102766777Y-73987654D01*
X102731138Y-74006704D01*
X102692468Y-74018435D01*
X102646112Y-74023000D01*
X101569888Y-74023000D01*
X101523532Y-74018435D01*
X101484862Y-74006704D01*
X101449223Y-73987654D01*
X101417983Y-73962017D01*
X101392346Y-73930777D01*
X101373296Y-73895138D01*
X101361565Y-73856468D01*
X101357000Y-73810112D01*
X101357000Y-73158888D01*
X101361565Y-73112532D01*
X101373296Y-73073862D01*
X101392346Y-73038223D01*
X101417983Y-73006983D01*
X101449223Y-72981346D01*
X101484862Y-72962296D01*
X101523532Y-72950565D01*
X101569888Y-72946000D01*
X102646112Y-72946000D01*
X102692468Y-72950565D01*
G37*
G36*
X74110468Y-72405565D02*
G01*
X74149138Y-72417296D01*
X74184777Y-72436346D01*
X74216017Y-72461983D01*
X74241654Y-72493223D01*
X74260704Y-72528862D01*
X74272435Y-72567532D01*
X74277000Y-72613888D01*
X74277000Y-73690112D01*
X74272435Y-73736468D01*
X74260704Y-73775138D01*
X74241654Y-73810777D01*
X74216017Y-73842017D01*
X74184777Y-73867654D01*
X74149138Y-73886704D01*
X74110468Y-73898435D01*
X74064112Y-73903000D01*
X73412888Y-73903000D01*
X73366532Y-73898435D01*
X73327862Y-73886704D01*
X73292223Y-73867654D01*
X73260983Y-73842017D01*
X73235346Y-73810777D01*
X73216296Y-73775138D01*
X73204565Y-73736468D01*
X73200000Y-73690112D01*
X73200000Y-72613888D01*
X73204565Y-72567532D01*
X73216296Y-72528862D01*
X73235346Y-72493223D01*
X73260983Y-72461983D01*
X73292223Y-72436346D01*
X73327862Y-72417296D01*
X73366532Y-72405565D01*
X73412888Y-72401000D01*
X74064112Y-72401000D01*
X74110468Y-72405565D01*
G37*
G36*
X75985468Y-72405565D02*
G01*
X76024138Y-72417296D01*
X76059777Y-72436346D01*
X76091017Y-72461983D01*
X76116654Y-72493223D01*
X76135704Y-72528862D01*
X76147435Y-72567532D01*
X76152000Y-72613888D01*
X76152000Y-73690112D01*
X76147435Y-73736468D01*
X76135704Y-73775138D01*
X76116654Y-73810777D01*
X76091017Y-73842017D01*
X76059777Y-73867654D01*
X76024138Y-73886704D01*
X75985468Y-73898435D01*
X75939112Y-73903000D01*
X75287888Y-73903000D01*
X75241532Y-73898435D01*
X75202862Y-73886704D01*
X75167223Y-73867654D01*
X75135983Y-73842017D01*
X75110346Y-73810777D01*
X75091296Y-73775138D01*
X75079565Y-73736468D01*
X75075000Y-73690112D01*
X75075000Y-72613888D01*
X75079565Y-72567532D01*
X75091296Y-72528862D01*
X75110346Y-72493223D01*
X75135983Y-72461983D01*
X75167223Y-72436346D01*
X75202862Y-72417296D01*
X75241532Y-72405565D01*
X75287888Y-72401000D01*
X75939112Y-72401000D01*
X75985468Y-72405565D01*
G37*
G36*
X82259059Y-72255860D02*
G01*
X82395732Y-72312472D01*
X82518735Y-72394660D01*
X82623340Y-72499265D01*
X82702490Y-72617722D01*
X82705529Y-72622270D01*
X82762140Y-72758941D01*
X82791000Y-72904032D01*
X82791000Y-73051968D01*
X82762140Y-73197059D01*
X82737571Y-73256375D01*
X82705528Y-73333732D01*
X82623340Y-73456735D01*
X82518735Y-73561340D01*
X82395732Y-73643528D01*
X82395731Y-73643529D01*
X82395730Y-73643529D01*
X82259059Y-73700140D01*
X82113968Y-73729000D01*
X81966032Y-73729000D01*
X81820941Y-73700140D01*
X81684270Y-73643529D01*
X81684269Y-73643529D01*
X81684268Y-73643528D01*
X81561265Y-73561340D01*
X81456660Y-73456735D01*
X81374472Y-73333732D01*
X81342430Y-73256375D01*
X81317860Y-73197059D01*
X81289000Y-73051968D01*
X81289000Y-72904032D01*
X81317860Y-72758941D01*
X81374471Y-72622270D01*
X81377510Y-72617722D01*
X81456660Y-72499265D01*
X81561265Y-72394660D01*
X81684268Y-72312472D01*
X81820941Y-72255860D01*
X81966032Y-72227000D01*
X82113968Y-72227000D01*
X82259059Y-72255860D01*
G37*
G36*
X78959059Y-72255860D02*
G01*
X79095732Y-72312472D01*
X79218735Y-72394660D01*
X79323340Y-72499265D01*
X79402490Y-72617722D01*
X79405529Y-72622270D01*
X79462140Y-72758941D01*
X79491000Y-72904032D01*
X79491000Y-73051968D01*
X79462140Y-73197059D01*
X79437571Y-73256375D01*
X79405528Y-73333732D01*
X79323340Y-73456735D01*
X79218735Y-73561340D01*
X79095732Y-73643528D01*
X79095731Y-73643529D01*
X79095730Y-73643529D01*
X78959059Y-73700140D01*
X78813968Y-73729000D01*
X78666032Y-73729000D01*
X78520941Y-73700140D01*
X78384270Y-73643529D01*
X78384269Y-73643529D01*
X78384268Y-73643528D01*
X78261265Y-73561340D01*
X78156660Y-73456735D01*
X78074472Y-73333732D01*
X78042430Y-73256375D01*
X78017860Y-73197059D01*
X77989000Y-73051968D01*
X77989000Y-72904032D01*
X78017860Y-72758941D01*
X78074471Y-72622270D01*
X78077510Y-72617722D01*
X78156660Y-72499265D01*
X78261265Y-72394660D01*
X78384268Y-72312472D01*
X78520941Y-72255860D01*
X78666032Y-72227000D01*
X78813968Y-72227000D01*
X78959059Y-72255860D01*
G37*
G36*
X106793512Y-71493927D02*
G01*
X106942812Y-71523624D01*
X107106784Y-71591544D01*
X107254354Y-71690147D01*
X107379853Y-71815646D01*
X107478456Y-71963216D01*
X107546376Y-72127188D01*
X107571970Y-72255860D01*
X107581000Y-72301258D01*
X107581000Y-72478742D01*
X107576918Y-72499265D01*
X107546376Y-72652812D01*
X107478456Y-72816784D01*
X107379853Y-72964354D01*
X107254354Y-73089853D01*
X107106784Y-73188456D01*
X106942812Y-73256376D01*
X106793512Y-73286073D01*
X106768742Y-73291000D01*
X106591258Y-73291000D01*
X106566488Y-73286073D01*
X106417188Y-73256376D01*
X106253216Y-73188456D01*
X106105646Y-73089853D01*
X105980147Y-72964354D01*
X105881544Y-72816784D01*
X105813624Y-72652812D01*
X105783082Y-72499265D01*
X105779000Y-72478742D01*
X105779000Y-72301258D01*
X105788030Y-72255860D01*
X105813624Y-72127188D01*
X105881544Y-71963216D01*
X105980147Y-71815646D01*
X106105646Y-71690147D01*
X106253216Y-71591544D01*
X106417188Y-71523624D01*
X106566488Y-71493927D01*
X106591258Y-71489000D01*
X106768742Y-71489000D01*
X106793512Y-71493927D01*
G37*
G36*
X113577468Y-70881565D02*
G01*
X113616138Y-70893296D01*
X113651777Y-70912346D01*
X113683017Y-70937983D01*
X113708654Y-70969223D01*
X113727704Y-71004862D01*
X113739435Y-71043532D01*
X113744000Y-71089888D01*
X113744000Y-72166112D01*
X113739435Y-72212468D01*
X113727704Y-72251138D01*
X113708654Y-72286777D01*
X113683017Y-72318017D01*
X113651777Y-72343654D01*
X113616138Y-72362704D01*
X113577468Y-72374435D01*
X113531112Y-72379000D01*
X112879888Y-72379000D01*
X112833532Y-72374435D01*
X112794862Y-72362704D01*
X112759223Y-72343654D01*
X112727983Y-72318017D01*
X112702346Y-72286777D01*
X112683296Y-72251138D01*
X112671565Y-72212468D01*
X112667000Y-72166112D01*
X112667000Y-71089888D01*
X112671565Y-71043532D01*
X112683296Y-71004862D01*
X112702346Y-70969223D01*
X112727983Y-70937983D01*
X112759223Y-70912346D01*
X112794862Y-70893296D01*
X112833532Y-70881565D01*
X112879888Y-70877000D01*
X113531112Y-70877000D01*
X113577468Y-70881565D01*
G37*
G36*
X111702468Y-70881565D02*
G01*
X111741138Y-70893296D01*
X111776777Y-70912346D01*
X111808017Y-70937983D01*
X111833654Y-70969223D01*
X111852704Y-71004862D01*
X111864435Y-71043532D01*
X111869000Y-71089888D01*
X111869000Y-72166112D01*
X111864435Y-72212468D01*
X111852704Y-72251138D01*
X111833654Y-72286777D01*
X111808017Y-72318017D01*
X111776777Y-72343654D01*
X111741138Y-72362704D01*
X111702468Y-72374435D01*
X111656112Y-72379000D01*
X111004888Y-72379000D01*
X110958532Y-72374435D01*
X110919862Y-72362704D01*
X110884223Y-72343654D01*
X110852983Y-72318017D01*
X110827346Y-72286777D01*
X110808296Y-72251138D01*
X110796565Y-72212468D01*
X110792000Y-72166112D01*
X110792000Y-71089888D01*
X110796565Y-71043532D01*
X110808296Y-71004862D01*
X110827346Y-70969223D01*
X110852983Y-70937983D01*
X110884223Y-70912346D01*
X110919862Y-70893296D01*
X110958532Y-70881565D01*
X111004888Y-70877000D01*
X111656112Y-70877000D01*
X111702468Y-70881565D01*
G37*
G36*
X121011000Y-72289000D02*
G01*
X115209000Y-72289000D01*
X115209000Y-70587000D01*
X121011000Y-70587000D01*
X121011000Y-72289000D01*
G37*
G36*
X133172468Y-71015565D02*
G01*
X133211138Y-71027296D01*
X133246777Y-71046346D01*
X133278017Y-71071983D01*
X133303654Y-71103223D01*
X133322704Y-71138862D01*
X133334435Y-71177532D01*
X133339000Y-71223888D01*
X133339000Y-71875112D01*
X133334435Y-71921468D01*
X133322704Y-71960138D01*
X133303654Y-71995777D01*
X133278017Y-72027017D01*
X133246777Y-72052654D01*
X133211138Y-72071704D01*
X133172468Y-72083435D01*
X133126112Y-72088000D01*
X132049888Y-72088000D01*
X132003532Y-72083435D01*
X131964862Y-72071704D01*
X131929223Y-72052654D01*
X131897983Y-72027017D01*
X131872346Y-71995777D01*
X131853296Y-71960138D01*
X131841565Y-71921468D01*
X131837000Y-71875112D01*
X131837000Y-71223888D01*
X131841565Y-71177532D01*
X131853296Y-71138862D01*
X131872346Y-71103223D01*
X131897983Y-71071983D01*
X131929223Y-71046346D01*
X131964862Y-71027296D01*
X132003532Y-71015565D01*
X132049888Y-71011000D01*
X133126112Y-71011000D01*
X133172468Y-71015565D01*
G37*
G36*
X126879000Y-71370000D02*
G01*
X125557000Y-71370000D01*
X125557000Y-68838000D01*
X126879000Y-68838000D01*
X126879000Y-71370000D01*
G37*
G36*
X124379000Y-71370000D02*
G01*
X123057000Y-71370000D01*
X123057000Y-68838000D01*
X124379000Y-68838000D01*
X124379000Y-71370000D01*
G37*
G36*
X129870468Y-69999565D02*
G01*
X129909138Y-70011296D01*
X129944777Y-70030346D01*
X129976017Y-70055983D01*
X130001654Y-70087223D01*
X130020704Y-70122862D01*
X130032435Y-70161532D01*
X130037000Y-70207888D01*
X130037000Y-70859112D01*
X130032435Y-70905468D01*
X130020704Y-70944138D01*
X130001654Y-70979777D01*
X129976017Y-71011017D01*
X129944777Y-71036654D01*
X129909138Y-71055704D01*
X129870468Y-71067435D01*
X129824112Y-71072000D01*
X128747888Y-71072000D01*
X128701532Y-71067435D01*
X128662862Y-71055704D01*
X128627223Y-71036654D01*
X128595983Y-71011017D01*
X128570346Y-70979777D01*
X128551296Y-70944138D01*
X128539565Y-70905468D01*
X128535000Y-70859112D01*
X128535000Y-70207888D01*
X128539565Y-70161532D01*
X128551296Y-70122862D01*
X128570346Y-70087223D01*
X128595983Y-70055983D01*
X128627223Y-70030346D01*
X128662862Y-70011296D01*
X128701532Y-69999565D01*
X128747888Y-69995000D01*
X129824112Y-69995000D01*
X129870468Y-69999565D01*
G37*
G36*
X75985468Y-69357565D02*
G01*
X76024138Y-69369296D01*
X76059777Y-69388346D01*
X76091017Y-69413983D01*
X76116654Y-69445223D01*
X76135704Y-69480862D01*
X76147435Y-69519532D01*
X76152000Y-69565888D01*
X76152000Y-70642112D01*
X76147435Y-70688468D01*
X76135704Y-70727138D01*
X76116654Y-70762777D01*
X76091017Y-70794017D01*
X76059777Y-70819654D01*
X76024138Y-70838704D01*
X75985468Y-70850435D01*
X75939112Y-70855000D01*
X75287888Y-70855000D01*
X75241532Y-70850435D01*
X75202862Y-70838704D01*
X75167223Y-70819654D01*
X75135983Y-70794017D01*
X75110346Y-70762777D01*
X75091296Y-70727138D01*
X75079565Y-70688468D01*
X75075000Y-70642112D01*
X75075000Y-69565888D01*
X75079565Y-69519532D01*
X75091296Y-69480862D01*
X75110346Y-69445223D01*
X75135983Y-69413983D01*
X75167223Y-69388346D01*
X75202862Y-69369296D01*
X75241532Y-69357565D01*
X75287888Y-69353000D01*
X75939112Y-69353000D01*
X75985468Y-69357565D01*
G37*
G36*
X74110468Y-69357565D02*
G01*
X74149138Y-69369296D01*
X74184777Y-69388346D01*
X74216017Y-69413983D01*
X74241654Y-69445223D01*
X74260704Y-69480862D01*
X74272435Y-69519532D01*
X74277000Y-69565888D01*
X74277000Y-70642112D01*
X74272435Y-70688468D01*
X74260704Y-70727138D01*
X74241654Y-70762777D01*
X74216017Y-70794017D01*
X74184777Y-70819654D01*
X74149138Y-70838704D01*
X74110468Y-70850435D01*
X74064112Y-70855000D01*
X73412888Y-70855000D01*
X73366532Y-70850435D01*
X73327862Y-70838704D01*
X73292223Y-70819654D01*
X73260983Y-70794017D01*
X73235346Y-70762777D01*
X73216296Y-70727138D01*
X73204565Y-70688468D01*
X73200000Y-70642112D01*
X73200000Y-69565888D01*
X73204565Y-69519532D01*
X73216296Y-69480862D01*
X73235346Y-69445223D01*
X73260983Y-69413983D01*
X73292223Y-69388346D01*
X73327862Y-69369296D01*
X73366532Y-69357565D01*
X73412888Y-69353000D01*
X74064112Y-69353000D01*
X74110468Y-69357565D01*
G37*
G36*
X106793512Y-68953927D02*
G01*
X106942812Y-68983624D01*
X107106784Y-69051544D01*
X107254354Y-69150147D01*
X107379853Y-69275646D01*
X107478456Y-69423216D01*
X107546376Y-69587188D01*
X107581000Y-69761259D01*
X107581000Y-69938741D01*
X107546376Y-70112812D01*
X107478456Y-70276784D01*
X107379853Y-70424354D01*
X107254354Y-70549853D01*
X107106784Y-70648456D01*
X106942812Y-70716376D01*
X106793512Y-70746073D01*
X106768742Y-70751000D01*
X106591258Y-70751000D01*
X106566488Y-70746073D01*
X106417188Y-70716376D01*
X106253216Y-70648456D01*
X106105646Y-70549853D01*
X105980147Y-70424354D01*
X105881544Y-70276784D01*
X105813624Y-70112812D01*
X105779000Y-69938741D01*
X105779000Y-69761259D01*
X105813624Y-69587188D01*
X105881544Y-69423216D01*
X105980147Y-69275646D01*
X106105646Y-69150147D01*
X106253216Y-69051544D01*
X106417188Y-68983624D01*
X106566488Y-68953927D01*
X106591258Y-68949000D01*
X106768742Y-68949000D01*
X106793512Y-68953927D01*
G37*
G36*
X133172468Y-69140565D02*
G01*
X133211138Y-69152296D01*
X133246777Y-69171346D01*
X133278017Y-69196983D01*
X133303654Y-69228223D01*
X133322704Y-69263862D01*
X133334435Y-69302532D01*
X133339000Y-69348888D01*
X133339000Y-70000112D01*
X133334435Y-70046466D01*
X133322704Y-70085138D01*
X133303654Y-70120777D01*
X133278017Y-70152017D01*
X133246777Y-70177654D01*
X133211138Y-70196704D01*
X133172468Y-70208435D01*
X133126112Y-70213000D01*
X132049888Y-70213000D01*
X132003532Y-70208435D01*
X131964862Y-70196704D01*
X131929223Y-70177654D01*
X131897983Y-70152017D01*
X131872346Y-70120777D01*
X131853296Y-70085138D01*
X131841565Y-70046466D01*
X131837000Y-70000112D01*
X131837000Y-69348888D01*
X131841565Y-69302532D01*
X131853296Y-69263862D01*
X131872346Y-69228223D01*
X131897983Y-69196983D01*
X131929223Y-69171346D01*
X131964862Y-69152296D01*
X132003532Y-69140565D01*
X132049888Y-69136000D01*
X133126112Y-69136000D01*
X133172468Y-69140565D01*
G37*
G36*
X129870468Y-68124565D02*
G01*
X129909138Y-68136296D01*
X129944777Y-68155346D01*
X129976017Y-68180983D01*
X130001654Y-68212223D01*
X130020704Y-68247862D01*
X130032435Y-68286532D01*
X130037000Y-68332888D01*
X130037000Y-68984112D01*
X130032435Y-69030468D01*
X130020704Y-69069138D01*
X130001654Y-69104777D01*
X129976017Y-69136017D01*
X129944777Y-69161654D01*
X129909138Y-69180704D01*
X129870468Y-69192435D01*
X129824112Y-69197000D01*
X128747888Y-69197000D01*
X128701532Y-69192435D01*
X128662862Y-69180704D01*
X128627223Y-69161654D01*
X128595983Y-69136017D01*
X128570346Y-69104777D01*
X128551296Y-69069138D01*
X128539565Y-69030468D01*
X128535000Y-68984112D01*
X128535000Y-68332888D01*
X128539565Y-68286532D01*
X128551296Y-68247862D01*
X128570346Y-68212223D01*
X128595983Y-68180983D01*
X128627223Y-68155346D01*
X128662862Y-68136296D01*
X128701532Y-68124565D01*
X128747888Y-68120000D01*
X129824112Y-68120000D01*
X129870468Y-68124565D01*
G37*
G36*
X95375487Y-65550996D02*
G01*
X95612253Y-65649068D01*
X95612255Y-65649069D01*
X95825339Y-65791447D01*
X96006553Y-65972661D01*
X96143042Y-66176931D01*
X96148932Y-66185747D01*
X96247004Y-66422513D01*
X96297000Y-66673861D01*
X96297000Y-66930139D01*
X96247004Y-67181487D01*
X96201768Y-67290695D01*
X96148931Y-67418255D01*
X96006553Y-67631339D01*
X95825339Y-67812553D01*
X95612255Y-67954931D01*
X95612254Y-67954932D01*
X95612253Y-67954932D01*
X95375487Y-68053004D01*
X95124139Y-68103000D01*
X94867861Y-68103000D01*
X94616513Y-68053004D01*
X94379747Y-67954932D01*
X94379746Y-67954932D01*
X94379745Y-67954931D01*
X94166661Y-67812553D01*
X93985447Y-67631339D01*
X93843069Y-67418255D01*
X93790232Y-67290695D01*
X93744996Y-67181487D01*
X93695000Y-66930139D01*
X93695000Y-66673861D01*
X93744996Y-66422513D01*
X93843068Y-66185747D01*
X93848959Y-66176931D01*
X93985447Y-65972661D01*
X94166661Y-65791447D01*
X94379745Y-65649069D01*
X94379747Y-65649068D01*
X94616513Y-65550996D01*
X94867861Y-65501000D01*
X95124139Y-65501000D01*
X95375487Y-65550996D01*
G37*
G36*
X71245393Y-65043304D02*
G01*
X71482101Y-65141352D01*
X71482103Y-65141353D01*
X71695135Y-65283696D01*
X71876304Y-65464865D01*
X72007094Y-65660607D01*
X72018648Y-65677899D01*
X72116696Y-65914607D01*
X72166680Y-66165893D01*
X72166680Y-66422107D01*
X72116696Y-66673393D01*
X72018648Y-66910101D01*
X72018647Y-66910103D01*
X71876304Y-67123135D01*
X71695135Y-67304304D01*
X71482103Y-67446647D01*
X71482102Y-67446648D01*
X71482101Y-67446648D01*
X71245393Y-67544696D01*
X70994107Y-67594680D01*
X70737893Y-67594680D01*
X70486607Y-67544696D01*
X70249899Y-67446648D01*
X70249898Y-67446648D01*
X70249897Y-67446647D01*
X70036865Y-67304304D01*
X69855696Y-67123135D01*
X69713353Y-66910103D01*
X69713352Y-66910101D01*
X69615304Y-66673393D01*
X69565320Y-66422107D01*
X69565320Y-66165893D01*
X69615304Y-65914607D01*
X69713352Y-65677899D01*
X69724906Y-65660607D01*
X69855696Y-65464865D01*
X70036865Y-65283696D01*
X70249897Y-65141353D01*
X70249899Y-65141352D01*
X70486607Y-65043304D01*
X70737893Y-64993320D01*
X70994107Y-64993320D01*
X71245393Y-65043304D01*
G37*
G36*
X121011000Y-67589000D02*
G01*
X115209000Y-67589000D01*
X115209000Y-65887000D01*
X121011000Y-65887000D01*
X121011000Y-67589000D01*
G37*
G36*
X80897393Y-64789304D02*
G01*
X81134101Y-64887352D01*
X81134103Y-64887353D01*
X81347135Y-65029696D01*
X81528304Y-65210865D01*
X81657010Y-65403488D01*
X81670648Y-65423899D01*
X81768696Y-65660607D01*
X81818680Y-65911893D01*
X81818680Y-66168107D01*
X81768696Y-66419393D01*
X81670648Y-66656101D01*
X81670647Y-66656103D01*
X81528304Y-66869135D01*
X81347135Y-67050304D01*
X81134103Y-67192647D01*
X81134102Y-67192648D01*
X81134101Y-67192648D01*
X80897393Y-67290696D01*
X80646107Y-67340680D01*
X80389893Y-67340680D01*
X80138607Y-67290696D01*
X79901899Y-67192648D01*
X79901898Y-67192648D01*
X79901897Y-67192647D01*
X79688865Y-67050304D01*
X79507696Y-66869135D01*
X79365353Y-66656103D01*
X79365352Y-66656101D01*
X79267304Y-66419393D01*
X79217320Y-66168107D01*
X79217320Y-65911893D01*
X79267304Y-65660607D01*
X79365352Y-65423899D01*
X79378990Y-65403488D01*
X79507696Y-65210865D01*
X79688865Y-65029696D01*
X79901897Y-64887353D01*
X79901899Y-64887352D01*
X80138607Y-64789304D01*
X80389893Y-64739320D01*
X80646107Y-64739320D01*
X80897393Y-64789304D01*
G37*
G36*
X135507487Y-63772996D02*
G01*
X135744253Y-63871068D01*
X135744255Y-63871069D01*
X135957339Y-64013447D01*
X136138553Y-64194661D01*
X136280932Y-64407747D01*
X136379004Y-64644513D01*
X136429000Y-64895861D01*
X136429000Y-65152139D01*
X136379004Y-65403487D01*
X136317903Y-65550997D01*
X136280931Y-65640255D01*
X136138553Y-65853339D01*
X135957339Y-66034553D01*
X135744255Y-66176931D01*
X135744254Y-66176932D01*
X135744253Y-66176932D01*
X135507487Y-66275004D01*
X135256139Y-66325000D01*
X134999861Y-66325000D01*
X134748513Y-66275004D01*
X134511747Y-66176932D01*
X134511746Y-66176932D01*
X134511745Y-66176931D01*
X134298661Y-66034553D01*
X134117447Y-65853339D01*
X133975069Y-65640255D01*
X133938097Y-65550997D01*
X133876996Y-65403487D01*
X133827000Y-65152139D01*
X133827000Y-64895861D01*
X133876996Y-64644513D01*
X133975068Y-64407747D01*
X134117447Y-64194661D01*
X134298661Y-64013447D01*
X134511745Y-63871069D01*
X134511747Y-63871068D01*
X134748513Y-63772996D01*
X134999861Y-63723000D01*
X135256139Y-63723000D01*
X135507487Y-63772996D01*
G37*
M02*
